<svg xmlns="http://www.w3.org/2000/svg" width="52" height="52" viewBox="0 0 52 52">
    <g fill="none" fill-rule="evenodd" transform="translate(1 3)">
        <path fill="#FF9400" d="M7.133 23.892s-1.01-4.013-4.199-2.07c-3.186 1.94-.34 8.956 3.111 8.025"/>
        <path fill="#FFB535" d="M26.968 23.892s.708-3.425 4.22-2.058c1.635 1.752-.788 8.592-3.132 8.013"/>
        <path fill="#FFB535" d="M17.046 4.29c-7.9 0-14.304 6.035-14.304 13.48 0 3.651 2.53 9.384 2.53 9.384l.955 6.31a9.076 9.076 0 0 0 3.599 5.957l1.801 1.327a9.149 9.149 0 0 0 10.837 0l1.802-1.327a9.076 9.076 0 0 0 3.598-5.957l.953-6.31s1.532-5.733 1.532-9.383c0-7.446-5.405-13.48-13.303-13.48z"/>
        <path fill="#FF9400" fill-rule="nonzero" d="M17.039 33.087a.274.274 0 1 1-.078-.543c1.103-.159 2.195-.704 2.14-1.108-.08-.583-.285-1.238-.834-2.777-.768-2.153-.99-2.933-.878-3.55.022-.126.302-.767.856-1.994l.023-.051a330.74 330.74 0 0 1 .786-1.727l.074-.161a.274.274 0 1 1 .499.229l-.074.16a370.989 370.989 0 0 0-.785 1.725l-.023.05c-.466 1.034-.807 1.813-.816 1.865-.085.472.14 1.268.85 3.256.569 1.597.779 2.263.866 2.9.118.864-1.205 1.524-2.606 1.726z"/>
        <path fill="#135D92" d="M14.64 25.138c0 .61-.496 1.105-1.11 1.105-.614 0-1.11-.495-1.11-1.105s.496-1.106 1.11-1.106c.614 0 1.11.496 1.11 1.106"/>
        <path fill="#D96B00" d="M7.129 21.82l1.236-.732c.33-.192.711-.281 1.091-.257l5.425.356.11-.983-5.459-.01c-.397 0-.785.122-1.109.35L7.129 21.82z"/>
        <path fill="#D96B00" fill-rule="nonzero" d="M7.269 22.056c-.279.165-.563-.204-.333-.431l1.33-1.305c.37-.26.813-.4 1.267-.4l5.459.01c.163 0 .29.142.272.305l-.11.983a.274.274 0 0 1-.291.243l-5.424-.356a1.654 1.654 0 0 0-.934.219l-1.236.732zm2.205-1.499l5.164.34.047-.42-5.153-.01c-.235 0-.466.05-.666.136.198-.043.403-.059.608-.046z"/>
        <path fill="#135D92" d="M23.387 25.138c0 .61.497 1.105 1.11 1.105.614 0 1.11-.495 1.11-1.105s-.496-1.106-1.11-1.106c-.613 0-1.11.496-1.11 1.106"/>
        <path fill="#D96B00" d="M27.056 21.82l-1.238-.732a1.922 1.922 0 0 0-1.09-.257l-5.424.356-.11-.983 5.457-.01c.399 0 .787.122 1.111.35l1.294 1.276z"/>
        <path fill="#D96B00" fill-rule="nonzero" d="M24.652 20.468l-5.152.01.047.419 5.164-.34c.198-.012.396.002.588.042a1.66 1.66 0 0 0-.647-.131zm2.264 1.588l-1.236-.732a1.648 1.648 0 0 0-.933-.22l-5.425.357a.274.274 0 0 1-.29-.243l-.11-.983a.274.274 0 0 1 .271-.305l5.458-.01c.455 0 .898.14 1.304.429l1.294 1.276c.23.227-.054.596-.333.431z"/>
        <path fill="#135D92" d="M2.022 10.906c.993-1.636 2.326-2.291 2.326-2.291C6.87-2.416 26.905-.261 30.127 7.185c2.773 6.412.68 14.533.68 14.533s-1.682-.492-2.156 2.249c-.234 1.346-.859 1.78-.859 1.78l-.16-1.408c1.486-7.502-1.303-11.21-2.174-11.631-8.234-5.064-19.144.05-19.144.05-2.549 3.411-.223 11.789-.223 11.789l-.845 2.484s-.933-1.901-1.543-3.859c-.609-1.957-1.505-.646-1.787-.144-1.6-5.154-.896-10.473.106-12.122z"/>
        <path fill="#FFF" d="M19.476 34.935c-2.238-1.492-4.476 0-4.476 0v.637c0 .946.233 1.826.618 2.304.437.543 1.057 1.124 1.706 1.124.635 0 1.197-.558 1.587-1.09.356-.488.565-1.335.565-2.235v-.74z"/>
        <rect width="10" height="16" x="31" y="31" fill="#4C5C66" fill-rule="nonzero" rx="1"/>
        <rect width="4" height="7" x="38" y="37" fill="#FFB535" fill-rule="nonzero" rx="1"/>
        <g fill="#6FB72F" fill-rule="nonzero">
            <path d="M44.618 15c-3.525 0-6.382 2.835-6.382 6.333 0 1.196.335 2.315.916 3.27L38 28l3.533-1.122a6.395 6.395 0 0 0 3.085.787c3.525 0 6.382-2.835 6.382-6.332C51 17.835 48.143 15 44.618 15zm3.173 8.738c-.15.372-.829.711-1.128.727-.3.016-.308.232-1.94-.477s-2.613-2.433-2.69-2.544c-.078-.11-.633-.9-.603-1.696.03-.795.466-1.17.622-1.327a.625.625 0 0 1 .442-.186c.128-.002.211-.004.306 0 .095.003.238-.02.362.308.123.329.419 1.137.456 1.219.038.082.062.178.003.283-.058.106-.088.173-.173.264-.085.091-.179.204-.255.274-.084.078-.173.162-.084.327.09.165.396.707.864 1.153.602.574 1.12.764 1.28.851.16.087.255.077.355-.027.099-.104.425-.457.54-.614.114-.158.222-.127.37-.068.146.06.932.48 1.092.567.16.087.267.132.305.2.038.07.026.393-.124.766z"/>
        </g>
    </g>
</svg>
