<svg xmlns="http://www.w3.org/2000/svg" width="52" height="52" viewBox="0 0 52 52">
    <g fill="none" fill-rule="evenodd">
        <path fill="#FF9400" d="M8.133 26.892s-1.01-4.013-4.199-2.07c-3.186 1.94-.34 8.956 3.111 8.025"/>
        <path fill="#FFB535" d="M27.968 26.892s.708-3.425 4.22-2.058c1.635 1.752-.788 8.592-3.132 8.013"/>
        <path fill="#FFB535" d="M18.046 7.29c-7.9 0-14.304 6.035-14.304 13.48 0 3.651 2.53 9.384 2.53 9.384l.955 6.31a9.076 9.076 0 0 0 3.599 5.957l1.801 1.327a9.149 9.149 0 0 0 10.837 0l1.802-1.327a9.076 9.076 0 0 0 3.598-5.957l.953-6.31s1.532-5.733 1.532-9.383c0-7.446-5.405-13.48-13.303-13.48z"/>
        <path fill="#FF9400" fill-rule="nonzero" d="M18.039 36.087a.274.274 0 1 1-.078-.543c1.103-.159 2.195-.704 2.14-1.108-.08-.583-.285-1.238-.834-2.777-.768-2.153-.99-2.933-.878-3.55.022-.126.302-.767.856-1.994l.023-.051a330.74 330.74 0 0 1 .786-1.727l.074-.161a.274.274 0 1 1 .499.229l-.074.16a370.989 370.989 0 0 0-.785 1.725l-.023.05c-.466 1.034-.807 1.813-.816 1.865-.085.472.14 1.268.85 3.256.569 1.597.779 2.263.866 2.9.118.864-1.205 1.524-2.606 1.726z"/>
        <path fill="#135D92" d="M13.64 28.138c0 .61-.496 1.105-1.11 1.105-.614 0-1.11-.495-1.11-1.105s.496-1.106 1.11-1.106c.614 0 1.11.496 1.11 1.106"/>
        <path fill="#D96B00" d="M8.129 24.82l1.236-.732c.33-.192.711-.281 1.091-.257l5.425.356.11-.983-5.459-.01c-.397 0-.785.122-1.109.35L8.129 24.82z"/>
        <path fill="#D96B00" fill-rule="nonzero" d="M8.269 25.056c-.279.165-.563-.204-.333-.431l1.33-1.305c.37-.26.813-.4 1.267-.4l5.459.01c.163 0 .29.142.272.305l-.11.983a.274.274 0 0 1-.291.243l-5.424-.356a1.654 1.654 0 0 0-.934.219l-1.236.732zm2.205-1.499l5.164.34.047-.42-5.153-.01c-.235 0-.466.05-.666.136.198-.043.403-.059.608-.046z"/>
        <path fill="#135D92" d="M22.387 28.138c0 .61.497 1.105 1.11 1.105.614 0 1.11-.495 1.11-1.105s-.496-1.106-1.11-1.106c-.613 0-1.11.496-1.11 1.106"/>
        <path fill="#D96B00" d="M28.056 24.82l-1.238-.732a1.922 1.922 0 0 0-1.09-.257l-5.424.356-.11-.983 5.457-.01c.399 0 .787.122 1.111.35l1.294 1.276z"/>
        <path fill="#D96B00" fill-rule="nonzero" d="M25.652 23.468l-5.152.01.047.419 5.164-.34c.198-.012.396.002.588.042a1.66 1.66 0 0 0-.647-.131zm2.264 1.588l-1.236-.732a1.648 1.648 0 0 0-.933-.22l-5.425.357a.274.274 0 0 1-.29-.243l-.11-.983a.274.274 0 0 1 .271-.305l5.458-.01c.455 0 .898.14 1.304.429l1.294 1.276c.23.227-.054.596-.333.431z"/>
        <path fill="#135D92" d="M3.022 13.906c.993-1.636 2.326-2.291 2.326-2.291C7.87.584 27.905 2.739 31.127 10.185c2.773 6.412.68 14.533.68 14.533s-1.682-.492-2.156 2.249c-.234 1.346-.859 1.78-.859 1.78l-.16-1.408c1.486-7.502-1.303-11.21-2.174-11.631-8.234-5.064-19.144.05-19.144.05-2.549 3.411-.223 11.789-.223 11.789l-.845 2.484s-.933-1.901-1.543-3.859c-.609-1.957-1.505-.646-1.787-.144-1.6-5.154-.896-10.473.106-12.122z"/>
        <path fill="#FFF" d="M22.584 37.452c-4.147.788-7.874 0-7.874 0v.528c0 .784.409 1.513 1.088 1.91.768.45 1.859.931 3.001.931 1.117 0 2.105-.462 2.791-.903a2.198 2.198 0 0 0 .994-1.853v-.613z"/>
        <path d="M22.584 37.452c-4.147.788-7.874 0-7.874 0v.528c0 .784.409 1.513 1.088 1.91.768.45 1.859.931 3.001.931 1.117 0 2.105-.462 2.791-.903a2.198 2.198 0 0 0 .994-1.853v-.613z"/>
    </g>
</svg>
