<svg height="245" viewBox="0 0 760 245" width="760" xmlns="http://www.w3.org/2000/svg" xmlns:xlink="http://www.w3.org/1999/xlink"><linearGradient id="a" x1="100%" x2="0%" y1="50%" y2="50%"><stop offset="0" stop-color="#fff"/><stop offset="1" stop-color="#ffb535"/></linearGradient><g fill="none" fill-rule="evenodd"><g opacity=".1"><path d="m4.385 116.64c.109.862.777 1.5 1.389 1.932.913.362 2.344.955 4.061 1.778 1.914.917 3.263 1.68 3.44 1.777 1.92 1.059 7.828 2.07 23.974 2.27a8532.209 8532.209 0 0 0 88.661.328l5.209-1.69c1.091-.684 2.242-1.696 2.546-3.137 1.098-5.215-9.517-13.221-18.866-16.287-13.423-4.402-18.046 3.412-36.805 4.102-20.426.752-21.563-8.27-40.508-6.274-16.375 1.725-33.712 10.38-33.101 15.202" fill="#3a4952"/><path d="m13.803 96.135a98.797 98.797 0 0 1 15.84-5.467 99.016 99.016 0 0 1 7.003-1.492c2.32-.407 7.744-1.275 15.544-1.493 1.811-.05 10.155.1 17.133.65 15.105 1.19 32.99 10.722 32.04 15.522-1.186 5.993-32.115 6.033-56.529 1.426a162.457 162.457 0 0 1 -31.031-9.146" fill="#a5bbc9"/><path d="m97.132 99.491c.228-.002.562-.005.966-.003 7.726.02 13.679 1.15 15.9 1.61 15.27 3.153 19.23 8.648 19.47 9.045.778 1.289.647 2.219.647 2.219-.053.373-.168.508-.13.826.099.822 1.003 1.07 1.425 1.61 1 1.277-.195 4.836-2.59 6.436-1.112.743-2.147.797-4.49.87-2.882.09-5.877.15-8.978.174l.086-5.828c.02-1.33-.328-2.513-.95-3.915-1.587-3.578-4.742-5.207-5.482-5.566a11.768 11.768 0 0 0 -6-1.131c-.421.032-5.886.533-8.893 5.045-1.254 1.88-1.59 3.707-1.9 5.393a19.349 19.349 0 0 0 -.086 6.437l-54.65-.61c.292-1.29.674-3.773-.087-6.697-.344-1.32-1.385-5.079-5.094-7.567-.664-.446-4.238-2.747-8.806-1.828-5.266 1.06-8.666 5.757-9.497 10.091-.439 2.288-.115 4.234.172 5.393a179.6 179.6 0 0 1 -9.065-1.827c-4.12-.94-5.61-1.435-6.648-2.87-1.05-1.45-1.242-3.24-1.381-4.61-.198-1.94.056-3.546.295-4.574.68-.448 1.357-.895 2.036-1.341l.129-5.828c-.58-.843-1.187-1.923-.814-2.433.312-.427 1.164-.252 1.93-.18.813.076 2.312-.25 5.31-.902 3.61-.785 5.722-1.542 7.06-1.449.17.012.948.08 2.011-.006 0 0 .348-.026.691-.076 1.957-.282 3.298-1.009 4.23-1.478 1.942-.977 4.049-1.578 6.044-2.436 4.625-1.99 17.675-5.387 32.808-4.262 4.205.312 7.258.876 8.113 1.039 7.07 1.345 12.32 3.516 14.816 4.639a65.2 65.2 0 0 1 11.402 6.59" fill="#e4ebf0" stroke="#3a4952"/><path d="m29.3 94.651a45.56 45.56 0 0 1 4.528-2.113c2.157-.866 8.206-3.1 20.015-3.425 4.947-.135 9.51-.26 15.23.721 5.43.932 14.889 3.375 25.281 10.817l.307 1.847-60.92-3.65a6.834 6.834 0 0 1 -2.503-1.397 7.115 7.115 0 0 1 -1.937-2.8" fill="#a5bbc9"/><path d="m107.464 130.125c-6.688 0-12.129-5.441-12.129-12.129 0-6.687 5.441-12.129 12.13-12.129 6.687 0 12.128 5.442 12.128 12.13 0 6.687-5.44 12.128-12.129 12.128" fill="#3a4952"/><path d="m115.55 117.659a7.749 7.749 0 1 0 -15.498 0 7.749 7.749 0 0 0 15.498 0" fill="#f3f7f9"/><path d="m107.8 110.623c-3.875 0-7.027 3.156-7.027 7.036s3.152 7.036 7.028 7.036 7.028-3.156 7.028-7.036-3.152-7.036-7.028-7.036m0 14.785c-4.273 0-7.749-3.476-7.749-7.749s3.476-7.749 7.749-7.749 7.749 3.476 7.749 7.749-3.476 7.749-7.75 7.749" fill="#f3f7f9"/><path d="m29.974 130.125c-6.688 0-12.128-5.441-12.128-12.129 0-6.687 5.44-12.129 12.128-12.129 6.689 0 12.13 5.442 12.13 12.13 0 6.687-5.441 12.128-12.13 12.128" fill="#3a4952"/><path d="m38.06 117.659a7.749 7.749 0 1 0 -15.497 0 7.749 7.749 0 0 0 15.497 0" fill="#f3f7f9"/><path d="m30.311 110.623c-3.875 0-7.028 3.156-7.028 7.036s3.153 7.036 7.028 7.036c3.876 0 7.03-3.156 7.03-7.036s-3.154-7.036-7.03-7.036m0 14.785c-4.272 0-7.749-3.476-7.749-7.749s3.477-7.749 7.75-7.749c4.272 0 7.748 3.476 7.748 7.749s-3.476 7.749-7.749 7.749" fill="#f3f7f9"/><path d="m85.698 97.781a21.571 21.571 0 0 1 4.462 2.216c1.354.882 2.628 1.712 2.466 2.333-.266 1.014-4.193.84-4.697.816a16.14 16.14 0 0 1 -2.701-.35z" fill="#e4ebf0" stroke="#3a4952"/><path d="m126.696 107.599c1.231.314 2.791.845 4.552 1.916 1.046.636 1.48 1.048 1.82 1.557.055.08.982 1.487.57 2.036-.203.27-.684.27-2.845-.36-2.019-.589-3.028-.883-3.528-1.197-1.935-1.217-3.322-3.55-2.87-4.185.214-.298.91-.121 2.3.233" fill="#fff" stroke="#3a4952"/><path d="m126.331 119.913c.338-.865 1.39-3.2 3.949-4.434 1.119-.54 3.57-1.37 4.46-.416.779.837.258 2.937-1.521 4.954z" fill="#a5bbc9"/><path d="m35.357 105.115c-.145.406-2.14-.893-5.684-1.037-3.572-.145-5.639 1.01-5.758.6-.144-.498 2.664-3.028 5.941-2.844 3.15.177 5.672 2.8 5.5 3.28m76.818.016c-.119.326-1.762-.714-4.68-.83-2.942-.115-4.644.808-4.742.481-.12-.398 2.194-2.422 4.892-2.275 2.594.14 4.671 2.24 4.53 2.625" fill="#f9fbfc"/><path d="m3.054 101.15c1.277.207 2.768.485 4.421.865 1.886.434 2.85.658 3.807 1.109.966.454 2.439 1.338 3.868 3.131a666.817 666.817 0 0 0 -12.129.286l.033-5.39" fill="#fff" stroke="#3a4952"/><path d="m1 113.329a28.05 28.05 0 0 1 3.5.01c1.942.128 3.311.21 4.773.851.776.341 1.97 1.018 3.182 2.458l-9.989-.283a5.475 5.475 0 0 1 -.96-1.335 4.864 4.864 0 0 1 -.506-1.701" fill="#a5bbc9"/><path d="m52.826 120.143 40.728 1.041c.096-1.633.24-3.302.428-4.962.217-1.917.441-3.379.64-4.669.339-2.21.584-3.808.53-6.062a27.708 27.708 0 0 0 -.647-5.285 96.91 96.91 0 0 0 -12.608-5.895c-4.562-1.745-9.596-3.262-13.468-4.059-12.189-2.508-24.68-.07-33.027 2.423l-1.864 5.717a131.25 131.25 0 0 1 3.642 5.307c3.101 4.764 4.656 7.153 6.154 9.99.337.638.62 1.193.868 1.683.982 1.933 1.43 2.816 2.65 3.624 1.56 1.032 3.57 1.418 5.974 1.147zm40.893 1.222-.085-.003-40.8-1.044c-2.435.276-4.484-.12-6.078-1.176-1.26-.833-1.714-1.729-2.71-3.69-.249-.49-.53-1.044-.867-1.681-1.494-2.829-3.048-5.216-6.143-9.972a132.097 132.097 0 0 0 -3.666-5.34l-.026-.036 1.92-5.89.044-.014c8.366-2.504 20.91-4.96 33.156-2.44 3.881.8 8.926 2.32 13.495 4.067a96.995 96.995 0 0 1 12.666 5.926l.034.02.01.037c.395 1.79.617 3.593.659 5.358.054 2.27-.192 3.873-.533 6.093a109.725 109.725 0 0 0 -.638 4.662 93.744 93.744 0 0 0 -.433 5.038z" fill="#3a4952" stroke="#3a4952" stroke-width=".5"/><path d="m64.534 120.691-.142-.028c.666-5.047.636-9.864-.088-14.318-.155-.953-.316-1.733-.501-2.636-.205-.994-.437-2.12-.732-3.81a127.836 127.836 0 0 1 -1.427-10.859l.142-.019c.315 3.594.794 7.242 1.424 10.842.296 1.687.527 2.811.731 3.803.187.906.348 1.687.503 2.645.728 4.474.758 9.312.09 14.38" fill="#3a4952" stroke="#3a4952" stroke-width=".5"/><path d="m94.734 99.803-.073-.128 2.623-.546.073.127z" fill="#050706"/></g><g opacity=".1"><path d="m12.13 116.64c.109.862.777 1.5 1.389 1.932.914.362 2.344.955 4.062 1.778 1.913.917 3.262 1.68 3.439 1.777 1.92 1.059 7.828 2.07 23.974 2.27a8532.209 8532.209 0 0 0 88.661.328l5.209-1.69c1.091-.684 2.242-1.696 2.546-3.137 1.098-5.215-9.516-13.221-18.866-16.287-13.423-4.402-18.045 3.412-36.805 4.102-20.426.752-21.563-8.27-40.508-6.274-16.375 1.725-33.712 10.38-33.101 15.202" fill="#3a4952"/><path d="m21.548 96.135a98.797 98.797 0 0 1 15.84-5.467 99.016 99.016 0 0 1 7.003-1.492c2.32-.407 7.744-1.275 15.544-1.493 1.811-.05 10.155.1 17.133.65 15.105 1.19 32.99 10.722 32.04 15.522-1.186 5.993-32.115 6.033-56.529 1.426a162.457 162.457 0 0 1 -31.031-9.146" fill="#a5bbc9"/><path d="m104.877 99.491c.228-.002.563-.005.966-.003 7.726.02 13.679 1.15 15.9 1.61 15.27 3.153 19.23 8.648 19.47 9.045.778 1.289.647 2.219.647 2.219-.053.373-.168.508-.13.826.099.822 1.003 1.07 1.425 1.61 1 1.277-.195 4.836-2.59 6.436-1.112.743-2.147.797-4.49.87-2.882.09-5.876.15-8.978.174l.086-5.828c.02-1.33-.328-2.513-.95-3.915-1.587-3.578-4.742-5.207-5.482-5.566a11.768 11.768 0 0 0 -6-1.131c-.42.032-5.886.533-8.893 5.045-1.253 1.88-1.59 3.707-1.9 5.393a19.349 19.349 0 0 0 -.086 6.437l-54.65-.61c.292-1.29.674-3.773-.087-6.697-.343-1.32-1.385-5.079-5.094-7.567-.664-.446-4.238-2.747-8.806-1.828-5.266 1.06-8.666 5.757-9.497 10.091-.439 2.288-.115 4.234.173 5.393a179.6 179.6 0 0 1 -9.066-1.827c-4.12-.94-5.61-1.435-6.648-2.87-1.05-1.45-1.242-3.24-1.381-4.61-.198-1.94.056-3.546.296-4.574.678-.448 1.357-.895 2.035-1.341l.13-5.828c-.581-.843-1.188-1.923-.815-2.433.312-.427 1.164-.252 1.93-.18.813.076 2.312-.25 5.31-.902 3.61-.785 5.722-1.542 7.06-1.449.17.012.948.08 2.011-.006 0 0 .348-.026.691-.076 1.957-.282 3.298-1.009 4.23-1.478 1.942-.977 4.049-1.578 6.045-2.436 4.624-1.99 17.675-5.387 32.807-4.262 4.205.312 7.258.876 8.113 1.039 7.07 1.345 12.32 3.516 14.816 4.639a65.2 65.2 0 0 1 11.402 6.59" fill="#e4ebf0" stroke="#3a4952"/><path d="m37.046 94.651a45.56 45.56 0 0 1 4.527-2.113c2.158-.866 8.206-3.1 20.015-3.425 4.947-.135 9.51-.26 15.23.721 5.43.932 14.889 3.375 25.281 10.817l.308 1.847-60.922-3.65a6.834 6.834 0 0 1 -2.502-1.397 7.115 7.115 0 0 1 -1.937-2.8" fill="#a5bbc9"/><path d="m115.21 130.125c-6.689 0-12.13-5.441-12.13-12.129 0-6.687 5.441-12.129 12.13-12.129 6.687 0 12.128 5.442 12.128 12.13 0 6.687-5.44 12.128-12.129 12.128" fill="#3a4952"/><path d="m123.295 117.659a7.749 7.749 0 1 0 -15.498 0 7.749 7.749 0 0 0 15.498 0" fill="#f3f7f9"/><path d="m115.546 110.623c-3.876 0-7.028 3.156-7.028 7.036s3.152 7.036 7.028 7.036 7.029-3.156 7.029-7.036-3.153-7.036-7.03-7.036m0 14.785c-4.272 0-7.748-3.476-7.748-7.749s3.476-7.749 7.749-7.749 7.75 3.476 7.75 7.749-3.477 7.749-7.75 7.749" fill="#f3f7f9"/><path d="m37.72 130.125c-6.689 0-12.13-5.441-12.13-12.129 0-6.687 5.441-12.129 12.13-12.129 6.688 0 12.128 5.442 12.128 12.13 0 6.687-5.44 12.128-12.128 12.128" fill="#3a4952"/><path d="m45.805 117.659a7.749 7.749 0 1 0 -15.497 0 7.749 7.749 0 0 0 15.497 0" fill="#f3f7f9"/><path d="m38.056 110.623c-3.875 0-7.028 3.156-7.028 7.036s3.153 7.036 7.028 7.036c3.876 0 7.03-3.156 7.03-7.036s-3.154-7.036-7.03-7.036m0 14.785c-4.272 0-7.749-3.476-7.749-7.749s3.477-7.749 7.75-7.749c4.272 0 7.748 3.476 7.748 7.749s-3.476 7.749-7.749 7.749" fill="#f3f7f9"/><path d="m93.443 97.781a21.571 21.571 0 0 1 4.462 2.216c1.354.882 2.629 1.712 2.466 2.333-.265 1.014-4.193.84-4.697.816a16.14 16.14 0 0 1 -2.701-.35z" fill="#e4ebf0" stroke="#3a4952"/><path d="m134.44 107.599c1.232.314 2.792.845 4.553 1.916 1.046.636 1.48 1.048 1.821 1.557.054.08.98 1.487.57 2.036-.204.27-.685.27-2.846-.36-2.019-.589-3.028-.883-3.528-1.197-1.935-1.217-3.322-3.55-2.87-4.185.214-.298.91-.121 2.3.233" fill="#fff" stroke="#3a4952"/><path d="m134.076 119.913c.338-.865 1.39-3.2 3.949-4.434 1.119-.54 3.57-1.37 4.46-.416.779.837.258 2.937-1.521 4.954z" fill="#a5bbc9"/><path d="m43.102 105.115c-.145.406-2.14-.893-5.683-1.037-3.573-.145-5.64 1.01-5.759.6-.144-.498 2.664-3.028 5.941-2.844 3.15.177 5.672 2.8 5.5 3.28m76.819.016c-.12.326-1.763-.714-4.681-.83-2.942-.115-4.644.808-4.742.481-.12-.398 2.194-2.422 4.892-2.275 2.594.14 4.671 2.24 4.53 2.625" fill="#f9fbfc"/><path d="m10.799 101.15c1.277.207 2.768.485 4.421.865 1.886.434 2.85.658 3.807 1.109.967.454 2.44 1.338 3.868 3.131a666.817 666.817 0 0 0 -12.128.286l.032-5.39" fill="#fff" stroke="#3a4952"/><path d="m8.745 113.329a28.05 28.05 0 0 1 3.5.01c1.942.128 3.311.21 4.773.851.776.341 1.97 1.018 3.182 2.458l-9.989-.283a5.475 5.475 0 0 1 -.96-1.335 4.864 4.864 0 0 1 -.506-1.701" fill="#a5bbc9"/><path d="m60.571 120.143 40.728 1.041c.097-1.633.241-3.302.428-4.962.217-1.917.442-3.379.64-4.669.339-2.21.584-3.808.53-6.062a27.708 27.708 0 0 0 -.647-5.285 96.91 96.91 0 0 0 -12.608-5.895c-4.562-1.745-9.596-3.262-13.468-4.059-12.189-2.508-24.68-.07-33.027 2.423l-1.864 5.717a131.25 131.25 0 0 1 3.643 5.307c3.1 4.764 4.655 7.153 6.153 9.99.337.638.62 1.193.868 1.683.982 1.933 1.43 2.816 2.651 3.624 1.559 1.032 3.569 1.418 5.973 1.147zm40.893 1.222-.085-.003-40.8-1.044c-2.435.276-4.484-.12-6.078-1.176-1.26-.833-1.714-1.729-2.71-3.69-.249-.49-.53-1.044-.867-1.681-1.494-2.829-3.048-5.216-6.143-9.972a132.097 132.097 0 0 0 -3.666-5.34l-.026-.036 1.92-5.89.044-.014c8.366-2.504 20.91-4.96 33.156-2.44 3.881.8 8.926 2.32 13.496 4.067a96.995 96.995 0 0 1 12.665 5.926l.034.02.01.037c.395 1.79.617 3.593.659 5.358.054 2.27-.192 3.873-.533 6.093a109.725 109.725 0 0 0 -.638 4.662 93.744 93.744 0 0 0 -.433 5.038z" fill="#3a4952" stroke="#3a4952" stroke-width=".5"/><path d="m72.279 120.691-.142-.028c.666-5.047.636-9.864-.088-14.318-.155-.953-.316-1.733-.501-2.636-.205-.994-.436-2.12-.732-3.81a127.836 127.836 0 0 1 -1.427-10.859l.142-.019c.315 3.594.794 7.242 1.425 10.842.295 1.687.526 2.811.73 3.803.187.906.348 1.687.503 2.645.728 4.474.758 9.312.09 14.38" fill="#3a4952" stroke="#3a4952" stroke-width=".5"/><path d="m102.479 99.803-.072-.128 2.623-.546.072.127z" fill="#050706"/></g><g opacity=".4"><path d="m19.875 116.64c.109.862.777 1.5 1.389 1.932.914.362 2.345.955 4.062 1.778 1.913.917 3.262 1.68 3.439 1.777 1.92 1.059 7.828 2.07 23.974 2.27a8532.209 8532.209 0 0 0 88.661.328l5.209-1.69c1.091-.684 2.243-1.696 2.546-3.137 1.098-5.215-9.516-13.221-18.866-16.287-13.423-4.402-18.045 3.412-36.804 4.102-20.427.752-21.564-8.27-40.509-6.274-16.375 1.725-33.712 10.38-33.101 15.202" fill="#3a4952"/><path d="m29.293 96.135a98.797 98.797 0 0 1 15.84-5.467 99.016 99.016 0 0 1 7.003-1.492c2.32-.407 7.744-1.275 15.544-1.493 1.811-.05 10.155.1 17.133.65 15.105 1.19 32.99 10.722 32.04 15.522-1.186 5.993-32.115 6.033-56.528 1.426a162.457 162.457 0 0 1 -31.032-9.146" fill="#a5bbc9"/><path d="m112.623 99.491c.228-.002.562-.005.965-.003 7.726.02 13.68 1.15 15.9 1.61 15.27 3.153 19.23 8.648 19.47 9.045.778 1.289.647 2.219.647 2.219-.053.373-.168.508-.13.826.099.822 1.003 1.07 1.425 1.61 1 1.277-.195 4.836-2.59 6.436-1.112.743-2.147.797-4.49.87-2.882.09-5.876.15-8.978.174l.086-5.828c.02-1.33-.328-2.513-.95-3.915-1.586-3.578-4.742-5.207-5.482-5.566a11.768 11.768 0 0 0 -6-1.131c-.42.032-5.886.533-8.893 5.045-1.253 1.88-1.59 3.707-1.9 5.393a19.349 19.349 0 0 0 -.086 6.437l-54.65-.61c.292-1.29.674-3.773-.087-6.697-.343-1.32-1.385-5.079-5.094-7.567-.664-.446-4.238-2.747-8.806-1.828-5.266 1.06-8.666 5.757-9.497 10.091-.439 2.288-.115 4.234.173 5.393a179.6 179.6 0 0 1 -9.066-1.827c-4.12-.94-5.609-1.435-6.647-2.87-1.05-1.45-1.242-3.24-1.382-4.61-.197-1.94.056-3.546.296-4.574.678-.448 1.357-.895 2.035-1.341l.13-5.828c-.581-.843-1.188-1.923-.815-2.433.313-.427 1.164-.252 1.93-.18.813.076 2.312-.25 5.31-.902 3.61-.785 5.722-1.542 7.06-1.449.17.012.948.08 2.011-.006 0 0 .348-.026.692-.076 1.956-.282 3.298-1.009 4.23-1.478 1.941-.977 4.048-1.578 6.044-2.436 4.624-1.99 17.675-5.387 32.807-4.262 4.205.312 7.258.876 8.113 1.039 7.071 1.345 12.32 3.516 14.817 4.639a65.2 65.2 0 0 1 11.402 6.59" fill="#e4ebf0" stroke="#3a4952"/><path d="m44.79 94.651a45.56 45.56 0 0 1 4.528-2.113c2.158-.866 8.206-3.1 20.015-3.425 4.947-.135 9.51-.26 15.23.721 5.43.932 14.89 3.375 25.281 10.817l.308 1.847-60.922-3.65a6.834 6.834 0 0 1 -2.501-1.397 7.115 7.115 0 0 1 -1.938-2.8" fill="#a5bbc9"/><path d="m122.954 130.125c-6.688 0-12.129-5.441-12.129-12.129 0-6.687 5.441-12.129 12.13-12.129 6.687 0 12.128 5.442 12.128 12.13 0 6.687-5.44 12.128-12.129 12.128" fill="#3a4952"/><path d="m131.04 117.659a7.749 7.749 0 1 0 -15.498 0 7.749 7.749 0 0 0 15.498 0" fill="#f3f7f9"/><path d="m123.291 110.623c-3.875 0-7.028 3.156-7.028 7.036s3.153 7.036 7.028 7.036c3.876 0 7.029-3.156 7.029-7.036s-3.153-7.036-7.029-7.036m0 14.785c-4.273 0-7.749-3.476-7.749-7.749s3.476-7.749 7.749-7.749 7.75 3.476 7.75 7.749-3.477 7.749-7.75 7.749" fill="#f3f7f9"/><path d="m45.465 130.125c-6.689 0-12.13-5.441-12.13-12.129 0-6.687 5.441-12.129 12.13-12.129 6.688 0 12.128 5.442 12.128 12.13 0 6.687-5.44 12.128-12.128 12.128" fill="#3a4952"/><path d="m53.55 117.659a7.749 7.749 0 1 0 -15.497 0 7.749 7.749 0 0 0 15.497 0" fill="#f3f7f9"/><path d="m45.802 110.623c-3.876 0-7.03 3.156-7.03 7.036s3.154 7.036 7.03 7.036c3.875 0 7.028-3.156 7.028-7.036s-3.153-7.036-7.028-7.036m0 14.785c-4.273 0-7.75-3.476-7.75-7.749s3.477-7.749 7.75-7.749 7.748 3.476 7.748 7.749-3.475 7.749-7.748 7.749" fill="#f3f7f9"/><path d="m101.188 97.781a21.571 21.571 0 0 1 4.462 2.216c1.354.882 2.629 1.712 2.466 2.333-.265 1.014-4.193.84-4.697.816a16.14 16.14 0 0 1 -2.7-.35c.155-1.671.312-3.343.469-5.015" fill="#e4ebf0" stroke="#3a4952"/><path d="m142.186 107.599c1.231.314 2.791.845 4.552 1.916 1.046.636 1.48 1.048 1.821 1.557.054.08.981 1.487.57 2.036-.204.27-.685.27-2.846-.36-2.019-.589-3.028-.883-3.528-1.197-1.935-1.217-3.322-3.55-2.869-4.185.213-.298.909-.121 2.3.233" fill="#fff" stroke="#3a4952"/><path d="m141.821 119.913c.338-.865 1.39-3.2 3.949-4.434 1.12-.54 3.57-1.37 4.46-.416.779.837.258 2.937-1.521 4.954z" fill="#a5bbc9"/><path d="m50.847 105.115c-.145.406-2.14-.893-5.683-1.037-3.573-.145-5.64 1.01-5.758.6-.145-.498 2.663-3.028 5.94-2.844 3.15.177 5.672 2.8 5.501 3.28m76.817.016c-.119.326-1.762-.714-4.68-.83-2.942-.115-4.644.808-4.742.481-.119-.398 2.194-2.422 4.893-2.275 2.593.14 4.67 2.24 4.53 2.625" fill="#f9fbfc"/><path d="m18.544 101.15c1.278.207 2.768.485 4.421.865 1.886.434 2.85.658 3.807 1.109.967.454 2.44 1.338 3.868 3.131a666.817 666.817 0 0 0 -12.128.286l.032-5.39" fill="#fff" stroke="#3a4952"/><path d="m16.49 113.329a28.05 28.05 0 0 1 3.5.01c1.943.128 3.311.21 4.773.851.776.341 1.97 1.018 3.182 2.458l-9.988-.283a5.475 5.475 0 0 1 -.962-1.335 4.864 4.864 0 0 1 -.505-1.701" fill="#a5bbc9"/><path d="m68.316 120.143 40.728 1.041c.097-1.633.241-3.302.428-4.962.217-1.917.442-3.379.64-4.669.339-2.21.584-3.808.53-6.062a27.708 27.708 0 0 0 -.647-5.285 96.91 96.91 0 0 0 -12.608-5.895c-4.561-1.745-9.596-3.262-13.468-4.059-12.188-2.508-24.68-.07-33.027 2.423l-1.864 5.717a131.25 131.25 0 0 1 3.643 5.307c3.1 4.764 4.655 7.153 6.153 9.99.337.638.62 1.193.868 1.683.982 1.933 1.43 2.816 2.651 3.624 1.56 1.032 3.569 1.418 5.973 1.147zm40.893 1.222-.085-.003-40.8-1.044c-2.435.276-4.484-.12-6.078-1.176-1.26-.833-1.714-1.729-2.71-3.69-.249-.49-.53-1.044-.867-1.681-1.494-2.829-3.048-5.216-6.143-9.972a132.097 132.097 0 0 0 -3.666-5.34l-.026-.036 1.92-5.89.044-.014c8.367-2.504 20.91-4.96 33.156-2.44 3.881.8 8.926 2.32 13.496 4.067a96.995 96.995 0 0 1 12.665 5.926l.035.02.009.037c.395 1.79.617 3.593.66 5.358.053 2.27-.193 3.873-.534 6.093a109.725 109.725 0 0 0 -.638 4.662 93.744 93.744 0 0 0 -.433 5.038z" fill="#3a4952" stroke="#3a4952" stroke-width=".5"/><path d="m80.024 120.691-.141-.028c.665-5.047.635-9.864-.09-14.318-.154-.953-.314-1.733-.5-2.636-.204-.994-.436-2.12-.732-3.81a127.836 127.836 0 0 1 -1.427-10.859l.142-.019c.315 3.594.794 7.242 1.425 10.842.295 1.687.527 2.811.73 3.803.187.906.348 1.687.503 2.645.728 4.474.758 9.312.09 14.38" fill="#3a4952" stroke="#3a4952" stroke-width=".5"/><path d="m110.224 99.803-.072-.128 2.623-.546.072.127z" fill="#050706"/></g><path d="m27.62 116.64c.109.862.777 1.5 1.389 1.932.914.362 2.345.955 4.062 1.778 1.913.917 3.263 1.68 3.439 1.777 1.92 1.059 7.828 2.07 23.974 2.27a8532.209 8532.209 0 0 0 88.661.328l5.209-1.69c1.091-.684 2.243-1.696 2.546-3.137 1.098-5.215-9.516-13.221-18.866-16.287-13.423-4.402-18.045 3.412-36.804 4.102-20.427.752-21.564-8.27-40.509-6.274-16.375 1.725-33.711 10.38-33.1 15.202" fill="#3a4952"/><path d="m37.038 96.135a98.797 98.797 0 0 1 15.84-5.467 99.016 99.016 0 0 1 7.003-1.492c2.32-.407 7.744-1.275 15.544-1.493 1.811-.05 10.155.1 17.133.65 15.105 1.19 32.99 10.722 32.04 15.522-1.185 5.993-32.115 6.033-56.528 1.426a162.457 162.457 0 0 1 -31.032-9.146" fill="#a5bbc9"/><path d="m120.368 99.491c.228-.002.562-.005.965-.003 7.726.02 13.68 1.15 15.901 1.61 15.27 3.153 19.229 8.648 19.469 9.045.779 1.289.647 2.219.647 2.219-.053.373-.167.508-.129.826.098.822 1.002 1.07 1.424 1.61 1 1.277-.195 4.836-2.59 6.436-1.112.743-2.147.797-4.49.87-2.882.09-5.876.15-8.978.174l.086-5.828c.02-1.33-.328-2.513-.95-3.915-1.586-3.578-4.742-5.207-5.482-5.566a11.768 11.768 0 0 0 -6-1.131c-.42.032-5.886.533-8.893 5.045-1.253 1.88-1.59 3.707-1.9 5.393a19.349 19.349 0 0 0 -.086 6.437l-54.65-.61c.293-1.29.674-3.773-.087-6.697-.343-1.32-1.385-5.079-5.094-7.567-.664-.446-4.238-2.747-8.806-1.828-5.265 1.06-8.666 5.757-9.497 10.091-.439 2.288-.115 4.234.173 5.393a179.6 179.6 0 0 1 -9.066-1.827c-4.12-.94-5.609-1.435-6.647-2.87-1.05-1.45-1.242-3.24-1.382-4.61-.197-1.94.056-3.546.296-4.574.678-.448 1.357-.895 2.035-1.341l.13-5.828c-.58-.843-1.188-1.923-.815-2.433.313-.427 1.164-.252 1.93-.18.813.076 2.312-.25 5.31-.902 3.61-.785 5.722-1.542 7.06-1.449.17.012.948.08 2.011-.006 0 0 .349-.026.692-.076 1.956-.282 3.298-1.009 4.23-1.478 1.941-.977 4.048-1.578 6.044-2.436 4.624-1.99 17.675-5.387 32.808-4.262 4.204.312 7.257.876 8.113 1.039 7.07 1.345 12.318 3.516 14.816 4.639a65.2 65.2 0 0 1 11.402 6.59" fill="#e4ebf0" stroke="#3a4952"/><path d="m52.536 94.651a45.56 45.56 0 0 1 4.527-2.113c2.158-.866 8.206-3.1 20.015-3.425 4.947-.135 9.51-.26 15.23.721 5.43.932 14.89 3.375 25.282 10.817l.307 1.847-60.922-3.65a6.834 6.834 0 0 1 -2.501-1.397 7.115 7.115 0 0 1 -1.938-2.8" fill="#a5bbc9"/><path d="m130.7 130.125c-6.689 0-12.13-5.441-12.13-12.129 0-6.687 5.441-12.129 12.13-12.129 6.688 0 12.128 5.442 12.128 12.13 0 6.687-5.44 12.128-12.129 12.128" fill="#3a4952"/><path d="m138.785 117.659a7.749 7.749 0 1 0 -15.498 0 7.749 7.749 0 0 0 15.498 0" fill="#f3f7f9"/><path d="m131.036 110.623c-3.875 0-7.028 3.156-7.028 7.036s3.153 7.036 7.028 7.036c3.876 0 7.029-3.156 7.029-7.036s-3.153-7.036-7.029-7.036m0 14.785c-4.273 0-7.749-3.476-7.749-7.749s3.476-7.749 7.75-7.749c4.272 0 7.748 3.476 7.748 7.749s-3.476 7.749-7.749 7.749" fill="#f3f7f9"/><path d="m53.21 130.125c-6.688 0-12.13-5.441-12.13-12.129 0-6.687 5.442-12.129 12.13-12.129s12.129 5.442 12.129 12.13c0 6.687-5.441 12.128-12.13 12.128" fill="#3a4952"/><path d="m61.296 117.659a7.749 7.749 0 1 0 -15.498 0 7.749 7.749 0 0 0 15.498 0" fill="#f3f7f9"/><path d="m53.547 110.623c-3.876 0-7.03 3.156-7.03 7.036s3.154 7.036 7.03 7.036 7.028-3.156 7.028-7.036-3.152-7.036-7.028-7.036m0 14.785c-4.273 0-7.75-3.476-7.75-7.749s3.477-7.749 7.75-7.749 7.749 3.476 7.749 7.749-3.476 7.749-7.75 7.749" fill="#f3f7f9"/><path d="m108.933 97.781a21.571 21.571 0 0 1 4.462 2.216c1.354.882 2.629 1.712 2.466 2.333-.265 1.014-4.193.84-4.697.816a16.14 16.14 0 0 1 -2.7-.35c.155-1.671.312-3.343.469-5.015" fill="#e4ebf0" stroke="#3a4952"/><path d="m149.93 107.599c1.232.314 2.792.845 4.553 1.916 1.046.636 1.48 1.048 1.821 1.557.055.08.981 1.487.57 2.036-.203.27-.685.27-2.846-.36-2.018-.589-3.028-.883-3.528-1.197-1.935-1.217-3.322-3.55-2.869-4.185.213-.298.909-.121 2.3.233" fill="#fff" stroke="#3a4952"/><path d="m149.566 119.913c.338-.865 1.39-3.2 3.949-4.434 1.12-.54 3.57-1.37 4.46-.416.779.837.259 2.937-1.52 4.954z" fill="#a5bbc9"/><path d="m58.592 105.115c-.144.406-2.14-.893-5.683-1.037-3.573-.145-5.64 1.01-5.758.6-.145-.498 2.664-3.028 5.94-2.844 3.15.177 5.672 2.8 5.501 3.28m76.818.016c-.12.326-1.762-.714-4.681-.83-2.942-.115-4.644.808-4.742.481-.119-.398 2.194-2.422 4.893-2.275 2.593.14 4.67 2.24 4.53 2.625" fill="#f9fbfc"/><path d="m26.29 101.15c1.277.207 2.767.485 4.42.865 1.887.434 2.85.658 3.807 1.109.967.454 2.44 1.338 3.869 3.131a666.817 666.817 0 0 0 -12.13.286l.033-5.39" fill="#fff" stroke="#3a4952"/><path d="m24.235 113.329a28.05 28.05 0 0 1 3.5.01c1.943.128 3.311.21 4.773.851.777.341 1.97 1.018 3.182 2.458l-9.988-.283a5.475 5.475 0 0 1 -.961-1.335 4.864 4.864 0 0 1 -.506-1.701" fill="#a5bbc9"/><path d="m76.061 120.143 40.728 1.041c.097-1.633.241-3.302.428-4.962.217-1.917.442-3.379.64-4.669.339-2.21.584-3.808.53-6.062a27.708 27.708 0 0 0 -.646-5.285 96.91 96.91 0 0 0 -12.609-5.895c-4.561-1.745-9.596-3.262-13.468-4.059-12.188-2.508-24.68-.07-33.027 2.423l-1.864 5.717a131.25 131.25 0 0 1 3.643 5.307c3.1 4.764 4.656 7.153 6.153 9.99.337.638.62 1.193.868 1.683.982 1.933 1.43 2.816 2.651 3.624 1.56 1.032 3.569 1.418 5.973 1.147zm40.893 1.222-.084-.003-40.801-1.044c-2.435.276-4.483-.12-6.078-1.176-1.259-.833-1.714-1.729-2.71-3.69-.248-.49-.53-1.044-.867-1.681-1.494-2.829-3.048-5.216-6.143-9.972a132.097 132.097 0 0 0 -3.666-5.34l-.026-.036 1.92-5.89.044-.014c8.367-2.504 20.91-4.96 33.156-2.44 3.881.8 8.926 2.32 13.496 4.067a96.995 96.995 0 0 1 12.665 5.926l.035.02.009.037c.396 1.79.617 3.593.66 5.358.053 2.27-.193 3.873-.534 6.093a109.725 109.725 0 0 0 -.638 4.662 93.744 93.744 0 0 0 -.433 5.038z" fill="#3a4952"/><path d="m87.77 120.691-.142-.028c.665-5.047.635-9.864-.089-14.318-.155-.953-.315-1.733-.501-2.636-.204-.994-.436-2.12-.732-3.81a127.836 127.836 0 0 1 -1.427-10.859l.142-.019c.315 3.594.794 7.242 1.425 10.842.295 1.687.527 2.811.73 3.803.187.906.348 1.687.504 2.645.727 4.474.757 9.312.09 14.38" fill="#3a4952"/><path d="m117.97 99.803-.073-.128 2.623-.546.072.127z" fill="#050706"/><path d="m583.215 115.153c.103.818.738 1.425 1.32 1.834a61.23 61.23 0 0 1 3.857 1.689c1.817.87 3.099 1.596 3.266 1.688 1.825 1.006 7.436 1.966 22.771 2.156a8103.92 8103.92 0 0 0 84.211.311l4.947-1.604c1.037-.65 2.13-1.612 2.418-2.98 1.044-4.953-9.038-12.558-17.918-15.47-12.75-4.18-17.14 3.24-34.957 3.896-19.402.714-20.481-7.854-38.475-5.959-15.554 1.639-32.02 9.86-31.44 14.44" fill="#3a4952"/><path d="m592.16 95.676a93.838 93.838 0 0 1 15.045-5.192 94.046 94.046 0 0 1 6.651-1.417c2.204-.387 7.356-1.211 14.764-1.418 1.72-.048 9.646.095 16.273.617 14.347 1.13 31.335 10.184 30.433 14.743-1.127 5.692-30.504 5.73-53.692 1.354a154.302 154.302 0 0 1 -29.474-8.687" fill="#a5bbc9"/><path d="m671.307 98.864c.216-.002.534-.004.917-.003 7.338.019 12.992 1.093 15.103 1.529 14.502 2.995 18.263 8.215 18.491 8.591.74 1.224.615 2.107.615 2.107-.05.355-.16.483-.123.786.093.78.952 1.015 1.353 1.528.95 1.214-.185 4.594-2.46 6.114-1.056.706-2.039.757-4.264.826-2.738.085-5.582.143-8.528.165l.082-5.535c.019-1.264-.312-2.387-.902-3.718-1.507-3.4-4.504-4.946-5.207-5.288a11.177 11.177 0 0 0 -5.7-1.074c-.399.03-5.59.507-8.446 4.792-1.19 1.787-1.51 3.52-1.804 5.122a18.377 18.377 0 0 0 -.082 6.114l-51.908-.578c.279-1.226.642-3.585-.082-6.362-.326-1.253-1.315-4.824-4.838-7.187-.63-.424-4.025-2.609-8.364-1.736-5.001 1.007-8.231 5.467-9.02 9.584-.417 2.173-.11 4.022.164 5.122a170.585 170.585 0 0 1 -8.61-1.734c-3.914-.895-5.328-1.364-6.315-2.727-.997-1.377-1.18-3.076-1.312-4.379a13.266 13.266 0 0 1 .281-4.344l1.933-1.274.123-5.535c-.551-.8-1.128-1.826-.774-2.31.297-.406 1.106-.24 1.834-.172.772.072 2.195-.237 5.043-.857 3.429-.745 5.435-1.464 6.705-1.376.162.012.901.077 1.911-.006 0 0 .33-.024.657-.071 1.858-.269 3.132-.959 4.018-1.405 1.843-.928 3.845-1.498 5.74-2.313 4.393-1.89 16.788-5.117 31.161-4.048 3.993.297 6.893.832 7.706.986 6.715 1.278 11.7 3.34 14.072 4.407a61.927 61.927 0 0 1 10.83 6.26" fill="#e4ebf0" stroke="#3a4952"/><path d="m606.88 94.267a43.273 43.273 0 0 1 4.3-2.007c2.05-.822 7.794-2.945 19.01-3.253 4.699-.129 9.033-.248 14.466.685 5.158.885 14.141 3.206 24.012 10.273l.292 1.755-57.863-3.467a6.49 6.49 0 0 1 -2.376-1.327 6.758 6.758 0 0 1 -1.841-2.659" fill="#a5bbc9"/><path d="m681.12 127.96c-6.352 0-11.52-5.168-11.52-11.52s5.168-11.52 11.52-11.52 11.52 5.168 11.52 11.52-5.168 11.52-11.52 11.52" fill="#3a4952"/><path d="m688.8 116.12a7.36 7.36 0 1 0 -14.72 0 7.36 7.36 0 0 0 14.72 0" fill="#f3f7f9"/><path d="m681.44 109.437c-3.681 0-6.676 2.998-6.676 6.683s2.995 6.683 6.676 6.683 6.676-2.998 6.676-6.683-2.995-6.683-6.676-6.683m0 14.043c-4.059 0-7.36-3.302-7.36-7.36s3.301-7.36 7.36-7.36c4.058 0 7.36 3.302 7.36 7.36s-3.302 7.36-7.36 7.36" fill="#f3f7f9"/><path d="m607.52 127.96c-6.352 0-11.52-5.168-11.52-11.52s5.168-11.52 11.52-11.52 11.52 5.168 11.52 11.52-5.168 11.52-11.52 11.52" fill="#3a4952"/><path d="m615.2 116.12a7.36 7.36 0 1 0 -14.72 0 7.36 7.36 0 0 0 14.72 0" fill="#f3f7f9"/><path d="m607.84 109.437c-3.681 0-6.676 2.998-6.676 6.683s2.995 6.683 6.676 6.683 6.676-2.998 6.676-6.683-2.995-6.683-6.676-6.683m0 14.043c-4.058 0-7.36-3.302-7.36-7.36s3.302-7.36 7.36-7.36c4.059 0 7.36 3.302 7.36 7.36s-3.301 7.36-7.36 7.36" fill="#f3f7f9"/><path d="m660.446 97.24a20.488 20.488 0 0 1 4.238 2.105c1.287.837 2.497 1.625 2.343 2.215-.252.964-3.983.797-4.462.776a15.33 15.33 0 0 1 -2.565-.332z" fill="#e4ebf0" stroke="#3a4952"/><path d="m699.386 106.565a15.53 15.53 0 0 1 4.324 1.82c.993.604 1.406.995 1.73 1.478.051.078.931 1.413.54 1.934-.192.256-.65.257-2.702-.341-1.918-.56-2.876-.84-3.351-1.138-1.838-1.155-3.155-3.372-2.725-3.974.202-.284.863-.115 2.184.221" fill="#fff" stroke="#3a4952"/><path d="m699.04 118.26c.32-.82 1.32-3.039 3.75-4.21 1.063-.513 3.391-1.303 4.236-.395.74.794.246 2.789-1.444 4.705z" fill="#a5bbc9"/><path d="m612.632 104.206c-.137.385-2.032-.849-5.398-.985-3.393-.138-5.356.958-5.469.57-.137-.473 2.53-2.876 5.643-2.702 2.99.168 5.387 2.659 5.224 3.117m72.962.014c-.113.31-1.674-.678-4.446-.788-2.794-.11-4.41.767-4.504.457-.113-.379 2.084-2.301 4.647-2.162 2.463.134 4.437 2.128 4.303 2.493" fill="#f9fbfc"/><path d="m581.95 100.44a65.23 65.23 0 0 1 4.2.821c1.792.412 2.706.625 3.615 1.053.919.432 2.317 1.272 3.675 2.975a633.345 633.345 0 0 0 -11.52.271z" fill="#fff" stroke="#3a4952"/><path d="m580 112.007c.78-.047 1.933-.081 3.324.01 1.845.121 3.145.199 4.533.808.738.324 1.871.967 3.023 2.335l-9.487-.27a5.2 5.2 0 0 1 -.913-1.267 4.62 4.62 0 0 1 -.48-1.616" fill="#a5bbc9"/><path d="m629.224 118.479 38.684.99c.092-1.552.229-3.138.407-4.714.206-1.82.419-3.209.607-4.434.322-2.1.555-3.618.504-5.758a26.317 26.317 0 0 0 -.614-5.02 92.046 92.046 0 0 0 -11.976-5.6c-4.332-1.656-9.114-3.097-12.792-3.854-11.577-2.382-23.44-.067-31.369 2.301l-1.77 5.43a124.662 124.662 0 0 1 3.46 5.04c2.944 4.526 4.421 6.795 5.844 9.489.32.606.588 1.133.825 1.598.932 1.837 1.358 2.675 2.517 3.443 1.481.98 3.39 1.347 5.673 1.089zm38.84 1.161-.08-.002-38.752-.993c-2.312.263-4.259-.114-5.773-1.116-1.196-.792-1.628-1.642-2.574-3.506-.236-.465-.504-.991-.823-1.596-1.42-2.687-2.895-4.954-5.835-9.471a125.466 125.466 0 0 0 -3.482-5.072l-.025-.035 1.824-5.595.042-.012c7.946-2.378 19.86-4.712 31.492-2.317 3.686.759 8.478 2.203 12.818 3.863a92.127 92.127 0 0 1 12.03 5.627l.032.019.009.036c.376 1.7.586 3.413.626 5.089.051 2.155-.183 3.679-.506 5.787-.188 1.224-.401 2.61-.606 4.428-.181 1.6-.32 3.21-.411 4.785l-.005.081z" fill="#3a4952"/><path d="m640.345 119-.135-.026c.632-4.794.604-9.37-.084-13.6-.147-.905-.3-1.646-.476-2.504-.194-.944-.414-2.013-.695-3.619a121.42 121.42 0 0 1 -1.355-10.313l.135-.018a121.39 121.39 0 0 0 1.353 10.297c.28 1.602.5 2.67.694 3.613.177.86.33 1.602.478 2.512.69 4.25.719 8.844.085 13.658" fill="#3a4952"/><path d="m669.029 99.16-.069-.12 2.491-.52.069.12z" fill="#050706"/><path d="m365 147h351v43h-351z" fill="url(#a)" fill-rule="nonzero" transform="translate(1)"/><path d="m161 202h557v43h-557z" fill="#e4ebf0" fill-rule="nonzero"/><path d="m507.599 167.904c.57.159 1.01.448 1.323.868s.469.933.469 1.54c0 .84-.301 1.498-.903 1.974s-1.43.714-2.485.714h-4.48v-9.87h4.34c1.027 0 1.832.226 2.415.679s.875 1.085.875 1.897c0 .523-.138.975-.413 1.358a2.362 2.362 0 0 1 -1.141.84zm-4.312-.616h2.282c1.241 0 1.862-.462 1.862-1.386 0-.467-.154-.812-.462-1.036s-.775-.336-1.4-.336h-2.282zm2.52 4.312c.653 0 1.13-.117 1.428-.35.299-.233.448-.597.448-1.092s-.152-.863-.455-1.106-.777-.364-1.421-.364h-2.52v2.912zm13.552 1.4h-1.96l-1.694-3.15c-.159-.299-.355-.509-.588-.63s-.527-.182-.882-.182h-1.372v3.962h-1.778v-9.87h4.368c1.12 0 1.972.25 2.555.749.583.5.875 1.22.875 2.163 0 .756-.212 1.379-.637 1.869s-1.024.81-1.799.959c.523.14.943.509 1.26 1.106zm-4.158-5.348c.681 0 1.18-.128 1.498-.385.317-.257.476-.651.476-1.183 0-.541-.159-.936-.476-1.183s-.817-.371-1.498-.371h-2.352v3.122zm5.614 5.348v-9.87h6.608v1.428h-4.844v2.716h4.564v1.414h-4.564v2.884h4.844v1.428zm16.464-9.87h1.414v9.87h-1.596v-6.524l-2.604 4.928h-1.204l-2.618-4.858.014 6.454h-1.596v-9.87h1.428l3.388 6.454zm6.902 9.996a7.153 7.153 0 0 1 -2.128-.308c-.663-.205-1.223-.495-1.68-.868l.602-1.316c.476.364.978.63 1.505.798a5.622 5.622 0 0 0 1.715.252c.681 0 1.206-.119 1.575-.357s.553-.572.553-1.001c0-.373-.17-.658-.511-.854-.34-.196-.908-.383-1.701-.56-.821-.177-1.489-.383-2.002-.616s-.9-.532-1.162-.896c-.261-.364-.392-.826-.392-1.386 0-.579.159-1.097.476-1.554s.765-.814 1.344-1.071 1.246-.385 2.002-.385c.69 0 1.349.105 1.974.315s1.139.497 1.54.861l-.602 1.316c-.877-.7-1.848-1.05-2.912-1.05-.635 0-1.136.128-1.505.385s-.553.614-.553 1.071c0 .383.163.677.49.882s.882.397 1.666.574c.83.187 1.505.394 2.023.623s.915.52 1.19.875.413.803.413 1.344c0 .588-.156 1.104-.469 1.547s-.765.784-1.358 1.022-1.29.357-2.093.357zm17.822-9.996h1.722l-3.486 9.87h-1.47l-2.478-7.098-2.492 7.098h-1.47l-3.472-9.87h1.82l2.45 7.35 2.576-7.35h1.274l2.506 7.392zm3.122 9.87v-9.87h6.608v1.428h-4.844v2.716h4.564v1.414h-4.564v2.884h4.844v1.428zm16.45-5.334v4.732c-.448.224-.992.401-1.631.532-.64.13-1.29.196-1.953.196-1.017 0-1.9-.203-2.646-.609a4.11 4.11 0 0 1 -1.715-1.75c-.397-.76-.595-1.664-.595-2.709 0-1.036.198-1.934.595-2.695a4.143 4.143 0 0 1 1.694-1.75c.733-.406 1.594-.609 2.583-.609.69 0 1.34.1 1.946.301.607.2 1.11.488 1.512.861l-.602 1.302c-.457-.355-.908-.609-1.351-.763a4.433 4.433 0 0 0 -1.463-.231c-1.017 0-1.785.301-2.303.903s-.777 1.496-.777 2.681c0 2.427 1.064 3.64 3.192 3.64.635 0 1.27-.089 1.904-.266v-2.478h-2.128v-1.288z" fill="#9b242e"/><path d="m161 147h205v43h-205z" fill="#135d92" fill-rule="nonzero"/><path d="m756.5 146.5h-749" stroke="#4c5c66" stroke-linecap="square" stroke-width="2"/><path d="m347.652 96.203c-.795.059-1.65.42-2.46 1.048 0 .013-.03-.013-.04 0-4.942 3.722-10.212 7.53-17.37 9.35l-2.214-1.814a.964.964 0 0 0 -1.331.08l-5.963 6.126a.964.964 0 0 0 0 1.33l2.135 2.257c.112.112.25.195.403.241.984.355 1.35.689 1.572.968.22.279.344.601.563 1.168.222.567.555 1.319 1.29 2.015.739.697 1.822 1.365 3.506 2.056.358.15.772.07 1.049-.202l20.915-20.15c.01-.013.03-.027.04-.04.623-.54.977-1.25.967-1.975a2.35 2.35 0 0 0 -.927-1.854c-.565-.437-1.33-.665-2.136-.604zm4.554 4.997c-.378.053-.73.222-1.007.484l-4.434 4.473c-.04.039-.08.08-.116.121l-9.632 9.632a1.832 1.832 0 1 0 2.579 2.58l8.463-8.464 7.819 7.819a1.838 1.838 0 0 0 2.579-2.62l-7.82-7.778 3.145-3.143a1.832 1.832 0 0 0 -1.572-3.104z" fill="#3a4952" fill-rule="nonzero"/><path d="m168.378 131.26-6.75 12h1.744l-6.75-12-.49-.872-1.744.98.49.872 6.75 12 .872 1.55.872-1.55 6.75-12 .49-.871-1.743-.98-.49.87zm-5.878-88.76a7 7 0 1 0 0 14 7 7 0 0 0 0-14zm0 2a5 5 0 1 1 0 10 5 5 0 0 1 0-10zm1 97.5v-87.5h-2v88.5h2zm208.628-10.74-6.75 12h1.744l-6.75-12-.49-.872-1.744.98.49.872 6.75 12 .872 1.55.872-1.55 6.75-12 .49-.871-1.743-.98-.49.87zm-5.878-88.76a7 7 0 1 0 0 14 7 7 0 0 0 0-14zm0 2a5 5 0 1 1 0 10 5 5 0 0 1 0-10zm1 97.5v-87.5h-2v88.5h2zm349.878-10.74-6.75 12h1.744l-6.75-12-.49-.872-1.744.98.49.872 6.75 12 .872 1.55.872-1.55 6.75-12 .49-.871-1.743-.98-.49.87zm-5.878-88.76a7 7 0 1 0 0 14 7 7 0 0 0 0-14zm0 2a5 5 0 1 1 0 10 5 5 0 0 1 0-10zm1 97.5v-87.5h-2v88.5h2z" fill="#ff9400" fill-rule="nonzero"/><path d="m748.216 116.893c-.115.6-.401 1.015-.847 1.112-.636.138-1.48 1.187-1.826 1.717-.347.53-1.988 2.592-2.243 2.88-.112.128-.209.235-.306.3-.009.113-.029.254-.056.43-.092.615.328.93.605 1.091.278.161.335.841 0 .91-.335.07-.948-.08-1.144-.334-.197-.253-.717-.668-.913-.783-1.387-.853-1.295-1.325-1.468-1.556-.173-.23.96-.956 1.19-1.221a.558.558 0 0 1 .305-.19c.331-.416.977-1.002 1.17-1.359.883-1.803 2.629-3.256 3.345-3.775a1.87 1.87 0 0 1 .139-.91c-.116-.184-.243-.599-.474-1.325a2.668 2.668 0 0 1 -.087-1.277 2.978 2.978 0 0 1 -1.042-1.216 3.29 3.29 0 0 1 -.221-.773c-.73-.207-.997-.671-1.35-.732-.448-.077-1.341-.523-1.758-1.076-.416-.553-1.494-4.731 0-5.361.031-.876.155-1.414.74-1.521.463-.676 1.372-2.397 2.034-2.443.663-.046.632-.092.632-.092s.048-.088.132-.224c-.182.155-.43.263-.764.316-.77.123-.308-.353.155-.753.609-.46.55-1.502.382-2.323-.194-.017-.355-.134-.4-.312-.047-.192-.283-.315-.7-.591-.415-.277-.423-.638-.53-1.099-.109-.46-.047-1.267.261-2.058s1.248-1.72 1.703-2.036c.455-.315 2.088-.315 2.558-.307s1.064.307 1.195.4c.13.092.5.168.816.268s.332.215.278.315c0 0 .054.284-.062.323-.115.038-.061.054-.13.192a.32.32 0 0 1 -.188.166c.047.344.103.828.064.925-.062.153-.216.23-.116.384.1.153.355.522.64.66.285.139.023.415-.046.423-.07.007-.227.092-.171.169.055.077.34.322.101.468.193.046.136.277-.04.384-.175.108.179.308.102.492s-.07.33-.555.492c-.485.161-1.048.092-1.14.89-.054.462-.1.932-.128 1.246l.032.023.029.02a7.757 7.757 0 0 1 .212.16l.005.004.108.085.004.003c.352.284.657.58.816.818.432.645 1.434 1.506 1.434 1.506.015.079.364.446.733.832.359.195.683.37.836.448.381.209 1.407.503 2.463 1.155 1.05.659 2.32 1.499 2.57 1.718.053.048.111.09.17.128.14-.074.286-.155.376-.174.184-.037.624.133 1.096.254.472.12.544.226.328.295-.098.031-.235.039-.37.037.123.06.238.131.33.208l.173.15c.228.014.426.016.48.009.127-.017.138.163.093.282-.016.044-.089.103-.18.161a.56.56 0 0 1 .056.168c.042.27-.166.243-.096.403.07.159.197.62.123.733-.074.111-.246.223-.325.116a6.32 6.32 0 0 0 -.86-.772 3.116 3.116 0 0 1 -.487-.021c.124.113.44.388.533.593.093.209-.058.224-.506-.063-.447-.287-.907-.526-.999-.693-.04-.072-.064-.208-.089-.345-.118-.17-.4-.333-.713-.372-.314-.04-1.699-.451-2.81-.896-1.11-.444-1.891-1.127-2.261-1.33-.169-.092-.56-.318-.969-.558l-.336-.082c.075 1.064.186 3.177.086 3.788.104-.127.22.31.139.484-.081.173-.077.357-.056.668.02.311.11.818.083 1.037s-.192.392-.08 1.048c.11.657.434 3.296.584 4.08.15.783.231 3.813.382 4.355.15.541.069 1.152 0 1.59-.052.325.379 1.535.594 2.316l.007-.012c.162-.288.762.6 1.167.818.405.22 1.063.323 1.815.392.75.07.29.875 0 1.152-.856.819-1.873.76-2.445.703s-1.15.093-2.144 0c-.994-.092-.624-1.025-.659-1.51a.24.24 0 0 1 .03-.148c-.636-.664-.859-3.121-.873-3.15-.013-.025-.091-2.085-.47-3.92" fill="#ea424c"/><path d="m215.795 173h-1.96l-1.694-3.15c-.159-.299-.355-.509-.588-.63s-.527-.182-.882-.182h-1.372v3.962h-1.778v-9.87h4.368c1.12 0 1.972.25 2.555.749.583.5.875 1.22.875 2.163 0 .756-.212 1.379-.637 1.869s-1.024.81-1.799.959c.523.14.943.509 1.26 1.106zm-4.158-5.348c.681 0 1.18-.128 1.498-.385.317-.257.476-.651.476-1.183 0-.541-.159-.936-.476-1.183s-.817-.371-1.498-.371h-2.352v3.122zm5.614 5.348v-9.87h6.608v1.428h-4.844v2.716h4.564v1.414h-4.564v2.884h4.844v1.428zm15.624 0-.994-2.31h-4.802l-.994 2.31h-1.82l4.466-9.87h1.47l4.466 9.87zm-5.208-3.71h3.612l-1.806-4.2zm16.632 3.71h-2.198l-4.578-4.592v4.592h-1.806v-9.87h1.806v4.41l4.396-4.41h2.156l-4.774 4.746zm2.982 0v-8.386h-3.22v-1.484h8.246v1.484h-3.22v8.386zm6.258 0v-9.87h1.806v9.87zm8.33.126c-.961 0-1.794-.205-2.499-.616a4.12 4.12 0 0 1 -1.631-1.764c-.383-.765-.574-1.661-.574-2.688s.189-1.92.567-2.681a4.073 4.073 0 0 1 1.631-1.757c.71-.41 1.545-.616 2.506-.616s1.794.205 2.499.616c.705.41 1.246.996 1.624 1.757.378.76.567 1.654.567 2.681s-.191 1.923-.574 2.688a4.12 4.12 0 0 1 -1.631 1.764c-.705.41-1.533.616-2.485.616zm0-1.442c.905 0 1.612-.313 2.121-.938s.763-1.521.763-2.688-.254-2.06-.763-2.681c-.509-.62-1.216-.931-2.121-.931-.915 0-1.626.31-2.135.931-.509.62-.763 1.514-.763 2.681s.254 2.063.763 2.688 1.22.938 2.135.938zm13.146-8.554h1.694v9.87h-1.358l-5.292-6.888v6.888h-1.68v-9.87h1.344l5.292 6.874zm7.168 9.996a7.153 7.153 0 0 1 -2.128-.308c-.663-.205-1.223-.495-1.68-.868l.602-1.316c.476.364.978.63 1.505.798a5.622 5.622 0 0 0 1.715.252c.681 0 1.206-.119 1.575-.357s.553-.572.553-1.001c0-.373-.17-.658-.511-.854-.34-.196-.908-.383-1.701-.56-.821-.177-1.489-.383-2.002-.616s-.9-.532-1.162-.896c-.261-.364-.392-.826-.392-1.386 0-.579.159-1.097.476-1.554s.765-.814 1.344-1.071 1.246-.385 2.002-.385c.69 0 1.349.105 1.974.315s1.139.497 1.54.861l-.602 1.316c-.877-.7-1.848-1.05-2.912-1.05-.635 0-1.136.128-1.505.385s-.553.614-.553 1.071c0 .383.163.677.49.882s.882.397 1.666.574c.83.187 1.505.394 2.023.623s.915.52 1.19.875.413.803.413 1.344c0 .588-.156 1.104-.469 1.547s-.765.784-1.358 1.022-1.29.357-2.093.357zm17.822-9.996h1.722l-3.486 9.87h-1.47l-2.478-7.098-2.492 7.098h-1.47l-3.472-9.87h1.82l2.45 7.35 2.576-7.35h1.274l2.506 7.392zm3.122 9.87v-9.87h6.608v1.428h-4.844v2.716h4.564v1.414h-4.564v2.884h4.844v1.428zm16.45-5.334v4.732c-.448.224-.992.401-1.631.532-.64.13-1.29.196-1.953.196-1.017 0-1.9-.203-2.646-.609a4.11 4.11 0 0 1 -1.715-1.75c-.397-.76-.595-1.664-.595-2.709 0-1.036.198-1.934.595-2.695a4.143 4.143 0 0 1 1.694-1.75c.733-.406 1.594-.609 2.583-.609.69 0 1.34.1 1.946.301.607.2 1.11.488 1.512.861l-.602 1.302c-.457-.355-.908-.609-1.351-.763a4.433 4.433 0 0 0 -1.463-.231c-1.017 0-1.785.301-2.303.903s-.777 1.496-.777 2.681c0 2.427 1.064 3.64 3.192 3.64.635 0 1.27-.089 1.904-.266v-2.478h-2.128v-1.288z" fill="#fff"/><path d="m398.697 228-.994-2.31h-4.802l-.994 2.31h-1.82l4.466-9.87h1.47l4.466 9.87zm-5.208-3.71h3.612l-1.806-4.2zm14.686-6.16h1.694v9.87h-1.358l-5.292-6.888v6.888h-1.68v-9.87h1.344l5.292 6.874zm10.654 0h1.764v9.87h-1.764v-4.284h-5.054v4.284h-1.778v-9.87h1.778v4.13h5.054zm11.438 9.87-.994-2.31h-4.802l-.994 2.31h-1.82l4.466-9.87h1.47l4.466 9.87zm-5.208-3.71h3.612l-1.806-4.2zm8.05 3.71v-9.87h1.806v8.386h4.606v1.484zm8.344 0v-8.386h-3.22v-1.484h8.246v1.484h-3.22v8.386zm6.258 0v-9.87h6.608v1.428h-4.844v2.716h4.564v1.414h-4.564v2.884h4.844v1.428zm20.664-9.87h1.722l-3.486 9.87h-1.47l-2.478-7.098-2.492 7.098h-1.47l-3.472-9.87h1.82l2.45 7.35 2.576-7.35h1.274l2.506 7.392zm3.122 9.87v-9.87h6.608v1.428h-4.844v2.716h4.564v1.414h-4.564v2.884h4.844v1.428zm16.45-5.334v4.732c-.448.224-.992.401-1.631.532-.64.13-1.29.196-1.953.196-1.017 0-1.9-.203-2.646-.609a4.11 4.11 0 0 1 -1.715-1.75c-.397-.76-.595-1.664-.595-2.709 0-1.036.198-1.934.595-2.695a4.143 4.143 0 0 1 1.694-1.75c.733-.406 1.594-.609 2.583-.609.69 0 1.34.1 1.946.301.607.2 1.11.488 1.512.861l-.602 1.302c-.457-.355-.908-.609-1.351-.763a4.433 4.433 0 0 0 -1.463-.231c-1.017 0-1.785.301-2.303.903s-.777 1.496-.777 2.681c0 2.427 1.064 3.64 3.192 3.64.635 0 1.27-.089 1.904-.266v-2.478h-2.128v-1.288zm-360.286-221.536h1.722l-3.486 9.87h-1.47l-2.478-7.098-2.492 7.098h-1.47l-3.472-9.87h1.82l2.45 7.35 2.576-7.35h1.274l2.506 7.392 2.52-7.392zm5.096 2.856c.961 0 1.675.233 2.142.7s.7 1.185.7 2.156v4.158h-1.666v-1.05a1.827 1.827 0 0 1 -.749.854c-.34.205-.735.308-1.183.308-.457 0-.873-.093-1.246-.28a2.217 2.217 0 0 1 -.882-.77 1.946 1.946 0 0 1 -.322-1.092c0-.504.128-.9.385-1.19s.674-.5 1.253-.63 1.377-.196 2.394-.196h.35v-.322c0-.467-.1-.803-.301-1.008-.2-.205-.534-.308-1.001-.308-.364 0-.744.063-1.141.189a5.77 5.77 0 0 0 -1.169.525l-.49-1.204a5.436 5.436 0 0 1 1.386-.602 5.48 5.48 0 0 1 1.54-.238zm-.406 5.866c.467 0 .847-.156 1.141-.469s.441-.716.441-1.211v-.294h-.252c-.625 0-1.11.028-1.456.084-.345.056-.593.154-.742.294-.15.14-.224.331-.224.574a.96.96 0 0 0 .308.735c.205.191.467.287.784.287zm9.002-5.866c.821 0 1.433.233 1.834.7s.602 1.171.602 2.114v4.2h-1.75v-4.102c0-.532-.1-.92-.301-1.162-.2-.243-.516-.364-.945-.364-.504 0-.908.159-1.211.476s-.455.742-.455 1.274v3.878h-1.75v-9.87h1.75v3.976c.233-.364.544-.642.931-.833a2.884 2.884 0 0 1 1.295-.287zm8.722 1.456-1.022.098c-1.157.121-1.736.71-1.736 1.764v3.696h-1.75v-6.846h1.666v1.204c.355-.821 1.087-1.27 2.198-1.344l.532-.042zm4.83-1.456c.821 0 1.433.233 1.834.7s.602 1.171.602 2.114v4.2h-1.75v-4.102c0-.532-.1-.92-.301-1.162-.2-.243-.516-.364-.945-.364-.504 0-.908.159-1.211.476s-.455.742-.455 1.274v3.878h-1.75v-6.846h1.708v1.022c.233-.383.546-.677.938-.882a2.823 2.823 0 0 1 1.33-.308zm10.22 3.906h-4.662c.056.635.247 1.106.574 1.414s.793.462 1.4.462c.756 0 1.447-.243 2.072-.728l.504 1.204c-.317.261-.716.471-1.197.63-.48.159-.964.238-1.449.238-1.12 0-2.004-.317-2.653-.952s-.973-1.503-.973-2.604c0-.7.14-1.32.42-1.862.28-.541.674-.961 1.183-1.26s1.085-.448 1.729-.448c.943 0 1.687.303 2.233.91s.819 1.442.819 2.506zm-3.01-2.674c-.467 0-.842.15-1.127.448-.285.299-.46.728-.525 1.288h3.164c-.019-.57-.159-1.001-.42-1.295s-.625-.441-1.092-.441zm8.414-1.232c.821 0 1.433.233 1.834.7s.602 1.171.602 2.114v4.2h-1.75v-4.102c0-.532-.1-.92-.301-1.162-.2-.243-.516-.364-.945-.364-.504 0-.908.159-1.211.476s-.455.742-.455 1.274v3.878h-1.75v-9.87h1.75v3.976c.233-.364.544-.642.931-.833a2.884 2.884 0 0 1 1.295-.287zm12.348 0c.775 0 1.353.231 1.736.693s.574 1.169.574 2.121v4.2h-1.75v-4.13c0-.523-.089-.903-.266-1.141s-.462-.357-.854-.357c-.467 0-.83.159-1.092.476-.261.317-.392.76-.392 1.33v3.822h-1.75v-4.13c0-.523-.086-.903-.259-1.141s-.46-.357-.861-.357c-.457 0-.817.159-1.078.476s-.392.76-.392 1.33v3.822h-1.75v-6.846h1.708v.966c.205-.373.49-.656.854-.847s.78-.287 1.246-.287c1.036 0 1.722.43 2.058 1.288.215-.401.523-.716.924-.945s.85-.343 1.344-.343zm10.374.168v6.846h-1.708v-1.05a2.23 2.23 0 0 1 -.868.861c-.364.2-.775.301-1.232.301-1.68 0-2.52-.943-2.52-2.828v-4.13h1.75v4.144c0 .485.098.845.294 1.078s.504.35.924.35c.485 0 .875-.161 1.169-.483s.441-.749.441-1.281v-3.808zm5.796-.168c.821 0 1.433.233 1.834.7s.602 1.171.602 2.114v4.2h-1.75v-4.102c0-.532-.1-.92-.301-1.162-.2-.243-.516-.364-.945-.364-.504 0-.908.159-1.211.476s-.455.742-.455 1.274v3.878h-1.75v-6.846h1.708v1.022c.233-.383.546-.677.938-.882a2.823 2.823 0 0 1 1.33-.308zm10.878.168v6.216c0 1.073-.296 1.885-.889 2.436-.593.55-1.468.826-2.625.826a6.364 6.364 0 0 1 -1.722-.231 4.865 4.865 0 0 1 -1.442-.651l.49-1.232c.85.513 1.727.77 2.632.77 1.213 0 1.82-.597 1.82-1.792v-.896a2.138 2.138 0 0 1 -.896.889c-.392.21-.84.315-1.344.315-.597 0-1.127-.142-1.589-.427a2.934 2.934 0 0 1 -1.085-1.197c-.261-.513-.392-1.106-.392-1.778s.128-1.267.385-1.785.618-.92 1.085-1.204a3.003 3.003 0 0 1 1.596-.427c.504 0 .952.105 1.344.315s.69.506.896.889v-1.036zm-3.514 5.292c.56 0 .996-.182 1.309-.546s.469-.863.469-1.498c0-.644-.156-1.148-.469-1.512s-.749-.546-1.309-.546c-.55 0-.985.182-1.302.546s-.476.868-.476 1.512c0 .625.159 1.122.476 1.491s.751.553 1.302.553zm-70.749 10.684v9.87h-1.736v-1.106a2.192 2.192 0 0 1 -.889.896 2.683 2.683 0 0 1 -1.323.322c-.588 0-1.113-.15-1.575-.448-.462-.299-.821-.721-1.078-1.267s-.385-1.174-.385-1.883c0-.71.128-1.33.385-1.862a2.916 2.916 0 0 1 1.071-1.232c.457-.29.985-.434 1.582-.434.495 0 .933.103 1.316.308s.677.495.882.868v-4.032zm-3.486 8.624c.56 0 .992-.191 1.295-.574s.455-.929.455-1.638c0-.71-.152-1.253-.455-1.631s-.73-.567-1.281-.567c-.56 0-.994.187-1.302.56s-.462.91-.462 1.61c0 .71.154 1.26.462 1.652s.737.588 1.288.588zm11.298-1.862h-4.662c.056.635.247 1.106.574 1.414s.793.462 1.4.462c.756 0 1.447-.243 2.072-.728l.504 1.204c-.317.261-.716.471-1.197.63-.48.159-.964.238-1.449.238-1.12 0-2.004-.317-2.653-.952s-.973-1.503-.973-2.604c0-.7.14-1.32.42-1.862.28-.541.674-.961 1.183-1.26s1.085-.448 1.729-.448c.943 0 1.687.303 2.233.91s.819 1.442.819 2.506zm-3.01-2.674c-.467 0-.842.15-1.127.448-.285.299-.46.728-.525 1.288h3.164c-.019-.57-.159-1.001-.42-1.295s-.625-.441-1.092-.441zm8.946.224-1.022.098c-1.157.121-1.736.71-1.736 1.764v3.696h-1.75v-6.846h1.666v1.204c.355-.821 1.087-1.27 2.198-1.344l.532-.042zm13.034.224v4.732c-.448.224-.992.401-1.631.532-.64.13-1.29.196-1.953.196-1.017 0-1.9-.203-2.646-.609a4.11 4.11 0 0 1 -1.715-1.75c-.397-.76-.595-1.664-.595-2.709 0-1.036.198-1.934.595-2.695a4.143 4.143 0 0 1 1.694-1.75c.733-.406 1.594-.609 2.583-.609.69 0 1.34.1 1.946.301.607.2 1.11.488 1.512.861l-.602 1.302c-.457-.355-.908-.609-1.351-.763a4.433 4.433 0 0 0 -1.463-.231c-1.017 0-1.785.301-2.303.903s-.777 1.496-.777 2.681c0 2.427 1.064 3.64 3.192 3.64.635 0 1.27-.089 1.904-.266v-2.478h-2.128v-1.288zm7.882 2.226h-4.662c.056.635.247 1.106.574 1.414s.793.462 1.4.462c.756 0 1.447-.243 2.072-.728l.504 1.204c-.317.261-.716.471-1.197.63-.48.159-.964.238-1.449.238-1.12 0-2.004-.317-2.653-.952s-.973-1.503-.973-2.604c0-.7.14-1.32.42-1.862.28-.541.674-.961 1.183-1.26s1.085-.448 1.729-.448c.943 0 1.687.303 2.233.91s.819 1.442.819 2.506zm-3.01-2.674c-.467 0-.842.15-1.127.448-.285.299-.46.728-.525 1.288h3.164c-.019-.57-.159-1.001-.42-1.295s-.625-.441-1.092-.441zm6.622-1.064h1.806v1.316h-1.806v5.53h-1.75v-5.53h-1.316v-1.316h1.316c0-.98.254-1.717.763-2.212s1.3-.77 2.373-.826l.686-.042.112 1.302-.658.028c-.55.028-.943.152-1.176.371-.233.22-.35.572-.35 1.057zm5.656-.168c.961 0 1.675.233 2.142.7s.7 1.185.7 2.156v4.158h-1.666v-1.05a1.827 1.827 0 0 1 -.749.854c-.34.205-.735.308-1.183.308-.457 0-.873-.093-1.246-.28a2.217 2.217 0 0 1 -.882-.77 1.946 1.946 0 0 1 -.322-1.092c0-.504.128-.9.385-1.19s.674-.5 1.253-.63 1.377-.196 2.394-.196h.35v-.322c0-.467-.1-.803-.301-1.008-.2-.205-.534-.308-1.001-.308-.364 0-.744.063-1.141.189a5.77 5.77 0 0 0 -1.169.525l-.49-1.204a5.436 5.436 0 0 1 1.386-.602 5.48 5.48 0 0 1 1.54-.238zm-.406 5.866c.467 0 .847-.156 1.141-.469s.441-.716.441-1.211v-.294h-.252c-.625 0-1.11.028-1.456.084-.345.056-.593.154-.742.294-.15.14-.224.331-.224.574a.96.96 0 0 0 .308.735c.205.191.467.287.784.287zm9.002-5.866c.821 0 1.433.233 1.834.7s.602 1.171.602 2.114v4.2h-1.75v-4.102c0-.532-.1-.92-.301-1.162-.2-.243-.516-.364-.945-.364-.504 0-.908.159-1.211.476s-.455.742-.455 1.274v3.878h-1.75v-9.87h1.75v3.976c.233-.364.544-.642.931-.833a2.884 2.884 0 0 1 1.295-.287zm8.722 1.456-1.022.098c-1.157.121-1.736.71-1.736 1.764v3.696h-1.75v-6.846h1.666v1.204c.355-.821 1.087-1.27 2.198-1.344l.532-.042zm146.008-18.538c.57.159 1.01.448 1.323.868s.469.933.469 1.54c0 .84-.301 1.498-.903 1.974s-1.43.714-2.485.714h-4.48v-9.87h4.34c1.027 0 1.832.226 2.415.679s.875 1.085.875 1.897c0 .523-.138.975-.413 1.358a2.362 2.362 0 0 1 -1.141.84zm-4.312-.616h2.282c1.241 0 1.862-.462 1.862-1.386 0-.467-.154-.812-.462-1.036s-.775-.336-1.4-.336h-2.282zm2.52 4.312c.653 0 1.13-.117 1.428-.35.299-.233.448-.597.448-1.092s-.152-.863-.455-1.106-.777-.364-1.421-.364h-2.52v2.912zm11.13-1.708h-4.662c.056.635.247 1.106.574 1.414s.793.462 1.4.462c.756 0 1.447-.243 2.072-.728l.504 1.204c-.317.261-.716.471-1.197.63-.48.159-.964.238-1.449.238-1.12 0-2.004-.317-2.653-.952s-.973-1.503-.973-2.604c0-.7.14-1.32.42-1.862.28-.541.674-.961 1.183-1.26s1.085-.448 1.729-.448c.943 0 1.687.303 2.233.91s.819 1.442.819 2.506zm-3.01-2.674c-.467 0-.842.15-1.127.448-.285.299-.46.728-.525 1.288h3.164c-.019-.57-.159-1.001-.42-1.295s-.625-.441-1.092-.441zm7.84 4.578c.205 0 .42-.014.644-.042l-.084 1.302c-.28.028-.537.042-.77.042-.961 0-1.67-.222-2.128-.665-.457-.443-.686-1.104-.686-1.981v-2.982h-1.316v-1.316h1.316v-2.044h1.75v2.044h1.806v1.316h-1.806v2.954c0 .915.425 1.372 1.274 1.372zm4.606-5.81c.961 0 1.675.233 2.142.7s.7 1.185.7 2.156v4.158h-1.666v-1.05a1.827 1.827 0 0 1 -.749.854c-.34.205-.735.308-1.183.308-.457 0-.873-.093-1.246-.28a2.217 2.217 0 0 1 -.882-.77 1.946 1.946 0 0 1 -.322-1.092c0-.504.128-.9.385-1.19s.674-.5 1.253-.63 1.377-.196 2.394-.196h.35v-.322c0-.467-.1-.803-.301-1.008-.2-.205-.534-.308-1.001-.308-.364 0-.744.063-1.141.189a5.77 5.77 0 0 0 -1.169.525l-.49-1.204a5.436 5.436 0 0 1 1.386-.602 5.48 5.48 0 0 1 1.54-.238zm-.406 5.866c.467 0 .847-.156 1.141-.469s.441-.716.441-1.211v-.294h-.252c-.625 0-1.11.028-1.456.084-.345.056-.593.154-.742.294-.15.14-.224.331-.224.574a.96.96 0 0 0 .308.735c.205.191.467.287.784.287zm-1.694-8.82h1.68v1.596h-1.68v-1.596zm2.576 0h1.68v1.596h-1.68v-1.596zm7.644 8.764c.205 0 .42-.014.644-.042l-.084 1.302c-.28.028-.537.042-.77.042-.961 0-1.67-.222-2.128-.665-.457-.443-.686-1.104-.686-1.981v-2.982h-1.316v-1.316h1.316v-2.044h1.75v2.044h1.806v1.316h-1.806v2.954c0 .915.425 1.372 1.274 1.372zm1.666 1.204v-6.846h1.75v6.846zm-.098-10.024h1.932v1.722h-1.932zm10.318 3.178v6.216c0 1.073-.296 1.885-.889 2.436-.593.55-1.468.826-2.625.826a6.364 6.364 0 0 1 -1.722-.231 4.865 4.865 0 0 1 -1.442-.651l.49-1.232c.85.513 1.727.77 2.632.77 1.213 0 1.82-.597 1.82-1.792v-.896a2.138 2.138 0 0 1 -.896.889c-.392.21-.84.315-1.344.315-.597 0-1.127-.142-1.589-.427a2.934 2.934 0 0 1 -1.085-1.197c-.261-.513-.392-1.106-.392-1.778s.128-1.267.385-1.785.618-.92 1.085-1.204a3.003 3.003 0 0 1 1.596-.427c.504 0 .952.105 1.344.315s.69.506.896.889v-1.036zm-3.514 5.292c.56 0 .996-.182 1.309-.546s.469-.863.469-1.498c0-.644-.156-1.148-.469-1.512s-.749-.546-1.309-.546c-.55 0-.985.182-1.302.546s-.476.868-.476 1.512c0 .625.159 1.122.476 1.491s.751.553 1.302.553zm11.326-1.554h-4.662c.056.635.247 1.106.574 1.414s.793.462 1.4.462c.756 0 1.447-.243 2.072-.728l.504 1.204c-.317.261-.716.471-1.197.63-.48.159-.964.238-1.449.238-1.12 0-2.004-.317-2.653-.952s-.973-1.503-.973-2.604c0-.7.14-1.32.42-1.862.28-.541.674-.961 1.183-1.26s1.085-.448 1.729-.448c.943 0 1.687.303 2.233.91s.819 1.442.819 2.506zm-3.01-2.674c-.467 0-.842.15-1.127.448-.285.299-.46.728-.525 1.288h3.164c-.019-.57-.159-1.001-.42-1.295s-.625-.441-1.092-.441zm8.414-1.232c.821 0 1.433.233 1.834.7s.602 1.171.602 2.114v4.2h-1.75v-4.102c0-.532-.1-.92-.301-1.162-.2-.243-.516-.364-.945-.364-.504 0-.908.159-1.211.476s-.455.742-.455 1.274v3.878h-1.75v-6.846h1.708v1.022c.233-.383.546-.677.938-.882a2.823 2.823 0 0 1 1.33-.308zm-57.232 16.144v9.87h-1.736v-1.106a2.192 2.192 0 0 1 -.889.896 2.683 2.683 0 0 1 -1.323.322c-.588 0-1.113-.15-1.575-.448-.462-.299-.821-.721-1.078-1.267s-.385-1.174-.385-1.883c0-.71.128-1.33.385-1.862a2.916 2.916 0 0 1 1.071-1.232c.457-.29.985-.434 1.582-.434.495 0 .933.103 1.316.308s.677.495.882.868v-4.032zm-3.486 8.624c.56 0 .992-.191 1.295-.574s.455-.929.455-1.638c0-.71-.152-1.253-.455-1.631s-.73-.567-1.281-.567c-.56 0-.994.187-1.302.56s-.462.91-.462 1.61c0 .71.154 1.26.462 1.652s.737.588 1.288.588zm11.298-1.862h-4.662c.056.635.247 1.106.574 1.414s.793.462 1.4.462c.756 0 1.447-.243 2.072-.728l.504 1.204c-.317.261-.716.471-1.197.63-.48.159-.964.238-1.449.238-1.12 0-2.004-.317-2.653-.952s-.973-1.503-.973-2.604c0-.7.14-1.32.42-1.862.28-.541.674-.961 1.183-1.26s1.085-.448 1.729-.448c.943 0 1.687.303 2.233.91s.819 1.442.819 2.506zm-3.01-2.674c-.467 0-.842.15-1.127.448-.285.299-.46.728-.525 1.288h3.164c-.019-.57-.159-1.001-.42-1.295s-.625-.441-1.092-.441zm8.946.224-1.022.098c-1.157.121-1.736.71-1.736 1.764v3.696h-1.75v-6.846h1.666v1.204c.355-.821 1.087-1.27 2.198-1.344l.532-.042zm10.878.462c.57.159 1.01.448 1.323.868s.469.933.469 1.54c0 .84-.301 1.498-.903 1.974s-1.43.714-2.485.714h-4.48v-9.87h4.34c1.027 0 1.832.226 2.415.679s.875 1.085.875 1.897c0 .523-.138.975-.413 1.358a2.362 2.362 0 0 1 -1.141.84zm-4.312-.616h2.282c1.241 0 1.862-.462 1.862-1.386 0-.467-.154-.812-.462-1.036s-.775-.336-1.4-.336h-2.282zm2.52 4.312c.653 0 1.13-.117 1.428-.35.299-.233.448-.597.448-1.092s-.152-.863-.455-1.106-.777-.364-1.421-.364h-2.52v2.912zm9.632-4.158-1.022.098c-1.157.121-1.736.71-1.736 1.764v3.696h-1.75v-6.846h1.666v1.204c.355-.821 1.087-1.27 2.198-1.344l.532-.042zm6.72 2.45h-4.662c.056.635.247 1.106.574 1.414s.793.462 1.4.462c.756 0 1.447-.243 2.072-.728l.504 1.204c-.317.261-.716.471-1.197.63-.48.159-.964.238-1.449.238-1.12 0-2.004-.317-2.653-.952s-.973-1.503-.973-2.604c0-.7.14-1.32.42-1.862.28-.541.674-.961 1.183-1.26s1.085-.448 1.729-.448c.943 0 1.687.303 2.233.91s.819 1.442.819 2.506zm-3.01-2.674c-.467 0-.842.15-1.127.448-.285.299-.46.728-.525 1.288h3.164c-.019-.57-.159-1.001-.42-1.295s-.625-.441-1.092-.441zm12.572-1.232c.775 0 1.353.231 1.736.693s.574 1.169.574 2.121v4.2h-1.75v-4.13c0-.523-.089-.903-.266-1.141s-.462-.357-.854-.357c-.467 0-.83.159-1.092.476-.261.317-.392.76-.392 1.33v3.822h-1.75v-4.13c0-.523-.086-.903-.259-1.141s-.46-.357-.861-.357c-.457 0-.817.159-1.078.476s-.392.76-.392 1.33v3.822h-1.75v-6.846h1.708v.966c.205-.373.49-.656.854-.847s.78-.287 1.246-.287c1.036 0 1.722.43 2.058 1.288.215-.401.523-.716.924-.945s.85-.343 1.344-.343zm6.608 7.126a5.921 5.921 0 0 1 -1.673-.224 3.786 3.786 0 0 1 -1.295-.644l.49-1.218c.728.532 1.563.798 2.506.798.401 0 .707-.065.917-.196a.623.623 0 0 0 .315-.56.567.567 0 0 0 -.217-.476c-.145-.112-.404-.215-.777-.308l-1.12-.252c-.635-.14-1.106-.369-1.414-.686s-.462-.728-.462-1.232c0-.42.119-.791.357-1.113s.57-.572.994-.749c.425-.177.917-.266 1.477-.266.485 0 .954.075 1.407.224.453.15.852.36 1.197.63l-.49 1.19c-.71-.513-1.419-.77-2.128-.77-.383 0-.681.07-.896.21a.664.664 0 0 0 -.322.588c0 .187.068.34.203.462.135.121.352.215.651.28l1.162.266c.681.15 1.18.385 1.498.707.317.322.476.744.476 1.267 0 .635-.257 1.139-.77 1.512s-1.209.56-2.086.56zm10.276-3.22h-4.662c.056.635.247 1.106.574 1.414s.793.462 1.4.462c.756 0 1.447-.243 2.072-.728l.504 1.204c-.317.261-.716.471-1.197.63-.48.159-.964.238-1.449.238-1.12 0-2.004-.317-2.653-.952s-.973-1.503-.973-2.604c0-.7.14-1.32.42-1.862.28-.541.674-.961 1.183-1.26s1.085-.448 1.729-.448c.943 0 1.687.303 2.233.91s.819 1.442.819 2.506zm-3.01-2.674c-.467 0-.842.15-1.127.448-.285.299-.46.728-.525 1.288h3.164c-.019-.57-.159-1.001-.42-1.295s-.625-.441-1.092-.441zm269.138 5.782v-9.87h6.468v1.442h-4.69v2.688h4.41v1.442h-4.41v4.298zm10.5-7.014c.961 0 1.675.233 2.142.7s.7 1.185.7 2.156v4.158h-1.666v-1.05a1.827 1.827 0 0 1 -.749.854c-.34.205-.735.308-1.183.308-.457 0-.873-.093-1.246-.28a2.217 2.217 0 0 1 -.882-.77 1.946 1.946 0 0 1 -.322-1.092c0-.504.128-.9.385-1.19s.674-.5 1.253-.63 1.377-.196 2.394-.196h.35v-.322c0-.467-.1-.803-.301-1.008-.2-.205-.534-.308-1.001-.308-.364 0-.744.063-1.141.189a5.77 5.77 0 0 0 -1.169.525l-.49-1.204a5.436 5.436 0 0 1 1.386-.602 5.48 5.48 0 0 1 1.54-.238zm-.406 5.866c.467 0 .847-.156 1.141-.469s.441-.716.441-1.211v-.294h-.252c-.625 0-1.11.028-1.456.084-.345.056-.593.154-.742.294-.15.14-.224.331-.224.574a.96.96 0 0 0 .308.735c.205.191.467.287.784.287zm9.002-5.866c.821 0 1.433.233 1.834.7s.602 1.171.602 2.114v4.2h-1.75v-4.102c0-.532-.1-.92-.301-1.162-.2-.243-.516-.364-.945-.364-.504 0-.908.159-1.211.476s-.455.742-.455 1.274v3.878h-1.75v-9.87h1.75v3.976c.233-.364.544-.642.931-.833a2.884 2.884 0 0 1 1.295-.287zm8.722 1.456-1.022.098c-1.157.121-1.736.71-1.736 1.764v3.696h-1.75v-6.846h1.666v1.204c.355-.821 1.087-1.27 2.198-1.344l.532-.042zm2.772 4.242h3.892v1.316h-5.964v-1.218l3.724-4.312h-3.654v-1.316h5.754v1.19zm11.144-1.792h-4.662c.056.635.247 1.106.574 1.414s.793.462 1.4.462c.756 0 1.447-.243 2.072-.728l.504 1.204c-.317.261-.716.471-1.197.63-.48.159-.964.238-1.449.238-1.12 0-2.004-.317-2.653-.952s-.973-1.503-.973-2.604c0-.7.14-1.32.42-1.862.28-.541.674-.961 1.183-1.26s1.085-.448 1.729-.448c.943 0 1.687.303 2.233.91s.819 1.442.819 2.506zm-3.01-2.674c-.467 0-.842.15-1.127.448-.285.299-.46.728-.525 1.288h3.164c-.019-.57-.159-1.001-.42-1.295s-.625-.441-1.092-.441zm10.724-1.064v6.846h-1.708v-1.05a2.23 2.23 0 0 1 -.868.861c-.364.2-.775.301-1.232.301-1.68 0-2.52-.943-2.52-2.828v-4.13h1.75v4.144c0 .485.098.845.294 1.078s.504.35.924.35c.485 0 .875-.161 1.169-.483s.441-.749.441-1.281v-3.808zm8.484 0v6.216c0 1.073-.296 1.885-.889 2.436-.593.55-1.468.826-2.625.826a6.364 6.364 0 0 1 -1.722-.231 4.865 4.865 0 0 1 -1.442-.651l.49-1.232c.85.513 1.727.77 2.632.77 1.213 0 1.82-.597 1.82-1.792v-.896a2.138 2.138 0 0 1 -.896.889c-.392.21-.84.315-1.344.315-.597 0-1.127-.142-1.589-.427a2.934 2.934 0 0 1 -1.085-1.197c-.261-.513-.392-1.106-.392-1.778s.128-1.267.385-1.785.618-.92 1.085-1.204a3.003 3.003 0 0 1 1.596-.427c.504 0 .952.105 1.344.315s.69.506.896.889v-1.036zm-3.514 5.292c.56 0 .996-.182 1.309-.546s.469-.863.469-1.498c0-.644-.156-1.148-.469-1.512s-.749-.546-1.309-.546c-.55 0-.985.182-1.302.546s-.476.868-.476 1.512c0 .625.159 1.122.476 1.491s.751.553 1.302.553zm11.634 1.666a5.921 5.921 0 0 1 -1.673-.224 3.786 3.786 0 0 1 -1.295-.644l.49-1.218c.728.532 1.563.798 2.506.798.401 0 .707-.065.917-.196a.623.623 0 0 0 .315-.56.567.567 0 0 0 -.217-.476c-.145-.112-.404-.215-.777-.308l-1.12-.252c-.635-.14-1.106-.369-1.414-.686s-.462-.728-.462-1.232c0-.42.119-.791.357-1.113s.57-.572.994-.749c.425-.177.917-.266 1.477-.266.485 0 .954.075 1.407.224.453.15.852.36 1.197.63l-.49 1.19c-.71-.513-1.419-.77-2.128-.77-.383 0-.681.07-.896.21a.664.664 0 0 0 -.322.588c0 .187.068.34.203.462.135.121.352.215.651.28l1.162.266c.681.15 1.18.385 1.498.707.317.322.476.744.476 1.267 0 .635-.257 1.139-.77 1.512s-1.209.56-2.086.56zm7.7-1.316c.205 0 .42-.014.644-.042l-.084 1.302c-.28.028-.537.042-.77.042-.961 0-1.67-.222-2.128-.665-.457-.443-.686-1.104-.686-1.981v-2.982h-1.316v-1.316h1.316v-2.044h1.75v2.044h1.806v1.316h-1.806v2.954c0 .915.425 1.372 1.274 1.372zm1.666 1.204v-6.846h1.75v6.846zm-.098-10.024h1.932v1.722h-1.932zm3.654 10.024v-9.87h1.75v9.87zm3.556 0v-9.87h1.75v9.87z" fill="#3a4952"/></g></svg>