<svg xmlns="http://www.w3.org/2000/svg" width="760" height="226" viewBox="0 0 760 226">
    <defs>
        <linearGradient id="a" x1="100%" x2="0%" y1="50%" y2="50%">
            <stop offset="0%" stop-color="#FFF"/>
            <stop offset="100%" stop-color="#FFB535"/>
        </linearGradient>
    </defs>
    <g fill="none" fill-rule="evenodd">
        <g opacity=".1">
            <path fill="#3A4952" d="M4.385 97.64c.109.862.777 1.5 1.389 1.932.913.362 2.344.955 4.061 1.778 1.914.917 3.263 1.68 3.44 1.777 1.92 1.059 7.828 2.07 23.974 2.27a8532.209 8532.209 0 0 0 88.661.328l5.209-1.69c1.091-.684 2.242-1.696 2.546-3.137 1.098-5.215-9.517-13.221-18.866-16.287-13.423-4.402-18.046 3.412-36.805 4.102-20.426.752-21.563-8.27-40.508-6.274C21.111 84.164 3.774 92.82 4.385 97.641"/>
            <path fill="#A5BBC9" d="M13.803 77.135a98.797 98.797 0 0 1 15.84-5.467 99.016 99.016 0 0 1 7.003-1.492c2.32-.407 7.744-1.275 15.544-1.493 1.811-.05 10.155.1 17.133.65 15.105 1.19 32.99 10.722 32.04 15.522-1.186 5.993-32.115 6.033-56.529 1.426a162.457 162.457 0 0 1-31.031-9.146"/>
            <path fill="#E4EBF0" stroke="#3A4952" d="M97.132 80.491c.228-.002.562-.005.966-.003 7.726.02 13.679 1.15 15.9 1.61 15.27 3.153 19.23 8.648 19.47 9.045.778 1.289.647 2.219.647 2.219-.053.373-.168.508-.13.826.099.822 1.003 1.07 1.425 1.61 1 1.277-.195 4.836-2.59 6.436-1.112.743-2.147.797-4.49.87-2.882.09-5.877.15-8.978.174l.086-5.828c.02-1.33-.328-2.513-.95-3.915-1.587-3.578-4.742-5.207-5.482-5.566a11.768 11.768 0 0 0-6-1.131c-.421.032-5.886.533-8.893 5.045-1.254 1.88-1.59 3.707-1.9 5.393a19.349 19.349 0 0 0-.086 6.437l-54.65-.61c.292-1.29.674-3.773-.087-6.697-.344-1.32-1.385-5.079-5.094-7.567-.664-.446-4.238-2.747-8.806-1.828-5.266 1.06-8.666 5.757-9.497 10.091-.439 2.288-.115 4.234.172 5.393a179.6 179.6 0 0 1-9.065-1.827c-4.12-.94-5.61-1.435-6.648-2.87-1.05-1.45-1.242-3.24-1.381-4.61-.198-1.94.056-3.546.295-4.574.68-.448 1.357-.895 2.036-1.341l.129-5.828c-.58-.843-1.187-1.923-.814-2.433.312-.427 1.164-.252 1.93-.18.813.076 2.312-.25 5.31-.902 3.61-.785 5.722-1.542 7.06-1.449.17.012.948.08 2.011-.006 0 0 .348-.026.691-.076 1.957-.282 3.298-1.009 4.23-1.478 1.942-.977 4.049-1.578 6.044-2.436 4.625-1.99 17.675-5.387 32.808-4.262 4.205.312 7.258.876 8.113 1.039 7.07 1.345 12.32 3.516 14.816 4.639a65.2 65.2 0 0 1 11.402 6.59"/>
            <path fill="#A5BBC9" d="M29.3 75.651a45.56 45.56 0 0 1 4.528-2.113c2.157-.866 8.206-3.1 20.015-3.425 4.947-.135 9.51-.26 15.23.721 5.43.932 14.889 3.375 25.281 10.817l.307 1.847-60.92-3.65a6.834 6.834 0 0 1-2.503-1.397 7.115 7.115 0 0 1-1.937-2.8"/>
            <path fill="#3A4952" d="M107.464 111.125c-6.688 0-12.129-5.441-12.129-12.129 0-6.687 5.441-12.129 12.13-12.129 6.687 0 12.128 5.442 12.128 12.13 0 6.687-5.44 12.128-12.129 12.128"/>
            <path fill="#F3F7F9" d="M115.55 98.659a7.749 7.749 0 1 0-15.498 0 7.749 7.749 0 0 0 15.498 0"/>
            <path fill="#F3F7F9" d="M107.8 91.623c-3.875 0-7.027 3.156-7.027 7.036 0 3.88 3.152 7.036 7.028 7.036 3.876 0 7.028-3.156 7.028-7.036 0-3.88-3.152-7.036-7.028-7.036m0 14.785c-4.273 0-7.749-3.476-7.749-7.749s3.476-7.749 7.749-7.749 7.749 3.476 7.749 7.749-3.476 7.749-7.75 7.749"/>
            <path fill="#3A4952" d="M29.974 111.125c-6.688 0-12.128-5.441-12.128-12.129 0-6.687 5.44-12.129 12.128-12.129 6.689 0 12.13 5.442 12.13 12.13 0 6.687-5.441 12.128-12.13 12.128"/>
            <path fill="#F3F7F9" d="M38.06 98.659a7.749 7.749 0 1 0-15.497 0 7.749 7.749 0 0 0 15.497 0"/>
            <path fill="#F3F7F9" d="M30.311 91.623c-3.875 0-7.028 3.156-7.028 7.036 0 3.88 3.153 7.036 7.028 7.036 3.876 0 7.03-3.156 7.03-7.036 0-3.88-3.154-7.036-7.03-7.036m0 14.785c-4.272 0-7.749-3.476-7.749-7.749s3.477-7.749 7.75-7.749c4.272 0 7.748 3.476 7.748 7.749s-3.476 7.749-7.749 7.749"/>
            <path fill="#E4EBF0" stroke="#3A4952" d="M85.698 78.781a21.571 21.571 0 0 1 4.462 2.216c1.354.882 2.628 1.712 2.466 2.333-.266 1.014-4.193.84-4.697.816a16.14 16.14 0 0 1-2.701-.35l.47-5.015"/>
            <path fill="#FFF" stroke="#3A4952" d="M126.696 88.599c1.231.314 2.791.845 4.552 1.916 1.046.636 1.48 1.048 1.82 1.557.055.08.982 1.487.57 2.036-.203.27-.684.27-2.845-.36-2.019-.589-3.028-.883-3.528-1.197-1.935-1.217-3.322-3.55-2.87-4.185.214-.298.91-.121 2.3.233"/>
            <path fill="#A5BBC9" d="M126.331 100.913c.338-.865 1.39-3.2 3.949-4.434 1.119-.54 3.57-1.37 4.46-.416.779.837.258 2.937-1.521 4.954l-6.888-.104"/>
            <path fill="#F9FBFC" d="M35.357 86.115c-.145.406-2.14-.893-5.684-1.037-3.572-.145-5.639 1.01-5.758.6-.144-.498 2.664-3.028 5.941-2.844 3.15.177 5.672 2.8 5.5 3.28M112.174 86.13c-.119.326-1.762-.714-4.68-.83-2.942-.115-4.644.808-4.742.481-.12-.398 2.194-2.422 4.892-2.275 2.594.14 4.671 2.24 4.53 2.625"/>
            <path fill="#FFF" stroke="#3A4952" d="M3.054 82.15c1.277.207 2.768.485 4.421.865 1.886.434 2.85.658 3.807 1.109.966.454 2.439 1.338 3.868 3.131a666.817 666.817 0 0 0-12.129.286l.033-5.39"/>
            <path fill="#A5BBC9" d="M1 94.329a28.05 28.05 0 0 1 3.5.01c1.942.128 3.311.21 4.773.851.776.341 1.97 1.018 3.182 2.458l-9.989-.283a5.475 5.475 0 0 1-.96-1.335A4.864 4.864 0 0 1 1 94.329"/>
            <path fill="#3A4952" stroke="#3A4952" stroke-width=".5" d="M52.826 101.143l40.728 1.041c.096-1.633.24-3.302.428-4.962.217-1.917.441-3.379.64-4.669.339-2.21.584-3.808.53-6.062a27.708 27.708 0 0 0-.647-5.285 96.91 96.91 0 0 0-12.608-5.895c-4.562-1.745-9.596-3.262-13.468-4.059-12.189-2.508-24.68-.07-33.027 2.423l-1.864 5.717A131.25 131.25 0 0 1 37.18 84.7c3.101 4.764 4.656 7.153 6.154 9.99.337.638.62 1.193.868 1.683.982 1.933 1.43 2.816 2.65 3.624 1.56 1.032 3.57 1.418 5.974 1.147zm40.893 1.222l-.085-.003-40.8-1.044c-2.435.276-4.484-.12-6.078-1.176-1.26-.833-1.714-1.729-2.71-3.69-.249-.49-.53-1.044-.867-1.681-1.494-2.829-3.048-5.216-6.143-9.972a132.097 132.097 0 0 0-3.666-5.34l-.026-.036 1.92-5.89.044-.014c8.366-2.504 20.91-4.96 33.156-2.44 3.881.8 8.926 2.32 13.495 4.067a96.995 96.995 0 0 1 12.666 5.926l.034.02.01.037c.395 1.79.617 3.593.659 5.358.054 2.27-.192 3.873-.533 6.093a109.725 109.725 0 0 0-.638 4.662 93.744 93.744 0 0 0-.433 5.038l-.005.085z"/>
            <path fill="#3A4952" stroke="#3A4952" stroke-width=".5" d="M64.534 101.691l-.142-.028c.666-5.047.636-9.864-.088-14.318-.155-.953-.316-1.733-.501-2.636-.205-.994-.437-2.12-.732-3.81a127.836 127.836 0 0 1-1.427-10.859l.142-.019c.315 3.594.794 7.242 1.424 10.842.296 1.687.527 2.811.731 3.803.187.906.348 1.687.503 2.645.728 4.474.758 9.312.09 14.38"/>
            <path fill="#050706" d="M94.734 80.803l-.073-.128 2.623-.546.073.127z"/>
        </g>
        <g opacity=".1">
            <path fill="#3A4952" d="M12.13 97.64c.109.862.777 1.5 1.389 1.932.914.362 2.344.955 4.062 1.778 1.913.917 3.262 1.68 3.439 1.777 1.92 1.059 7.828 2.07 23.974 2.27a8532.209 8532.209 0 0 0 88.661.328l5.209-1.69c1.091-.684 2.242-1.696 2.546-3.137 1.098-5.215-9.516-13.221-18.866-16.287-13.423-4.402-18.045 3.412-36.805 4.102-20.426.752-21.563-8.27-40.508-6.274C28.856 84.164 11.52 92.82 12.13 97.641"/>
            <path fill="#A5BBC9" d="M21.548 77.135a98.797 98.797 0 0 1 15.84-5.467 99.016 99.016 0 0 1 7.003-1.492c2.32-.407 7.744-1.275 15.544-1.493 1.811-.05 10.155.1 17.133.65 15.105 1.19 32.99 10.722 32.04 15.522-1.186 5.993-32.115 6.033-56.529 1.426a162.457 162.457 0 0 1-31.031-9.146"/>
            <path fill="#E4EBF0" stroke="#3A4952" d="M104.877 80.491c.228-.002.563-.005.966-.003 7.726.02 13.679 1.15 15.9 1.61 15.27 3.153 19.23 8.648 19.47 9.045.778 1.289.647 2.219.647 2.219-.053.373-.168.508-.13.826.099.822 1.003 1.07 1.425 1.61 1 1.277-.195 4.836-2.59 6.436-1.112.743-2.147.797-4.49.87-2.882.09-5.876.15-8.978.174l.086-5.828c.02-1.33-.328-2.513-.95-3.915-1.587-3.578-4.742-5.207-5.482-5.566a11.768 11.768 0 0 0-6-1.131c-.42.032-5.886.533-8.893 5.045-1.253 1.88-1.59 3.707-1.9 5.393a19.349 19.349 0 0 0-.086 6.437l-54.65-.61c.292-1.29.674-3.773-.087-6.697-.343-1.32-1.385-5.079-5.094-7.567-.664-.446-4.238-2.747-8.806-1.828-5.266 1.06-8.666 5.757-9.497 10.091-.439 2.288-.115 4.234.173 5.393a179.6 179.6 0 0 1-9.066-1.827c-4.12-.94-5.61-1.435-6.648-2.87-1.05-1.45-1.242-3.24-1.381-4.61-.198-1.94.056-3.546.296-4.574.678-.448 1.357-.895 2.035-1.341l.13-5.828c-.581-.843-1.188-1.923-.815-2.433.312-.427 1.164-.252 1.93-.18.813.076 2.312-.25 5.31-.902 3.61-.785 5.722-1.542 7.06-1.449.17.012.948.08 2.011-.006 0 0 .348-.026.691-.076 1.957-.282 3.298-1.009 4.23-1.478 1.942-.977 4.049-1.578 6.045-2.436 4.624-1.99 17.675-5.387 32.807-4.262 4.205.312 7.258.876 8.113 1.039 7.07 1.345 12.32 3.516 14.816 4.639a65.2 65.2 0 0 1 11.402 6.59"/>
            <path fill="#A5BBC9" d="M37.046 75.651a45.56 45.56 0 0 1 4.527-2.113c2.158-.866 8.206-3.1 20.015-3.425 4.947-.135 9.51-.26 15.23.721 5.43.932 14.889 3.375 25.281 10.817l.308 1.847-60.922-3.65a6.834 6.834 0 0 1-2.502-1.397 7.115 7.115 0 0 1-1.937-2.8"/>
            <path fill="#3A4952" d="M115.21 111.125c-6.689 0-12.13-5.441-12.13-12.129 0-6.687 5.441-12.129 12.13-12.129 6.687 0 12.128 5.442 12.128 12.13 0 6.687-5.44 12.128-12.129 12.128"/>
            <path fill="#F3F7F9" d="M123.295 98.659a7.749 7.749 0 1 0-15.498 0 7.749 7.749 0 0 0 15.498 0"/>
            <path fill="#F3F7F9" d="M115.546 91.623c-3.876 0-7.028 3.156-7.028 7.036 0 3.88 3.152 7.036 7.028 7.036 3.876 0 7.029-3.156 7.029-7.036 0-3.88-3.153-7.036-7.03-7.036m0 14.785c-4.272 0-7.748-3.476-7.748-7.749s3.476-7.749 7.749-7.749 7.75 3.476 7.75 7.749-3.477 7.749-7.75 7.749"/>
            <path fill="#3A4952" d="M37.72 111.125c-6.689 0-12.13-5.441-12.13-12.129 0-6.687 5.441-12.129 12.13-12.129 6.688 0 12.128 5.442 12.128 12.13 0 6.687-5.44 12.128-12.128 12.128"/>
            <path fill="#F3F7F9" d="M45.805 98.659a7.749 7.749 0 1 0-15.497 0 7.749 7.749 0 0 0 15.497 0"/>
            <path fill="#F3F7F9" d="M38.056 91.623c-3.875 0-7.028 3.156-7.028 7.036 0 3.88 3.153 7.036 7.028 7.036 3.876 0 7.03-3.156 7.03-7.036 0-3.88-3.154-7.036-7.03-7.036m0 14.785c-4.272 0-7.749-3.476-7.749-7.749s3.477-7.749 7.75-7.749c4.272 0 7.748 3.476 7.748 7.749s-3.476 7.749-7.749 7.749"/>
            <path fill="#E4EBF0" stroke="#3A4952" d="M93.443 78.781a21.571 21.571 0 0 1 4.462 2.216c1.354.882 2.629 1.712 2.466 2.333-.265 1.014-4.193.84-4.697.816a16.14 16.14 0 0 1-2.701-.35l.47-5.015"/>
            <path fill="#FFF" stroke="#3A4952" d="M134.44 88.599c1.232.314 2.792.845 4.553 1.916 1.046.636 1.48 1.048 1.821 1.557.054.08.98 1.487.57 2.036-.204.27-.685.27-2.846-.36-2.019-.589-3.028-.883-3.528-1.197-1.935-1.217-3.322-3.55-2.87-4.185.214-.298.91-.121 2.3.233"/>
            <path fill="#A5BBC9" d="M134.076 100.913c.338-.865 1.39-3.2 3.949-4.434 1.119-.54 3.57-1.37 4.46-.416.779.837.258 2.937-1.521 4.954l-6.888-.104"/>
            <path fill="#F9FBFC" d="M43.102 86.115c-.145.406-2.14-.893-5.683-1.037-3.573-.145-5.64 1.01-5.759.6-.144-.498 2.664-3.028 5.941-2.844 3.15.177 5.672 2.8 5.5 3.28M119.92 86.13c-.12.326-1.763-.714-4.681-.83-2.942-.115-4.644.808-4.742.481-.12-.398 2.194-2.422 4.892-2.275 2.594.14 4.671 2.24 4.53 2.625"/>
            <path fill="#FFF" stroke="#3A4952" d="M10.799 82.15c1.277.207 2.768.485 4.421.865 1.886.434 2.85.658 3.807 1.109.967.454 2.44 1.338 3.868 3.131a666.817 666.817 0 0 0-12.128.286l.032-5.39"/>
            <path fill="#A5BBC9" d="M8.745 94.329a28.05 28.05 0 0 1 3.5.01c1.942.128 3.311.21 4.773.851.776.341 1.97 1.018 3.182 2.458l-9.989-.283a5.475 5.475 0 0 1-.96-1.335 4.864 4.864 0 0 1-.506-1.701"/>
            <path fill="#3A4952" stroke="#3A4952" stroke-width=".5" d="M60.571 101.143l40.728 1.041c.097-1.633.241-3.302.428-4.962.217-1.917.442-3.379.64-4.669.339-2.21.584-3.808.53-6.062a27.708 27.708 0 0 0-.647-5.285 96.91 96.91 0 0 0-12.608-5.895c-4.562-1.745-9.596-3.262-13.468-4.059-12.189-2.508-24.68-.07-33.027 2.423l-1.864 5.717a131.25 131.25 0 0 1 3.643 5.307c3.1 4.764 4.655 7.153 6.153 9.99.337.638.62 1.193.868 1.683.982 1.933 1.43 2.816 2.651 3.624 1.559 1.032 3.569 1.418 5.973 1.147zm40.893 1.222l-.085-.003-40.8-1.044c-2.435.276-4.484-.12-6.078-1.176-1.26-.833-1.714-1.729-2.71-3.69-.249-.49-.53-1.044-.867-1.681-1.494-2.829-3.048-5.216-6.143-9.972a132.097 132.097 0 0 0-3.666-5.34l-.026-.036 1.92-5.89.044-.014c8.366-2.504 20.91-4.96 33.156-2.44 3.881.8 8.926 2.32 13.496 4.067a96.995 96.995 0 0 1 12.665 5.926l.034.02.01.037c.395 1.79.617 3.593.659 5.358.054 2.27-.192 3.873-.533 6.093a109.725 109.725 0 0 0-.638 4.662 93.744 93.744 0 0 0-.433 5.038l-.005.085z"/>
            <path fill="#3A4952" stroke="#3A4952" stroke-width=".5" d="M72.279 101.691l-.142-.028c.666-5.047.636-9.864-.088-14.318-.155-.953-.316-1.733-.501-2.636-.205-.994-.436-2.12-.732-3.81a127.836 127.836 0 0 1-1.427-10.859l.142-.019c.315 3.594.794 7.242 1.425 10.842.295 1.687.526 2.811.73 3.803.187.906.348 1.687.503 2.645.728 4.474.758 9.312.09 14.38"/>
            <path fill="#050706" d="M102.479 80.803l-.072-.128 2.623-.546.072.127z"/>
        </g>
        <g opacity=".4">
            <path fill="#3A4952" d="M19.875 97.64c.109.862.777 1.5 1.389 1.932.914.362 2.345.955 4.062 1.778 1.913.917 3.262 1.68 3.439 1.777 1.92 1.059 7.828 2.07 23.974 2.27a8532.209 8532.209 0 0 0 88.661.328l5.209-1.69c1.091-.684 2.243-1.696 2.546-3.137 1.098-5.215-9.516-13.221-18.866-16.287-13.423-4.402-18.045 3.412-36.804 4.102-20.427.752-21.564-8.27-40.509-6.274-16.375 1.725-33.712 10.38-33.101 15.202"/>
            <path fill="#A5BBC9" d="M29.293 77.135a98.797 98.797 0 0 1 15.84-5.467 99.016 99.016 0 0 1 7.003-1.492c2.32-.407 7.744-1.275 15.544-1.493 1.811-.05 10.155.1 17.133.65 15.105 1.19 32.99 10.722 32.04 15.522-1.186 5.993-32.115 6.033-56.528 1.426a162.457 162.457 0 0 1-31.032-9.146"/>
            <path fill="#E4EBF0" stroke="#3A4952" d="M112.623 80.491c.228-.002.562-.005.965-.003 7.726.02 13.68 1.15 15.9 1.61 15.27 3.153 19.23 8.648 19.47 9.045.778 1.289.647 2.219.647 2.219-.053.373-.168.508-.13.826.099.822 1.003 1.07 1.425 1.61 1 1.277-.195 4.836-2.59 6.436-1.112.743-2.147.797-4.49.87-2.882.09-5.876.15-8.978.174l.086-5.828c.02-1.33-.328-2.513-.95-3.915-1.586-3.578-4.742-5.207-5.482-5.566a11.768 11.768 0 0 0-6-1.131c-.42.032-5.886.533-8.893 5.045-1.253 1.88-1.59 3.707-1.9 5.393a19.349 19.349 0 0 0-.086 6.437l-54.65-.61c.292-1.29.674-3.773-.087-6.697-.343-1.32-1.385-5.079-5.094-7.567-.664-.446-4.238-2.747-8.806-1.828-5.266 1.06-8.666 5.757-9.497 10.091-.439 2.288-.115 4.234.173 5.393a179.6 179.6 0 0 1-9.066-1.827c-4.12-.94-5.609-1.435-6.647-2.87-1.05-1.45-1.242-3.24-1.382-4.61-.197-1.94.056-3.546.296-4.574.678-.448 1.357-.895 2.035-1.341l.13-5.828c-.581-.843-1.188-1.923-.815-2.433.313-.427 1.164-.252 1.93-.18.813.076 2.312-.25 5.31-.902 3.61-.785 5.722-1.542 7.06-1.449.17.012.948.08 2.011-.006 0 0 .348-.026.692-.076 1.956-.282 3.298-1.009 4.23-1.478 1.941-.977 4.048-1.578 6.044-2.436 4.624-1.99 17.675-5.387 32.807-4.262 4.205.312 7.258.876 8.113 1.039 7.071 1.345 12.32 3.516 14.817 4.639a65.2 65.2 0 0 1 11.402 6.59"/>
            <path fill="#A5BBC9" d="M44.79 75.651a45.56 45.56 0 0 1 4.528-2.113c2.158-.866 8.206-3.1 20.015-3.425 4.947-.135 9.51-.26 15.23.721 5.43.932 14.89 3.375 25.281 10.817l.308 1.847-60.922-3.65a6.834 6.834 0 0 1-2.501-1.397 7.115 7.115 0 0 1-1.938-2.8"/>
            <path fill="#3A4952" d="M122.954 111.125c-6.688 0-12.129-5.441-12.129-12.129 0-6.687 5.441-12.129 12.13-12.129 6.687 0 12.128 5.442 12.128 12.13 0 6.687-5.44 12.128-12.129 12.128"/>
            <path fill="#F3F7F9" d="M131.04 98.659a7.749 7.749 0 1 0-15.498 0 7.749 7.749 0 0 0 15.498 0"/>
            <path fill="#F3F7F9" d="M123.291 91.623c-3.875 0-7.028 3.156-7.028 7.036 0 3.88 3.153 7.036 7.028 7.036 3.876 0 7.029-3.156 7.029-7.036 0-3.88-3.153-7.036-7.029-7.036m0 14.785c-4.273 0-7.749-3.476-7.749-7.749s3.476-7.749 7.749-7.749 7.75 3.476 7.75 7.749-3.477 7.749-7.75 7.749"/>
            <path fill="#3A4952" d="M45.465 111.125c-6.689 0-12.13-5.441-12.13-12.129 0-6.687 5.441-12.129 12.13-12.129 6.688 0 12.128 5.442 12.128 12.13 0 6.687-5.44 12.128-12.128 12.128"/>
            <path fill="#F3F7F9" d="M53.55 98.659a7.749 7.749 0 1 0-15.497 0 7.749 7.749 0 0 0 15.497 0"/>
            <path fill="#F3F7F9" d="M45.802 91.623c-3.876 0-7.03 3.156-7.03 7.036 0 3.88 3.154 7.036 7.03 7.036 3.875 0 7.028-3.156 7.028-7.036 0-3.88-3.153-7.036-7.028-7.036m0 14.785c-4.273 0-7.75-3.476-7.75-7.749s3.477-7.749 7.75-7.749 7.748 3.476 7.748 7.749-3.475 7.749-7.748 7.749"/>
            <path fill="#E4EBF0" stroke="#3A4952" d="M101.188 78.781a21.571 21.571 0 0 1 4.462 2.216c1.354.882 2.629 1.712 2.466 2.333-.265 1.014-4.193.84-4.697.816a16.14 16.14 0 0 1-2.7-.35c.155-1.671.312-3.343.469-5.015"/>
            <path fill="#FFF" stroke="#3A4952" d="M142.186 88.599c1.231.314 2.791.845 4.552 1.916 1.046.636 1.48 1.048 1.821 1.557.054.08.981 1.487.57 2.036-.204.27-.685.27-2.846-.36-2.019-.589-3.028-.883-3.528-1.197-1.935-1.217-3.322-3.55-2.869-4.185.213-.298.909-.121 2.3.233"/>
            <path fill="#A5BBC9" d="M141.821 100.913c.338-.865 1.39-3.2 3.949-4.434 1.12-.54 3.57-1.37 4.46-.416.779.837.258 2.937-1.521 4.954l-6.888-.104"/>
            <path fill="#F9FBFC" d="M50.847 86.115c-.145.406-2.14-.893-5.683-1.037-3.573-.145-5.64 1.01-5.758.6-.145-.498 2.663-3.028 5.94-2.844 3.15.177 5.672 2.8 5.501 3.28M127.664 86.13c-.119.326-1.762-.714-4.68-.83-2.942-.115-4.644.808-4.742.481-.119-.398 2.194-2.422 4.893-2.275 2.593.14 4.67 2.24 4.53 2.625"/>
            <path fill="#FFF" stroke="#3A4952" d="M18.544 82.15c1.278.207 2.768.485 4.421.865 1.886.434 2.85.658 3.807 1.109.967.454 2.44 1.338 3.868 3.131a666.817 666.817 0 0 0-12.128.286l.032-5.39"/>
            <path fill="#A5BBC9" d="M16.49 94.329a28.05 28.05 0 0 1 3.5.01c1.943.128 3.311.21 4.773.851.776.341 1.97 1.018 3.182 2.458l-9.988-.283a5.475 5.475 0 0 1-.962-1.335 4.864 4.864 0 0 1-.505-1.701"/>
            <path fill="#3A4952" stroke="#3A4952" stroke-width=".5" d="M68.316 101.143l40.728 1.041c.097-1.633.241-3.302.428-4.962.217-1.917.442-3.379.64-4.669.339-2.21.584-3.808.53-6.062a27.708 27.708 0 0 0-.647-5.285 96.91 96.91 0 0 0-12.608-5.895c-4.561-1.745-9.596-3.262-13.468-4.059-12.188-2.508-24.68-.07-33.027 2.423l-1.864 5.717a131.25 131.25 0 0 1 3.643 5.307c3.1 4.764 4.655 7.153 6.153 9.99.337.638.62 1.193.868 1.683.982 1.933 1.43 2.816 2.651 3.624 1.56 1.032 3.569 1.418 5.973 1.147zm40.893 1.222l-.085-.003-40.8-1.044c-2.435.276-4.484-.12-6.078-1.176-1.26-.833-1.714-1.729-2.71-3.69-.249-.49-.53-1.044-.867-1.681-1.494-2.829-3.048-5.216-6.143-9.972a132.097 132.097 0 0 0-3.666-5.34l-.026-.036 1.92-5.89.044-.014c8.367-2.504 20.91-4.96 33.156-2.44 3.881.8 8.926 2.32 13.496 4.067a96.995 96.995 0 0 1 12.665 5.926l.035.02.009.037c.395 1.79.617 3.593.66 5.358.053 2.27-.193 3.873-.534 6.093a109.725 109.725 0 0 0-.638 4.662 93.744 93.744 0 0 0-.433 5.038l-.005.085z"/>
            <path fill="#3A4952" stroke="#3A4952" stroke-width=".5" d="M80.024 101.691l-.141-.028c.665-5.047.635-9.864-.09-14.318-.154-.953-.314-1.733-.5-2.636-.204-.994-.436-2.12-.732-3.81a127.836 127.836 0 0 1-1.427-10.859l.142-.019c.315 3.594.794 7.242 1.425 10.842.295 1.687.527 2.811.73 3.803.187.906.348 1.687.503 2.645.728 4.474.758 9.312.09 14.38"/>
            <path fill="#050706" d="M110.224 80.803l-.072-.128 2.623-.546.072.127z"/>
        </g>
        <path fill="#3A4952" d="M27.62 97.64c.109.862.777 1.5 1.389 1.932.914.362 2.345.955 4.062 1.778 1.913.917 3.263 1.68 3.439 1.777 1.92 1.059 7.828 2.07 23.974 2.27a8532.209 8532.209 0 0 0 88.661.328l5.209-1.69c1.091-.684 2.243-1.696 2.546-3.137 1.098-5.215-9.516-13.221-18.866-16.287-13.423-4.402-18.045 3.412-36.804 4.102-20.427.752-21.564-8.27-40.509-6.274-16.375 1.725-33.711 10.38-33.1 15.202"/>
        <path fill="#A5BBC9" d="M37.038 77.135a98.797 98.797 0 0 1 15.84-5.467 99.016 99.016 0 0 1 7.003-1.492c2.32-.407 7.744-1.275 15.544-1.493 1.811-.05 10.155.1 17.133.65 15.105 1.19 32.99 10.722 32.04 15.522-1.185 5.993-32.115 6.033-56.528 1.426a162.457 162.457 0 0 1-31.032-9.146"/>
        <path fill="#E4EBF0" stroke="#3A4952" d="M120.368 80.491c.228-.002.562-.005.965-.003 7.726.02 13.68 1.15 15.901 1.61 15.27 3.153 19.229 8.648 19.469 9.045.779 1.289.647 2.219.647 2.219-.053.373-.167.508-.129.826.098.822 1.002 1.07 1.424 1.61 1 1.277-.195 4.836-2.59 6.436-1.112.743-2.147.797-4.49.87-2.882.09-5.876.15-8.978.174l.086-5.828c.02-1.33-.328-2.513-.95-3.915-1.586-3.578-4.742-5.207-5.482-5.566a11.768 11.768 0 0 0-6-1.131c-.42.032-5.886.533-8.893 5.045-1.253 1.88-1.59 3.707-1.9 5.393a19.349 19.349 0 0 0-.086 6.437l-54.65-.61c.293-1.29.674-3.773-.087-6.697-.343-1.32-1.385-5.079-5.094-7.567-.664-.446-4.238-2.747-8.806-1.828-5.265 1.06-8.666 5.757-9.497 10.091-.439 2.288-.115 4.234.173 5.393a179.6 179.6 0 0 1-9.066-1.827c-4.12-.94-5.609-1.435-6.647-2.87-1.05-1.45-1.242-3.24-1.382-4.61-.197-1.94.056-3.546.296-4.574.678-.448 1.357-.895 2.035-1.341l.13-5.828c-.58-.843-1.188-1.923-.815-2.433.313-.427 1.164-.252 1.93-.18.813.076 2.312-.25 5.31-.902 3.61-.785 5.722-1.542 7.06-1.449.17.012.948.08 2.011-.006 0 0 .349-.026.692-.076 1.956-.282 3.298-1.009 4.23-1.478 1.941-.977 4.048-1.578 6.044-2.436 4.624-1.99 17.675-5.387 32.808-4.262 4.204.312 7.257.876 8.113 1.039 7.07 1.345 12.318 3.516 14.816 4.639a65.2 65.2 0 0 1 11.402 6.59"/>
        <path fill="#A5BBC9" d="M52.536 75.651a45.56 45.56 0 0 1 4.527-2.113c2.158-.866 8.206-3.1 20.015-3.425 4.947-.135 9.51-.26 15.23.721 5.43.932 14.89 3.375 25.282 10.817l.307 1.847-60.922-3.65a6.834 6.834 0 0 1-2.501-1.397 7.115 7.115 0 0 1-1.938-2.8"/>
        <path fill="#3A4952" d="M130.7 111.125c-6.689 0-12.13-5.441-12.13-12.129 0-6.687 5.441-12.129 12.13-12.129 6.688 0 12.128 5.442 12.128 12.13 0 6.687-5.44 12.128-12.129 12.128"/>
        <path fill="#F3F7F9" d="M138.785 98.659a7.749 7.749 0 1 0-15.498 0 7.749 7.749 0 0 0 15.498 0"/>
        <path fill="#F3F7F9" d="M131.036 91.623c-3.875 0-7.028 3.156-7.028 7.036 0 3.88 3.153 7.036 7.028 7.036 3.876 0 7.029-3.156 7.029-7.036 0-3.88-3.153-7.036-7.029-7.036m0 14.785c-4.273 0-7.749-3.476-7.749-7.749s3.476-7.749 7.75-7.749c4.272 0 7.748 3.476 7.748 7.749s-3.476 7.749-7.749 7.749"/>
        <path fill="#3A4952" d="M53.21 111.125c-6.688 0-12.13-5.441-12.13-12.129 0-6.687 5.442-12.129 12.13-12.129 6.688 0 12.129 5.442 12.129 12.13 0 6.687-5.441 12.128-12.13 12.128"/>
        <path fill="#F3F7F9" d="M61.296 98.659a7.749 7.749 0 1 0-15.498 0 7.749 7.749 0 0 0 15.498 0"/>
        <path fill="#F3F7F9" d="M53.547 91.623c-3.876 0-7.03 3.156-7.03 7.036 0 3.88 3.154 7.036 7.03 7.036 3.876 0 7.028-3.156 7.028-7.036 0-3.88-3.152-7.036-7.028-7.036m0 14.785c-4.273 0-7.75-3.476-7.75-7.749s3.477-7.749 7.75-7.749 7.749 3.476 7.749 7.749-3.476 7.749-7.75 7.749"/>
        <path fill="#E4EBF0" stroke="#3A4952" d="M108.933 78.781a21.571 21.571 0 0 1 4.462 2.216c1.354.882 2.629 1.712 2.466 2.333-.265 1.014-4.193.84-4.697.816a16.14 16.14 0 0 1-2.7-.35c.155-1.671.312-3.343.469-5.015"/>
        <path fill="#FFF" stroke="#3A4952" d="M149.93 88.599c1.232.314 2.792.845 4.553 1.916 1.046.636 1.48 1.048 1.821 1.557.055.08.981 1.487.57 2.036-.203.27-.685.27-2.846-.36-2.018-.589-3.028-.883-3.528-1.197-1.935-1.217-3.322-3.55-2.869-4.185.213-.298.909-.121 2.3.233"/>
        <path fill="#A5BBC9" d="M149.566 100.913c.338-.865 1.39-3.2 3.949-4.434 1.12-.54 3.57-1.37 4.46-.416.779.837.259 2.937-1.52 4.954l-6.889-.104"/>
        <path fill="#F9FBFC" d="M58.592 86.115c-.144.406-2.14-.893-5.683-1.037-3.573-.145-5.64 1.01-5.758.6-.145-.498 2.664-3.028 5.94-2.844 3.15.177 5.672 2.8 5.501 3.28M135.41 86.13c-.12.326-1.762-.714-4.681-.83-2.942-.115-4.644.808-4.742.481-.119-.398 2.194-2.422 4.893-2.275 2.593.14 4.67 2.24 4.53 2.625"/>
        <path fill="#FFF" stroke="#3A4952" d="M26.29 82.15c1.277.207 2.767.485 4.42.865 1.887.434 2.85.658 3.807 1.109.967.454 2.44 1.338 3.869 3.131a666.817 666.817 0 0 0-12.13.286l.033-5.39"/>
        <path fill="#A5BBC9" d="M24.235 94.329a28.05 28.05 0 0 1 3.5.01c1.943.128 3.311.21 4.773.851.777.341 1.97 1.018 3.182 2.458l-9.988-.283a5.475 5.475 0 0 1-.961-1.335 4.864 4.864 0 0 1-.506-1.701"/>
        <path fill="#3A4952" d="M76.061 101.143l40.728 1.041c.097-1.633.241-3.302.428-4.962.217-1.917.442-3.379.64-4.669.339-2.21.584-3.808.53-6.062a27.708 27.708 0 0 0-.646-5.285 96.91 96.91 0 0 0-12.609-5.895c-4.561-1.745-9.596-3.262-13.468-4.059-12.188-2.508-24.68-.07-33.027 2.423l-1.864 5.717a131.25 131.25 0 0 1 3.643 5.307c3.1 4.764 4.656 7.153 6.153 9.99.337.638.62 1.193.868 1.683.982 1.933 1.43 2.816 2.651 3.624 1.56 1.032 3.569 1.418 5.973 1.147zm40.893 1.222l-.084-.003-40.801-1.044c-2.435.276-4.483-.12-6.078-1.176-1.259-.833-1.714-1.729-2.71-3.69-.248-.49-.53-1.044-.867-1.681-1.494-2.829-3.048-5.216-6.143-9.972a132.097 132.097 0 0 0-3.666-5.34l-.026-.036 1.92-5.89.044-.014c8.367-2.504 20.91-4.96 33.156-2.44 3.881.8 8.926 2.32 13.496 4.067a96.995 96.995 0 0 1 12.665 5.926l.035.02.009.037c.396 1.79.617 3.593.66 5.358.053 2.27-.193 3.873-.534 6.093a109.725 109.725 0 0 0-.638 4.662 93.744 93.744 0 0 0-.433 5.038l-.005.085z"/>
        <path fill="#3A4952" d="M87.77 101.691l-.142-.028c.665-5.047.635-9.864-.089-14.318-.155-.953-.315-1.733-.501-2.636-.204-.994-.436-2.12-.732-3.81a127.836 127.836 0 0 1-1.427-10.859l.142-.019c.315 3.594.794 7.242 1.425 10.842.295 1.687.527 2.811.73 3.803.187.906.348 1.687.504 2.645.727 4.474.757 9.312.09 14.38"/>
        <path fill="#050706" d="M117.97 80.803l-.073-.128 2.623-.546.072.127z"/>
        <g>
            <path fill="#3A4952" d="M583.215 96.153c.103.818.738 1.425 1.32 1.834a61.23 61.23 0 0 1 3.857 1.689c1.817.87 3.099 1.596 3.266 1.688 1.825 1.006 7.436 1.966 22.771 2.156a8103.92 8103.92 0 0 0 84.211.311l4.947-1.604c1.037-.65 2.13-1.612 2.418-2.98 1.044-4.953-9.038-12.558-17.918-15.47-12.75-4.18-17.14 3.24-34.957 3.896-19.402.714-20.481-7.854-38.475-5.959-15.554 1.639-32.02 9.86-31.44 14.44"/>
            <path fill="#A5BBC9" d="M592.16 76.676a93.838 93.838 0 0 1 15.045-5.192 94.046 94.046 0 0 1 6.651-1.417c2.204-.387 7.356-1.211 14.764-1.418 1.72-.048 9.646.095 16.273.617 14.347 1.13 31.335 10.184 30.433 14.743-1.127 5.692-30.504 5.73-53.692 1.354a154.302 154.302 0 0 1-29.474-8.687"/>
            <path fill="#E4EBF0" stroke="#3A4952" d="M671.307 79.864c.216-.002.534-.004.917-.003 7.338.019 12.992 1.093 15.103 1.529 14.502 2.995 18.263 8.215 18.491 8.591.74 1.224.615 2.107.615 2.107-.05.355-.16.483-.123.786.093.78.952 1.015 1.353 1.528.95 1.214-.185 4.594-2.46 6.114-1.056.706-2.039.757-4.264.826-2.738.085-5.582.143-8.528.165l.082-5.535c.019-1.264-.312-2.387-.902-3.718-1.507-3.4-4.504-4.946-5.207-5.288a11.177 11.177 0 0 0-5.7-1.074c-.399.03-5.59.507-8.446 4.792-1.19 1.787-1.51 3.52-1.804 5.122a18.377 18.377 0 0 0-.082 6.114l-51.908-.578c.279-1.226.642-3.585-.082-6.362-.326-1.253-1.315-4.824-4.838-7.187-.63-.424-4.025-2.609-8.364-1.736-5.001 1.007-8.231 5.467-9.02 9.584-.417 2.173-.11 4.022.164 5.122a170.585 170.585 0 0 1-8.61-1.734c-3.914-.895-5.328-1.364-6.315-2.727-.997-1.377-1.18-3.076-1.312-4.379a13.266 13.266 0 0 1 .281-4.344l1.933-1.274.123-5.535c-.551-.8-1.128-1.826-.774-2.31.297-.406 1.106-.24 1.834-.172.772.072 2.195-.237 5.043-.857 3.429-.745 5.435-1.464 6.705-1.376.162.012.901.077 1.911-.006 0 0 .33-.024.657-.071 1.858-.269 3.132-.959 4.018-1.405 1.843-.928 3.845-1.498 5.74-2.313 4.393-1.89 16.788-5.117 31.161-4.048 3.993.297 6.893.832 7.706.986 6.715 1.278 11.7 3.34 14.072 4.407a61.927 61.927 0 0 1 10.83 6.26"/>
            <path fill="#A5BBC9" d="M606.88 75.267a43.273 43.273 0 0 1 4.3-2.007c2.05-.822 7.794-2.945 19.01-3.253 4.699-.129 9.033-.248 14.466.685 5.158.885 14.141 3.206 24.012 10.273l.292 1.755-57.863-3.467a6.49 6.49 0 0 1-2.376-1.327 6.758 6.758 0 0 1-1.841-2.659"/>
            <path fill="#3A4952" d="M681.12 108.96c-6.352 0-11.52-5.168-11.52-11.52 0-6.352 5.168-11.52 11.52-11.52 6.352 0 11.52 5.168 11.52 11.52 0 6.352-5.168 11.52-11.52 11.52"/>
            <path fill="#F3F7F9" d="M688.8 97.12a7.36 7.36 0 1 0-14.72 0 7.36 7.36 0 0 0 14.72 0"/>
            <path fill="#F3F7F9" d="M681.44 90.437c-3.681 0-6.676 2.998-6.676 6.683 0 3.685 2.995 6.683 6.676 6.683s6.676-2.998 6.676-6.683c0-3.685-2.995-6.683-6.676-6.683m0 14.043c-4.059 0-7.36-3.302-7.36-7.36s3.301-7.36 7.36-7.36c4.058 0 7.36 3.302 7.36 7.36s-3.302 7.36-7.36 7.36"/>
            <path fill="#3A4952" d="M607.52 108.96c-6.352 0-11.52-5.168-11.52-11.52 0-6.352 5.168-11.52 11.52-11.52 6.352 0 11.52 5.168 11.52 11.52 0 6.352-5.168 11.52-11.52 11.52"/>
            <path fill="#F3F7F9" d="M615.2 97.12a7.36 7.36 0 1 0-14.72 0 7.36 7.36 0 0 0 14.72 0"/>
            <path fill="#F3F7F9" d="M607.84 90.437c-3.681 0-6.676 2.998-6.676 6.683 0 3.685 2.995 6.683 6.676 6.683s6.676-2.998 6.676-6.683c0-3.685-2.995-6.683-6.676-6.683m0 14.043c-4.058 0-7.36-3.302-7.36-7.36s3.302-7.36 7.36-7.36c4.059 0 7.36 3.302 7.36 7.36s-3.301 7.36-7.36 7.36"/>
            <path fill="#E4EBF0" stroke="#3A4952" d="M660.446 78.24a20.488 20.488 0 0 1 4.238 2.105c1.287.837 2.497 1.625 2.343 2.215-.252.964-3.983.797-4.462.776a15.33 15.33 0 0 1-2.565-.332l.446-4.764"/>
            <path fill="#FFF" stroke="#3A4952" d="M699.386 87.565a15.53 15.53 0 0 1 4.324 1.82c.993.604 1.406.995 1.73 1.478.051.078.931 1.413.54 1.934-.192.256-.65.257-2.702-.341-1.918-.56-2.876-.84-3.351-1.138-1.838-1.155-3.155-3.372-2.725-3.974.202-.284.863-.115 2.184.221"/>
            <path fill="#A5BBC9" d="M699.04 99.26c.32-.82 1.32-3.039 3.75-4.21 1.063-.513 3.391-1.303 4.236-.395.74.794.246 2.789-1.444 4.705l-6.542-.1"/>
            <path fill="#F9FBFC" d="M612.632 85.206c-.137.385-2.032-.849-5.398-.985-3.393-.138-5.356.958-5.469.57-.137-.473 2.53-2.876 5.643-2.702 2.99.168 5.387 2.659 5.224 3.117M685.594 85.22c-.113.31-1.674-.678-4.446-.788-2.794-.11-4.41.767-4.504.457-.113-.379 2.084-2.301 4.647-2.162 2.463.134 4.437 2.128 4.303 2.493"/>
            <path fill="#FFF" stroke="#3A4952" d="M581.95 81.44a65.23 65.23 0 0 1 4.2.821c1.792.412 2.706.625 3.615 1.053.919.432 2.317 1.272 3.675 2.975a633.345 633.345 0 0 0-11.52.271l.03-5.12"/>
            <path fill="#A5BBC9" d="M580 93.007c.78-.047 1.933-.081 3.324.01 1.845.121 3.145.199 4.533.808.738.324 1.871.967 3.023 2.335l-9.487-.27a5.2 5.2 0 0 1-.913-1.267 4.62 4.62 0 0 1-.48-1.616"/>
            <path fill="#3A4952" d="M629.224 99.479l38.684.99c.092-1.552.229-3.138.407-4.714.206-1.82.419-3.209.607-4.434.322-2.1.555-3.618.504-5.758a26.317 26.317 0 0 0-.614-5.02 92.046 92.046 0 0 0-11.976-5.6c-4.332-1.656-9.114-3.097-12.792-3.854-11.577-2.382-23.44-.067-31.369 2.301l-1.77 5.43a124.662 124.662 0 0 1 3.46 5.04c2.944 4.526 4.421 6.795 5.844 9.489.32.606.588 1.133.825 1.598.932 1.837 1.358 2.675 2.517 3.443 1.481.98 3.39 1.347 5.673 1.089zm38.84 1.161l-.08-.002-38.752-.993c-2.312.263-4.259-.114-5.773-1.116-1.196-.792-1.628-1.642-2.574-3.506-.236-.465-.504-.991-.823-1.596-1.42-2.687-2.895-4.954-5.835-9.471a125.466 125.466 0 0 0-3.482-5.072l-.025-.035 1.824-5.595.042-.012c7.946-2.378 19.86-4.712 31.492-2.317 3.686.759 8.478 2.203 12.818 3.863a92.127 92.127 0 0 1 12.03 5.627l.032.019.009.036c.376 1.7.586 3.413.626 5.089.051 2.155-.183 3.679-.506 5.787-.188 1.224-.401 2.61-.606 4.428-.181 1.6-.32 3.21-.411 4.785l-.005.081z"/>
            <path fill="#3A4952" d="M640.345 100l-.135-.026c.632-4.794.604-9.37-.084-13.6-.147-.905-.3-1.646-.476-2.504-.194-.944-.414-2.013-.695-3.619a121.42 121.42 0 0 1-1.355-10.313l.135-.018a121.39 121.39 0 0 0 1.353 10.297c.28 1.602.5 2.67.694 3.613.177.86.33 1.602.478 2.512.69 4.25.719 8.844.085 13.658"/>
            <path fill="#050706" d="M669.029 80.16l-.069-.12 2.491-.52.069.12z"/>
        </g>
        <path fill="url(#a)" fill-rule="nonzero" d="M365 128h351v43H365z" transform="translate(1)"/>
        <path fill="#E4EBF0" fill-rule="nonzero" d="M161 183h557v43H161z"/>
        <path fill="#135D92" fill-rule="nonzero" d="M161 128h205v43H161z"/>
        <path stroke="#4C5C66" stroke-linecap="square" stroke-width="2" d="M756.5 127.5H7.5"/>
        <g fill="#3A4952" fill-rule="nonzero">
            <path d="M347.652 77.203c-.795.059-1.65.42-2.46 1.048 0 .013-.03-.013-.04 0-4.942 3.722-10.212 7.53-17.37 9.35l-2.214-1.814a.964.964 0 0 0-1.331.08l-5.963 6.126a.964.964 0 0 0 0 1.33l2.135 2.257c.112.112.25.195.403.241.984.355 1.35.689 1.572.968.22.279.344.601.563 1.168.222.567.555 1.319 1.29 2.015.739.697 1.822 1.365 3.506 2.056.358.15.772.07 1.049-.202l20.915-20.15c.01-.013.03-.027.04-.04.623-.54.977-1.25.967-1.975 0-.743-.362-1.417-.927-1.854-.565-.437-1.33-.665-2.136-.604zm4.554 4.997c-.378.053-.73.222-1.007.484l-4.434 4.473c-.04.039-.08.08-.116.121l-9.632 9.632a1.832 1.832 0 1 0 2.579 2.58l8.463-8.464 7.819 7.819a1.838 1.838 0 0 0 2.579-2.62l-7.82-7.778 3.145-3.143a1.832 1.832 0 0 0-1.572-3.104h-.004z"/>
        </g>
        <path fill="#FF9400" fill-rule="nonzero" d="M162.5 23.5a7 7 0 0 1 1.001 13.929l-.001 83.503 5.369-9.544 1.743.98-8.112 14.422-8.112-14.421 1.743-.98 5.369 9.543V37.429a7.002 7.002 0 0 1-5.996-6.688l-.004-.241a7 7 0 0 1 7-7zm0 2a5 5 0 1 0 0 10 5 5 0 0 0 0-10zM366.25 23.5a7 7 0 0 1 1.001 13.929l-.001 83.502 5.369-9.543 1.743.98-8.112 14.422-8.112-14.421 1.743-.98 5.369 9.545V37.429a7.002 7.002 0 0 1-5.996-6.688l-.004-.241a7 7 0 0 1 7-7zm0 2a5 5 0 1 0 0 10 5 5 0 0 0 0-10zM711.25 23.5a7 7 0 0 1 1.001 13.929l-.001 83.502 5.369-9.543 1.743.98-8.112 14.422-8.112-14.421 1.743-.98 5.369 9.545V37.429a7.002 7.002 0 0 1-5.996-6.688l-.004-.241a7 7 0 0 1 7-7zm0 2a5 5 0 1 0 0 10 5 5 0 0 0 0-10z"/>
        <path fill="#EA424C" d="M748.216 97.893c-.115.6-.401 1.015-.847 1.112-.636.138-1.48 1.187-1.826 1.717-.347.53-1.988 2.592-2.243 2.88-.112.128-.209.235-.306.3-.009.113-.029.254-.056.43-.092.615.328.93.605 1.091.278.161.335.841 0 .91-.335.07-.948-.08-1.144-.334-.197-.253-.717-.668-.913-.783-1.387-.853-1.295-1.325-1.468-1.556-.173-.23.96-.956 1.19-1.221a.558.558 0 0 1 .305-.19c.331-.416.977-1.002 1.17-1.359.883-1.803 2.629-3.256 3.345-3.775a1.87 1.87 0 0 1 .139-.91c-.116-.184-.243-.599-.474-1.325a2.668 2.668 0 0 1-.087-1.277 2.978 2.978 0 0 1-1.042-1.216 3.29 3.29 0 0 1-.221-.773c-.73-.207-.997-.671-1.35-.732-.448-.077-1.341-.523-1.758-1.076-.416-.553-1.494-4.731 0-5.361.031-.876.155-1.414.74-1.521.463-.676 1.372-2.397 2.034-2.443.663-.046.632-.092.632-.092s.048-.088.132-.224c-.182.155-.43.263-.764.316-.77.123-.308-.353.155-.753.609-.46.55-1.502.382-2.323-.194-.017-.355-.134-.4-.312-.047-.192-.283-.315-.7-.591-.415-.277-.423-.638-.53-1.099-.109-.46-.047-1.267.261-2.058.308-.791 1.248-1.72 1.703-2.036.455-.315 2.088-.315 2.558-.307.47.008 1.064.307 1.195.4.13.092.5.168.816.268.316.1.332.215.278.315 0 0 .054.284-.062.323-.115.038-.061.054-.13.192a.32.32 0 0 1-.188.166c.047.344.103.828.064.925-.062.153-.216.23-.116.384.1.153.355.522.64.66.285.139.023.415-.046.423-.07.007-.227.092-.171.169.055.077.34.322.101.468.193.046.136.277-.04.384-.175.108.179.308.102.492s-.07.33-.555.492c-.485.161-1.048.092-1.14.89-.054.462-.1.932-.128 1.246l.032.023.029.02a7.757 7.757 0 0 1 .212.16l.005.004.108.085.004.003c.352.284.657.58.816.818.432.645 1.434 1.506 1.434 1.506.015.079.364.446.733.832.359.195.683.37.836.448.381.209 1.407.503 2.463 1.155 1.05.659 2.32 1.499 2.57 1.718.053.048.111.09.17.128.14-.074.286-.155.376-.174.184-.037.624.133 1.096.254.472.12.544.226.328.295-.098.031-.235.039-.37.037.123.06.238.131.33.208l.173.15c.228.014.426.016.48.009.127-.017.138.163.093.282-.016.044-.089.103-.18.161a.56.56 0 0 1 .056.168c.042.27-.166.243-.096.403.07.159.197.62.123.733-.074.111-.246.223-.325.116a6.32 6.32 0 0 0-.86-.772 3.116 3.116 0 0 1-.487-.021c.124.113.44.388.533.593.093.209-.058.224-.506-.063-.447-.287-.907-.526-.999-.693-.04-.072-.064-.208-.089-.345-.118-.17-.4-.333-.713-.372-.314-.04-1.699-.451-2.81-.896-1.11-.444-1.891-1.127-2.261-1.33a49.84 49.84 0 0 1-.969-.558l-.336-.082c.075 1.064.186 3.177.086 3.788.104-.127.22.31.139.484-.081.173-.077.357-.056.668.02.311.11.818.083 1.037-.027.219-.192.392-.08 1.048.11.657.434 3.296.584 4.08.15.783.231 3.813.382 4.355.15.541.069 1.152 0 1.59-.052.325.379 1.535.594 2.316l.007-.012c.162-.288.762.6 1.167.818.405.22 1.063.323 1.815.392.75.07.29.875 0 1.152-.856.819-1.873.76-2.445.703-.572-.057-1.15.093-2.144 0-.994-.092-.624-1.025-.659-1.51a.24.24 0 0 1 .03-.148c-.636-.664-.859-3.121-.873-3.15-.013-.025-.091-2.085-.47-3.92"/>
        <g>
            <path fill="#3A4952" d="M126.543 1.13h1.694V11h-1.358l-5.292-6.888V11h-1.68V1.13h1.344l5.292 6.874V1.13zm6.64 9.982c-.7 0-1.314-.145-1.841-.434a3.003 3.003 0 0 1-1.225-1.246c-.29-.541-.434-1.171-.434-1.89 0-.719.145-1.346.434-1.883.29-.537.698-.95 1.225-1.239.527-.29 1.141-.434 1.841-.434s1.314.145 1.841.434c.527.29.933.702 1.218 1.239.285.537.427 1.164.427 1.883 0 .719-.142 1.349-.427 1.89a2.96 2.96 0 0 1-1.218 1.246c-.527.29-1.141.434-1.841.434zm-.014-1.358c.57 0 1.003-.187 1.302-.56.299-.373.448-.924.448-1.652 0-.719-.15-1.267-.448-1.645-.299-.378-.728-.567-1.288-.567s-.992.189-1.295.567c-.303.378-.455.926-.455 1.645 0 .728.15 1.279.448 1.652.299.373.728.56 1.288.56zm8.25.042c.205 0 .42-.014.644-.042l-.084 1.302c-.28.028-.537.042-.77.042-.961 0-1.67-.222-2.128-.665-.457-.443-.686-1.104-.686-1.981V5.47h-1.316V4.154h1.316V2.11h1.75v2.044h1.806V5.47h-1.806v2.954c0 .915.425 1.372 1.274 1.372zM142.935 11V4.154h1.75V11h-1.75zM142.837.976h1.932v1.722h-1.932V.976zm6.626 10.136c-.719 0-1.342-.145-1.869-.434-.527-.29-.931-.7-1.211-1.232s-.42-1.153-.42-1.862c0-.71.147-1.337.441-1.883a3.092 3.092 0 0 1 1.253-1.267c.541-.299 1.167-.448 1.876-.448.485 0 .959.077 1.421.231.462.154.833.362 1.113.623l-.504 1.232a3.327 3.327 0 0 0-.917-.532 2.705 2.705 0 0 0-.959-.182c-.607 0-1.078.189-1.414.567-.336.378-.504.922-.504 1.631 0 .7.168 1.239.504 1.617.336.378.807.567 1.414.567.317 0 .637-.06.959-.182.322-.121.628-.299.917-.532l.504 1.218c-.299.27-.681.483-1.148.637a4.616 4.616 0 0 1-1.456.231zm9.566-3.22h-4.662c.056.635.247 1.106.574 1.414.327.308.793.462 1.4.462.756 0 1.447-.243 2.072-.728l.504 1.204c-.317.261-.716.471-1.197.63-.48.159-.964.238-1.449.238-1.12 0-2.004-.317-2.653-.952s-.973-1.503-.973-2.604c0-.7.14-1.32.42-1.862.28-.541.674-.961 1.183-1.26.509-.299 1.085-.448 1.729-.448.943 0 1.687.303 2.233.91s.819 1.442.819 2.506v.49zm-3.01-2.674c-.467 0-.842.15-1.127.448-.285.299-.46.728-.525 1.288h3.164c-.019-.57-.159-1.001-.42-1.295-.261-.294-.625-.441-1.092-.441zm11.908-1.232c.821 0 1.433.233 1.834.7.401.467.602 1.171.602 2.114V11h-1.75V6.898c0-.532-.1-.92-.301-1.162-.2-.243-.516-.364-.945-.364-.504 0-.908.159-1.211.476-.303.317-.455.742-.455 1.274V11h-1.75V1.13h1.75v3.976c.233-.364.544-.642.931-.833a2.884 2.884 0 0 1 1.295-.287zm7.004 0c.961 0 1.675.233 2.142.7.467.467.7 1.185.7 2.156V11h-1.666V9.95a1.827 1.827 0 0 1-.749.854c-.34.205-.735.308-1.183.308-.457 0-.873-.093-1.246-.28a2.217 2.217 0 0 1-.882-.77 1.946 1.946 0 0 1-.322-1.092c0-.504.128-.9.385-1.19.257-.29.674-.5 1.253-.63.514-.116 1.202-.18 2.063-.194l.681-.002v-.322c0-.467-.1-.803-.301-1.008-.2-.205-.534-.308-1.001-.308-.364 0-.744.063-1.141.189a5.77 5.77 0 0 0-1.169.525l-.49-1.204a5.436 5.436 0 0 1 1.386-.602 5.48 5.48 0 0 1 1.54-.238zm-.406 5.866c.467 0 .847-.156 1.141-.469.294-.313.441-.716.441-1.211v-.294h-.252c-.625 0-1.11.028-1.456.084-.345.056-.593.154-.742.294-.15.14-.224.331-.224.574a.96.96 0 0 0 .308.735c.205.191.467.287.784.287zm6.696-.168h3.892V11h-5.964V9.782l3.724-4.312h-3.654V4.154h5.754v1.19l-3.752 4.34zm8.04-5.698c.961 0 1.675.233 2.142.7.467.467.7 1.185.7 2.156V11h-1.666V9.95a1.827 1.827 0 0 1-.749.854c-.34.205-.735.308-1.183.308-.457 0-.873-.093-1.246-.28a2.217 2.217 0 0 1-.882-.77 1.946 1.946 0 0 1-.322-1.092c0-.504.128-.9.385-1.19.257-.29.674-.5 1.253-.63.514-.116 1.202-.18 2.063-.194l.681-.002v-.322c0-.467-.1-.803-.301-1.008-.2-.205-.534-.308-1.001-.308-.364 0-.744.063-1.141.189a5.77 5.77 0 0 0-1.169.525l-.49-1.204a5.436 5.436 0 0 1 1.386-.602 5.48 5.48 0 0 1 1.54-.238zm-.406 5.866c.467 0 .847-.156 1.141-.469.294-.313.441-.716.441-1.211v-.294h-.252c-.625 0-1.11.028-1.456.084-.345.056-.593.154-.742.294-.15.14-.224.331-.224.574a.96.96 0 0 0 .308.735c.205.191.467.287.784.287zm9.384-4.41l-1.022.098c-1.157.121-1.736.71-1.736 1.764V11h-1.75V4.154h1.666v1.204c.331-.767.991-1.208 1.98-1.324l.75-.062.112 1.47zm7.172-4.312V11h-1.736V9.894a2.192 2.192 0 0 1-.889.896 2.683 2.683 0 0 1-1.323.322c-.588 0-1.113-.15-1.575-.448-.462-.299-.821-.721-1.078-1.267-.257-.546-.385-1.174-.385-1.883 0-.71.128-1.33.385-1.862a2.916 2.916 0 0 1 1.071-1.232c.457-.29.985-.434 1.582-.434.495 0 .933.103 1.316.308.383.205.677.495.882.868V1.13h1.75zm-3.486 8.624c-.55 0-.98-.196-1.288-.588-.308-.392-.462-.943-.462-1.652 0-.7.154-1.237.462-1.61.308-.373.742-.56 1.302-.56.55 0 .978.189 1.281.567.303.378.455.922.455 1.631 0 .71-.152 1.255-.455 1.638-.303.383-.735.574-1.295.574z"/>
            <path fill="#FFF" fill-rule="nonzero" d="M202.576 154h-1.96l-1.694-3.15c-.159-.299-.355-.509-.588-.63-.233-.121-.527-.182-.882-.182h-1.372V154h-1.778v-9.87h4.368c1.12 0 1.972.25 2.555.749.583.5.875 1.22.875 2.163 0 .756-.212 1.379-.637 1.869-.425.49-1.024.81-1.799.959.523.14.943.509 1.26 1.106l1.652 3.024zm-4.158-5.348c.681 0 1.18-.128 1.498-.385.317-.257.476-.651.476-1.183 0-.541-.159-.936-.476-1.183-.317-.247-.817-.371-1.498-.371h-2.352v3.122h2.352zm5.464 5.348v-9.87h6.608v1.428h-4.844v2.716h4.564v1.414h-4.564v2.884h4.844V154h-6.608zm15.474 0l-.994-2.31h-4.802l-.994 2.31h-1.82l4.466-9.87h1.47l4.466 9.87h-1.792zm-5.208-3.71h3.612l-1.806-4.2-1.806 4.2zm12.072 3.836c-.97 0-1.818-.208-2.541-.623a4.158 4.158 0 0 1-1.666-1.771c-.387-.765-.581-1.657-.581-2.674s.194-1.906.581-2.667a4.167 4.167 0 0 1 1.666-1.764c.723-.415 1.57-.623 2.541-.623a5.65 5.65 0 0 1 1.876.308 4.158 4.158 0 0 1 1.484.868l-.602 1.316a4.945 4.945 0 0 0-1.33-.777 3.98 3.98 0 0 0-1.4-.245c-.952 0-1.687.308-2.205.924-.518.616-.777 1.503-.777 2.66 0 1.167.259 2.058.777 2.674.518.616 1.253.924 2.205.924a3.98 3.98 0 0 0 1.4-.245 4.945 4.945 0 0 0 1.33-.777l.602 1.316a4.158 4.158 0 0 1-1.484.868 5.65 5.65 0 0 1-1.876.308zm7.046-.126v-8.386h-3.22v-1.484h8.246v1.484h-3.22V154h-1.806zm6.108 0v-9.87h1.806V154h-1.806zm8.18.126c-.961 0-1.794-.205-2.499-.616a4.12 4.12 0 0 1-1.631-1.764c-.383-.765-.574-1.661-.574-2.688 0-1.027.189-1.92.567-2.681a4.073 4.073 0 0 1 1.631-1.757c.71-.41 1.545-.616 2.506-.616.961 0 1.794.205 2.499.616.705.41 1.246.996 1.624 1.757.378.76.567 1.654.567 2.681 0 1.027-.191 1.923-.574 2.688a4.12 4.12 0 0 1-1.631 1.764c-.705.41-1.533.616-2.485.616zm0-1.442c.905 0 1.612-.313 2.121-.938.509-.625.763-1.521.763-2.688 0-1.167-.254-2.06-.763-2.681-.509-.62-1.216-.931-2.121-.931-.915 0-1.626.31-2.135.931-.509.62-.763 1.514-.763 2.681s.254 2.063.763 2.688 1.22.938 2.135.938zm12.996-8.554h1.694V154h-1.358l-5.292-6.888V154h-1.68v-9.87h1.344l5.292 6.874v-6.874zm7.316 0h3.64c1.615 0 2.868.432 3.759 1.295s1.337 2.074 1.337 3.633c0 1.559-.446 2.772-1.337 3.64-.891.868-2.144 1.302-3.759 1.302h-3.64v-9.87zm3.528 8.4c2.268 0 3.402-1.157 3.402-3.472 0-2.305-1.134-3.458-3.402-3.458h-1.722v6.93h1.722zm6.878 1.47v-9.87h1.806V154h-1.806zm7.13.126a7.153 7.153 0 0 1-2.128-.308c-.663-.205-1.223-.495-1.68-.868l.602-1.316c.476.364.978.63 1.505.798a5.622 5.622 0 0 0 1.715.252c.681 0 1.206-.119 1.575-.357s.553-.572.553-1.001c0-.373-.17-.658-.511-.854-.303-.174-.784-.341-1.445-.5l-.256-.06c-.821-.177-1.489-.383-2.002-.616-.513-.233-.9-.532-1.162-.896-.261-.364-.392-.826-.392-1.386 0-.579.159-1.097.476-1.554.317-.457.765-.814 1.344-1.071.579-.257 1.246-.385 2.002-.385.69 0 1.349.105 1.974.315.625.21 1.139.497 1.54.861l-.602 1.316c-.877-.7-1.848-1.05-2.912-1.05-.635 0-1.136.128-1.505.385s-.553.614-.553 1.071c0 .383.163.677.49.882.29.183.761.354 1.413.514l.253.06c.83.187 1.505.394 2.023.623.518.229.915.52 1.19.875.275.355.413.803.413 1.344 0 .588-.156 1.104-.469 1.547-.313.443-.765.784-1.358 1.022-.593.238-1.29.357-2.093.357zm7.55-.126v-8.386h-3.22v-1.484h8.246v1.484h-3.22V154h-1.806zm12.436 0l-.994-2.31h-4.802l-.994 2.31h-1.82l4.466-9.87h1.47l4.466 9.87h-1.792zm-5.208-3.71h3.612l-1.806-4.2-1.806 4.2zm14.536-6.16h1.694V154h-1.358l-5.292-6.888V154h-1.68v-9.87h1.344l5.292 6.874v-6.874zm8.152 9.996c-.97 0-1.818-.208-2.541-.623a4.158 4.158 0 0 1-1.666-1.771c-.387-.765-.581-1.657-.581-2.674s.194-1.906.581-2.667a4.167 4.167 0 0 1 1.666-1.764c.723-.415 1.57-.623 2.541-.623a5.65 5.65 0 0 1 1.876.308 4.158 4.158 0 0 1 1.484.868l-.602 1.316a4.945 4.945 0 0 0-1.33-.777 3.98 3.98 0 0 0-1.4-.245c-.952 0-1.687.308-2.205.924-.518.616-.777 1.503-.777 2.66 0 1.167.259 2.058.777 2.674.518.616 1.253.924 2.205.924a3.98 3.98 0 0 0 1.4-.245 4.945 4.945 0 0 0 1.33-.777l.602 1.316a4.158 4.158 0 0 1-1.484.868 5.65 5.65 0 0 1-1.876.308zm4.862-.126v-9.87h6.608v1.428h-4.844v2.716h4.564v1.414h-4.564v2.884h4.844V154h-6.608z"/>
            <path fill="#4C5C66" fill-rule="nonzero" d="M390.477 209.126a7.153 7.153 0 0 1-2.128-.308c-.663-.205-1.223-.495-1.68-.868l.602-1.316c.476.364.978.63 1.505.798a5.622 5.622 0 0 0 1.715.252c.681 0 1.206-.119 1.575-.357s.553-.572.553-1.001c0-.373-.17-.658-.511-.854-.303-.174-.784-.341-1.445-.5l-.256-.06c-.821-.177-1.489-.383-2.002-.616-.513-.233-.9-.532-1.162-.896-.261-.364-.392-.826-.392-1.386 0-.579.159-1.097.476-1.554.317-.457.765-.814 1.344-1.071.579-.257 1.246-.385 2.002-.385.69 0 1.349.105 1.974.315.625.21 1.139.497 1.54.861l-.602 1.316c-.877-.7-1.848-1.05-2.912-1.05-.635 0-1.136.128-1.505.385s-.553.614-.553 1.071c0 .383.163.677.49.882.29.183.761.354 1.413.514l.253.06c.83.187 1.505.394 2.023.623.518.229.915.52 1.19.875.275.355.413.803.413 1.344 0 .588-.156 1.104-.469 1.547-.313.443-.765.784-1.358 1.022-.593.238-1.29.357-2.093.357zm7.55-.126v-8.386h-3.22v-1.484h8.246v1.484h-3.22V209h-1.806zm9.916.126c-.961 0-1.794-.205-2.499-.616a4.12 4.12 0 0 1-1.631-1.764c-.383-.765-.574-1.661-.574-2.688 0-1.027.189-1.92.567-2.681a4.073 4.073 0 0 1 1.631-1.757c.71-.41 1.545-.616 2.506-.616.961 0 1.794.205 2.499.616.705.41 1.246.996 1.624 1.757.378.76.567 1.654.567 2.681 0 1.027-.191 1.923-.574 2.688a4.12 4.12 0 0 1-1.631 1.764c-.705.41-1.533.616-2.485.616zm0-1.442c.905 0 1.612-.313 2.121-.938.509-.625.763-1.521.763-2.688 0-1.167-.254-2.06-.763-2.681-.509-.62-1.216-.931-2.121-.931-.915 0-1.626.31-2.135.931-.509.62-.763 1.514-.763 2.681s.254 2.063.763 2.688 1.22.938 2.135.938zm6.36-8.554h4.312c1.055 0 1.876.264 2.464.791.588.527.882 1.267.882 2.219s-.294 1.694-.882 2.226c-.588.532-1.41.798-2.464.798h-2.506V209h-1.806v-9.87zm4.088 4.648c1.241 0 1.862-.541 1.862-1.624 0-.55-.154-.959-.462-1.225-.308-.266-.775-.399-1.4-.399h-2.282v3.248h2.282zm8.646-4.648h3.64c1.615 0 2.868.432 3.759 1.295s1.337 2.074 1.337 3.633c0 1.559-.446 2.772-1.337 3.64-.891.868-2.144 1.302-3.759 1.302h-3.64v-9.87zm3.528 8.4c2.268 0 3.402-1.157 3.402-3.472 0-2.305-1.134-3.458-3.402-3.458h-1.722v6.93h1.722zm6.878 1.47v-9.87h1.806V209h-1.806zm7.13.126a7.153 7.153 0 0 1-2.128-.308c-.663-.205-1.223-.495-1.68-.868l.602-1.316c.476.364.978.63 1.505.798a5.622 5.622 0 0 0 1.715.252c.681 0 1.206-.119 1.575-.357s.553-.572.553-1.001c0-.373-.17-.658-.511-.854-.303-.174-.784-.341-1.445-.5l-.256-.06c-.821-.177-1.489-.383-2.002-.616-.513-.233-.9-.532-1.162-.896-.261-.364-.392-.826-.392-1.386 0-.579.159-1.097.476-1.554.317-.457.765-.814 1.344-1.071.579-.257 1.246-.385 2.002-.385.69 0 1.349.105 1.974.315.625.21 1.139.497 1.54.861l-.602 1.316c-.877-.7-1.848-1.05-2.912-1.05-.635 0-1.136.128-1.505.385s-.553.614-.553 1.071c0 .383.163.677.49.882.29.183.761.354 1.413.514l.253.06c.83.187 1.505.394 2.023.623.518.229.915.52 1.19.875.275.355.413.803.413 1.344 0 .588-.156 1.104-.469 1.547-.313.443-.765.784-1.358 1.022-.593.238-1.29.357-2.093.357zm7.55-.126v-8.386h-3.22v-1.484h8.246v1.484h-3.22V209h-1.806zm12.436 0l-.994-2.31h-4.802l-.994 2.31h-1.82l4.466-9.87h1.47l4.466 9.87h-1.792zm-5.208-3.71h3.612l-1.806-4.2-1.806 4.2zm14.536-6.16h1.694V209h-1.358l-5.292-6.888V209h-1.68v-9.87h1.344l5.292 6.874v-6.874zm8.152 9.996c-.97 0-1.818-.208-2.541-.623a4.158 4.158 0 0 1-1.666-1.771c-.387-.765-.581-1.657-.581-2.674s.194-1.906.581-2.667a4.167 4.167 0 0 1 1.666-1.764c.723-.415 1.57-.623 2.541-.623a5.65 5.65 0 0 1 1.876.308 4.158 4.158 0 0 1 1.484.868l-.602 1.316a4.945 4.945 0 0 0-1.33-.777 3.98 3.98 0 0 0-1.4-.245c-.952 0-1.687.308-2.205.924-.518.616-.777 1.503-.777 2.66 0 1.167.259 2.058.777 2.674.518.616 1.253.924 2.205.924a3.98 3.98 0 0 0 1.4-.245 4.945 4.945 0 0 0 1.33-.777l.602 1.316a4.158 4.158 0 0 1-1.484.868 5.65 5.65 0 0 1-1.876.308zm4.862-.126v-9.87h6.608v1.428h-4.844v2.716h4.564v1.414h-4.564v2.884h4.844V209h-6.608z"/>
            <path fill="#9B242E" fill-rule="nonzero" d="M478.112 148.904c.57.159 1.01.448 1.323.868.313.42.469.933.469 1.54 0 .84-.301 1.498-.903 1.974-.602.476-1.43.714-2.485.714h-4.48v-9.87h4.34c1.027 0 1.832.226 2.415.679.583.453.875 1.085.875 1.897 0 .523-.138.975-.413 1.358a2.362 2.362 0 0 1-1.141.84zm-4.312-.616h2.282c1.241 0 1.862-.462 1.862-1.386 0-.467-.154-.812-.462-1.036-.308-.224-.775-.336-1.4-.336H473.8v2.758zm2.52 4.312c.653 0 1.13-.117 1.428-.35.299-.233.448-.597.448-1.092 0-.495-.152-.863-.455-1.106-.303-.243-.777-.364-1.421-.364h-2.52v2.912h2.52zm13.402 1.4h-1.96l-1.694-3.15c-.159-.299-.355-.509-.588-.63-.233-.121-.527-.182-.882-.182h-1.372V154h-1.778v-9.87h4.368c1.12 0 1.972.25 2.555.749.583.5.875 1.22.875 2.163 0 .756-.212 1.379-.637 1.869-.425.49-1.024.81-1.799.959.523.14.943.509 1.26 1.106l1.652 3.024zm-4.158-5.348c.681 0 1.18-.128 1.498-.385.317-.257.476-.651.476-1.183 0-.541-.159-.936-.476-1.183-.317-.247-.817-.371-1.498-.371h-2.352v3.122h2.352zm5.464 5.348v-9.87h6.608v1.428h-4.844v2.716h4.564v1.414h-4.564v2.884h4.844V154h-6.608zm15.474 0l-.994-2.31h-4.802l-.994 2.31h-1.82l4.466-9.87h1.47l4.466 9.87h-1.792zm-5.208-3.71h3.612l-1.806-4.2-1.806 4.2zm16.482 3.71h-2.198L511 149.408V154h-1.806v-9.87H511v4.41l4.396-4.41h2.156l-4.774 4.746 4.998 5.124zm.508 0v-9.87h1.806V154h-1.806zm10.42-9.87h1.694V154h-1.358l-5.292-6.888V154h-1.68v-9.87h1.344l5.292 6.874v-6.874zm11.904 4.536v4.732c-.448.224-.992.401-1.631.532-.64.13-1.29.196-1.953.196-1.017 0-1.9-.203-2.646-.609a4.11 4.11 0 0 1-1.715-1.75c-.397-.76-.595-1.664-.595-2.709 0-1.036.198-1.934.595-2.695a4.143 4.143 0 0 1 1.694-1.75c.733-.406 1.594-.609 2.583-.609.69 0 1.34.1 1.946.301.607.2 1.11.488 1.512.861l-.602 1.302c-.457-.355-.908-.609-1.351-.763a4.433 4.433 0 0 0-1.463-.231c-1.017 0-1.785.301-2.303.903-.518.602-.777 1.496-.777 2.681 0 2.427 1.064 3.64 3.192 3.64.635 0 1.27-.089 1.904-.266v-2.478h-2.128v-1.288h3.738zm5.524-4.536h3.64c1.615 0 2.868.432 3.759 1.295s1.337 2.074 1.337 3.633c0 1.559-.446 2.772-1.337 3.64-.891.868-2.144 1.302-3.759 1.302h-3.64v-9.87zm3.528 8.4c2.268 0 3.402-1.157 3.402-3.472 0-2.305-1.134-3.458-3.402-3.458h-1.722v6.93h1.722zm6.878 1.47v-9.87h1.806V154h-1.806zm7.13.126a7.153 7.153 0 0 1-2.128-.308c-.663-.205-1.223-.495-1.68-.868l.602-1.316c.476.364.978.63 1.505.798a5.622 5.622 0 0 0 1.715.252c.681 0 1.206-.119 1.575-.357s.553-.572.553-1.001c0-.373-.17-.658-.511-.854-.303-.174-.784-.341-1.445-.5l-.256-.06c-.821-.177-1.489-.383-2.002-.616-.513-.233-.9-.532-1.162-.896-.261-.364-.392-.826-.392-1.386 0-.579.159-1.097.476-1.554.317-.457.765-.814 1.344-1.071.579-.257 1.246-.385 2.002-.385.69 0 1.349.105 1.974.315.625.21 1.139.497 1.54.861l-.602 1.316c-.877-.7-1.848-1.05-2.912-1.05-.635 0-1.136.128-1.505.385s-.553.614-.553 1.071c0 .383.163.677.49.882.29.183.761.354 1.413.514l.253.06c.83.187 1.505.394 2.023.623.518.229.915.52 1.19.875.275.355.413.803.413 1.344 0 .588-.156 1.104-.469 1.547-.313.443-.765.784-1.358 1.022-.593.238-1.29.357-2.093.357zm7.55-.126v-8.386h-3.22v-1.484h8.246v1.484h-3.22V154h-1.806zm12.436 0l-.994-2.31h-4.802l-.994 2.31h-1.82l4.466-9.87h1.47l4.466 9.87h-1.792zm-5.208-3.71h3.612l-1.806-4.2-1.806 4.2zm14.536-6.16h1.694V154h-1.358l-5.292-6.888V154h-1.68v-9.87h1.344l5.292 6.874v-6.874zm8.152 9.996c-.97 0-1.818-.208-2.541-.623a4.158 4.158 0 0 1-1.666-1.771c-.387-.765-.581-1.657-.581-2.674s.194-1.906.581-2.667a4.167 4.167 0 0 1 1.666-1.764c.723-.415 1.57-.623 2.541-.623a5.65 5.65 0 0 1 1.876.308 4.158 4.158 0 0 1 1.484.868l-.602 1.316a4.945 4.945 0 0 0-1.33-.777 3.98 3.98 0 0 0-1.4-.245c-.952 0-1.687.308-2.205.924-.518.616-.777 1.503-.777 2.66 0 1.167.259 2.058.777 2.674.518.616 1.253.924 2.205.924a3.98 3.98 0 0 0 1.4-.245 4.945 4.945 0 0 0 1.33-.777l.602 1.316a4.158 4.158 0 0 1-1.484.868 5.65 5.65 0 0 1-1.876.308zm4.862-.126v-9.87h6.608v1.428h-4.844v2.716h4.564v1.414h-4.564v2.884h4.844V154h-6.608z"/>
            <path fill="#3A4952" fill-rule="nonzero" d="M336.903 11l-.994-2.31h-4.802l-.994 2.31h-1.82l4.466-9.87h1.47l4.466 9.87h-1.792zm-5.208-3.71h3.612l-1.806-4.2-1.806 4.2zm11.68-3.304c.588 0 1.113.15 1.575.448.462.299.821.721 1.078 1.267.257.546.385 1.174.385 1.883 0 .71-.128 1.33-.385 1.862a2.916 2.916 0 0 1-1.071 1.232c-.457.29-.985.434-1.582.434a2.71 2.71 0 0 1-1.302-.308 2.161 2.161 0 0 1-.882-.854v3.57h-1.75V4.154h1.722V5.19c.205-.383.502-.679.889-.889a2.73 2.73 0 0 1 1.323-.315zm-.462 5.768c.55 0 .98-.189 1.288-.567.308-.378.462-.912.462-1.603 0-.71-.154-1.26-.462-1.652-.308-.392-.737-.588-1.288-.588-.56 0-.992.191-1.295.574-.303.383-.455.929-.455 1.638 0 .7.152 1.241.455 1.624.303.383.735.574 1.295.574zm8.726-5.768c.588 0 1.113.15 1.575.448.462.299.821.721 1.078 1.267.257.546.385 1.174.385 1.883 0 .71-.128 1.33-.385 1.862a2.916 2.916 0 0 1-1.071 1.232c-.457.29-.985.434-1.582.434a2.71 2.71 0 0 1-1.302-.308 2.161 2.161 0 0 1-.882-.854v3.57h-1.75V4.154h1.722V5.19c.205-.383.502-.679.889-.889a2.73 2.73 0 0 1 1.323-.315zm-.462 5.768c.55 0 .98-.189 1.288-.567.308-.378.462-.912.462-1.603 0-.71-.154-1.26-.462-1.652-.308-.392-.737-.588-1.288-.588-.56 0-.992.191-1.295.574-.303.383-.455.929-.455 1.638 0 .7.152 1.241.455 1.624.303.383.735.574 1.295.574zM355.969 11V1.13h1.75V11h-1.75zm8.208-6.832h1.722l-4.116 9.352h-1.764l1.246-2.786-2.856-6.566h1.848l1.932 4.83 1.988-4.83zm9.99-.182c.597 0 1.125.145 1.582.434.457.29.814.7 1.071 1.232s.385 1.153.385 1.862c0 .71-.128 1.337-.385 1.883s-.616.968-1.078 1.267a2.837 2.837 0 0 1-1.575.448c-.495 0-.936-.107-1.323-.322a2.192 2.192 0 0 1-.889-.896V11h-1.722V1.13h1.75v4.018c.205-.373.5-.66.882-.861.383-.2.817-.301 1.302-.301zm-.462 5.768c.55 0 .98-.196 1.288-.588.308-.392.462-.943.462-1.652 0-.7-.152-1.237-.455-1.61-.303-.373-.735-.56-1.295-.56-.56 0-.992.189-1.295.567-.303.378-.455.922-.455 1.631 0 .71.152 1.255.455 1.638.303.383.735.574 1.295.574zm9.3-4.312l-1.022.098c-1.157.121-1.736.71-1.736 1.764V11h-1.75V4.154h1.666v1.204c.331-.767.991-1.208 1.98-1.324l.75-.062.112 1.47zm6.57 2.45h-4.662c.056.635.247 1.106.574 1.414.327.308.793.462 1.4.462.756 0 1.447-.243 2.072-.728l.504 1.204c-.317.261-.716.471-1.197.63-.48.159-.964.238-1.449.238-1.12 0-2.004-.317-2.653-.952s-.973-1.503-.973-2.604c0-.7.14-1.32.42-1.862.28-.541.674-.961 1.183-1.26.509-.299 1.085-.448 1.729-.448.943 0 1.687.303 2.233.91s.819 1.442.819 2.506v.49zm-3.01-2.674c-.467 0-.842.15-1.127.448-.285.299-.46.728-.525 1.288h3.164c-.019-.57-.159-1.001-.42-1.295-.261-.294-.625-.441-1.092-.441zm7.228-1.232c.961 0 1.675.233 2.142.7.467.467.7 1.185.7 2.156V11h-1.666V9.95a1.827 1.827 0 0 1-.749.854c-.34.205-.735.308-1.183.308-.457 0-.873-.093-1.246-.28a2.217 2.217 0 0 1-.882-.77 1.946 1.946 0 0 1-.322-1.092c0-.504.128-.9.385-1.19.257-.29.674-.5 1.253-.63.514-.116 1.202-.18 2.063-.194l.681-.002v-.322c0-.467-.1-.803-.301-1.008-.2-.205-.534-.308-1.001-.308-.364 0-.744.063-1.141.189a5.77 5.77 0 0 0-1.169.525l-.49-1.204a5.436 5.436 0 0 1 1.386-.602 5.48 5.48 0 0 1 1.54-.238zm-.406 5.866c.467 0 .847-.156 1.141-.469.294-.313.441-.716.441-1.211v-.294h-.252c-.625 0-1.11.028-1.456.084-.345.056-.593.154-.742.294-.15.14-.224.331-.224.574a.96.96 0 0 0 .308.735c.205.191.467.287.784.287zM405.123 11h-2.17l-2.94-3.122V11h-1.75V1.13h1.75v6.02l2.758-2.982h2.128l-3.08 3.276L405.123 11zM688.115 11.126c-.97 0-1.818-.208-2.541-.623a4.158 4.158 0 0 1-1.666-1.771c-.387-.765-.581-1.657-.581-2.674s.194-1.906.581-2.667a4.167 4.167 0 0 1 1.666-1.764c.723-.415 1.57-.623 2.541-.623a5.65 5.65 0 0 1 1.876.308 4.158 4.158 0 0 1 1.484.868l-.602 1.316a4.945 4.945 0 0 0-1.33-.777 3.98 3.98 0 0 0-1.4-.245c-.952 0-1.687.308-2.205.924-.518.616-.777 1.503-.777 2.66 0 1.167.259 2.058.777 2.674.518.616 1.253.924 2.205.924a3.98 3.98 0 0 0 1.4-.245 4.945 4.945 0 0 0 1.33-.777l.602 1.316a4.158 4.158 0 0 1-1.484.868 5.65 5.65 0 0 1-1.876.308zm7.508-7.14c.961 0 1.675.233 2.142.7.467.467.7 1.185.7 2.156V11h-1.666V9.95a1.827 1.827 0 0 1-.749.854c-.34.205-.735.308-1.183.308-.457 0-.873-.093-1.246-.28a2.217 2.217 0 0 1-.882-.77 1.946 1.946 0 0 1-.322-1.092c0-.504.128-.9.385-1.19.257-.29.674-.5 1.253-.63.514-.116 1.202-.18 2.063-.194l.681-.002v-.322c0-.467-.1-.803-.301-1.008-.2-.205-.534-.308-1.001-.308-.364 0-.744.063-1.141.189a5.77 5.77 0 0 0-1.169.525l-.49-1.204a5.436 5.436 0 0 1 1.386-.602 5.48 5.48 0 0 1 1.54-.238zm-.406 5.866c.467 0 .847-.156 1.141-.469.294-.313.441-.716.441-1.211v-.294h-.252c-.625 0-1.11.028-1.456.084-.345.056-.593.154-.742.294-.15.14-.224.331-.224.574a.96.96 0 0 0 .308.735c.205.191.467.287.784.287zm9.384-4.41l-1.022.098c-1.157.121-1.736.71-1.736 1.764V11h-1.75V4.154h1.666v1.204c.331-.767.991-1.208 1.98-1.324l.75-.062.112 1.47zm6.868 5.67a5.921 5.921 0 0 1-1.673-.224 3.786 3.786 0 0 1-1.295-.644l.49-1.218c.728.532 1.563.798 2.506.798.401 0 .707-.065.917-.196a.623.623 0 0 0 .315-.56.567.567 0 0 0-.217-.476c-.145-.112-.404-.215-.777-.308l-1.12-.252c-.635-.14-1.106-.369-1.414-.686-.308-.317-.462-.728-.462-1.232 0-.42.119-.791.357-1.113.238-.322.57-.572.994-.749.425-.177.917-.266 1.477-.266.485 0 .954.075 1.407.224.453.15.852.36 1.197.63l-.49 1.19c-.71-.513-1.419-.77-2.128-.77-.383 0-.681.07-.896.21a.664.664 0 0 0-.322.588c0 .187.068.34.203.462.135.121.352.215.651.28l1.162.266c.681.15 1.18.385 1.498.707.317.322.476.744.476 1.267 0 .635-.257 1.139-.77 1.512s-1.209.56-2.086.56zm7.55-1.316c.205 0 .42-.014.644-.042l-.084 1.302c-.28.028-.537.042-.77.042-.961 0-1.67-.222-2.128-.665-.457-.443-.686-1.104-.686-1.981V5.47h-1.316V4.154h1.316V2.11h1.75v2.044h1.806V5.47h-1.806v2.954c0 .915.425 1.372 1.274 1.372zm4.638 1.316c-.7 0-1.314-.145-1.841-.434a3.003 3.003 0 0 1-1.225-1.246c-.29-.541-.434-1.171-.434-1.89 0-.719.145-1.346.434-1.883.29-.537.698-.95 1.225-1.239.527-.29 1.141-.434 1.841-.434s1.314.145 1.841.434c.527.29.933.702 1.218 1.239.285.537.427 1.164.427 1.883 0 .719-.142 1.349-.427 1.89a2.96 2.96 0 0 1-1.218 1.246c-.527.29-1.141.434-1.841.434zm-.014-1.358c.57 0 1.003-.187 1.302-.56.299-.373.448-.924.448-1.652 0-.719-.15-1.267-.448-1.645-.299-.378-.728-.567-1.288-.567s-.992.189-1.295.567c-.303.378-.455.926-.455 1.645 0 .728.15 1.279.448 1.652.299.373.728.56 1.288.56zm8.726-5.768c.588 0 1.113.15 1.575.448.462.299.821.721 1.078 1.267.257.546.385 1.174.385 1.883 0 .71-.128 1.33-.385 1.862a2.916 2.916 0 0 1-1.071 1.232c-.457.29-.985.434-1.582.434a2.71 2.71 0 0 1-1.302-.308 2.161 2.161 0 0 1-.882-.854v3.57h-1.75V4.154h1.722V5.19c.205-.383.502-.679.889-.889a2.73 2.73 0 0 1 1.323-.315zm-.462 5.768c.55 0 .98-.189 1.288-.567.308-.378.462-.912.462-1.603 0-.71-.154-1.26-.462-1.652-.308-.392-.737-.588-1.288-.588-.56 0-.992.191-1.295.574-.303.383-.455.929-.455 1.638 0 .7.152 1.241.455 1.624.303.383.735.574 1.295.574zm7.312 1.358a5.921 5.921 0 0 1-1.673-.224 3.786 3.786 0 0 1-1.295-.644l.49-1.218c.728.532 1.563.798 2.506.798.401 0 .707-.065.917-.196a.623.623 0 0 0 .315-.56.567.567 0 0 0-.217-.476c-.145-.112-.404-.215-.777-.308l-1.12-.252c-.635-.14-1.106-.369-1.414-.686-.308-.317-.462-.728-.462-1.232 0-.42.119-.791.357-1.113.238-.322.57-.572.994-.749.425-.177.917-.266 1.477-.266.485 0 .954.075 1.407.224.453.15.852.36 1.197.63l-.49 1.19c-.71-.513-1.419-.77-2.128-.77-.383 0-.681.07-.896.21a.664.664 0 0 0-.322.588c0 .187.068.34.203.462.135.121.352.215.651.28l1.162.266c.681.15 1.18.385 1.498.707.317.322.476.744.476 1.267 0 .635-.257 1.139-.77 1.512s-1.209.56-2.086.56z"/>
        </g>
    </g>
</svg>
