<svg xmlns="http://www.w3.org/2000/svg" xmlns:xlink="http://www.w3.org/1999/xlink" width="389" height="101" viewBox="0 0 389 101">
    <defs>
        <path id="a" d="M.027.13h23.414v55.981H.027z"/>
    </defs>
    <g fill="none" fill-rule="evenodd">
        <g fill="#E4EBF0">
            <path d="M292.188 91.771c-1.1 0-3.586.235-3.207-.345 1.919-1.383.137-9.044.069-11.866.899-6.393 3.629-.84 3.976-.163-1.257 1.584-1.353 3.937-1.248 6.156.116 2.433 1.595 6.218.41 6.218"/>
            <path d="M284.773 76.05c-.495 1.31-.808.472.246 1.5.505.492 2.888 1.212 3.334.485.007-.012.231-.442.488-.23.383.317 1.18 1.179 1.132 1.305-.144.385 2.72.504 2.72.455 0-.097 3.55-.401 3.673-.424 1.234-.224.281-.53.737-.974.548-.533-.178-.6 1.23-.711.185-.015 1.074-1.656.8-1.761-.537-.205.939-1.114 1.537-1.162 3.334-.264.353-2.077-.434-2.556-.341-.207 1.906-1.31 1.906-1.949 0-.503-.649-1.423-1.107-1.423-1.934 0-.221-.52.184-.674.42-.16-1.752-.76-1.535-1.774.026-.12 2.532-1.049 1.352-1.049-.85-.317.6-.641.775-.88.154-.21.294-.312-.184-.412-.614-.129-1.335.291-1.335-.266 0-.233-.184-.37-.184-.469 0-.194.215-.206.215-.393 0-.25.394-.344.676-.486.11-.056.267-.315.122-.338-.076-.012-.57-.011-.583-.036-.081-.51.03-1.013.03-1.423 0-.365-.283-.21-.552-.375-.764-.465.93-.094 1.105-.374.067-.105.818-.748-.122-.748-.512 0-.356-.851-.83-1.292-.515-.48-1.72.401-1.72-.262 0-.156-.302-.675-.683-1.086-.672-.725-1-.587.307-1.085.262-.1-.307-.465-.307-.618 0-.163.307-.322.307-.655-1.843-1.226.347-1.108.347-2.014 0-.762-1.674-.586-1.488-.902.332-.565.239-.945-1.347-1.07-.109-.01 1.086-.84 1.02-.992-.3-.703-1.891.075-.859-1.218.277-.345.599-.879-.307-.879-.062-.56.092-1.423-1.228-1.423-.047 0-.08.55-.646.58-.415.023.402-1.103-.89-1.103-.337 0-1.628.055-1.628.3 0 .048-.833.286-.86.223-.281-.654 1.002-.05.28-.016-.176.008-.154.479-.154.58 0 .117.784.46.03.636-.391.093.094.169-.183.169-.677 0 .052-.394-.646-.394-.07 0-2.59.617-.921.75 1.87.148-.553 1.491-.553 1.684 0 .141.21.396.184.411-.419.256-.565-.281-.737-.337-.97-.31-.094.659-.737.704-.446.032-2.756.665-1.843.738.52.04.329.18.614.43.027.024.421.038.492.038.293 0-.524.723-.553.86-.008.037-.11.033.122.076.243.044-.153.112-.122.112.051.245.153.31.153.561 0 .04.023.324 0 .338-.04.024-.359-.025-.399 0-.116.07.15.299 0 .299-.262 0-.174.22-.061.243-.523.379.19.451.245.749.122.645-.49.493-.49 1.086 0 .505 1.055.734 1.055 1.366 0 .158-.798-.019-.921.056-.334.203.288 1.026.368 1.123.257.314-.679.547-.679 1.159 0 .535.523.206.798.374.097.06-.557-.018-.214.28.714.626-.841.006-.308.805.04.06-3.03.333-1.474.992.281.12-.226.45.06.45.489 0 .739-.069.739.28 0 .146.233.079.337.206.009.01.286.21.123.243-.74.29-.338.306-.184.618.106.215-.89-.09-.89.187 0 .34-.454.335-.166.544.085.06-.071.698.153.917.092.09.185.155.185.3v.485c0 .043.355.054.46.132.065.047-.368.103-.368.355 0 .228.583.749.123.749-.572 0-.378-.006-.246.093.126.095-.065.55.062.525.362.24.699.138.04.293-.443.104.452.174.49.186.121.042-.282.718-.957.487-.285-.098-1.021.225-.49.252.695.035-.411 1.214.06 1.214.044 0 .322.616.322.747-.34.62.055.883.055 1.75 0 .506-.116.465-.116 1.122 0 .048.056.47.161.574.112.11.284.274.328.377.018.042.5.086.553.224.003.007-.71.68-.19.68.096 0 .48.674.596.777"/>
        </g>
        <g fill="#E4EBF0">
            <path d="M8.35 91.778c-1.099 0-3.585.203-3.206-.3 1.919-1.198.137-7.838.068-10.284.9-5.54 3.63-.727 3.977-.14-1.257 1.372-1.353 3.412-1.248 5.334.116 2.109 1.595 5.39.41 5.39"/>
            <path d="M1.75 78.506c-.442 1.154-.722.415.221 1.323.452.434 2.584 1.069 2.983.428.006-.011.207-.39.436-.203.343.28 1.056 1.04 1.013 1.151-.128.34 2.434.445 2.434.402 0-.086 3.177-.354 3.286-.374 1.104-.199.252-.467.66-.86.49-.47-.16-.53 1.1-.627.166-.014.962-1.462.716-1.554-.48-.18.84-.983 1.375-1.025 2.984-.233.316-1.833-.388-2.256-.305-.183 1.705-1.155 1.705-1.719 0-.445-.58-1.256-.99-1.256-1.73 0-.198-.458.165-.595.375-.14-1.568-.67-1.374-1.565.023-.105 2.266-.925 1.21-.925-.761-.28.536-.566.693-.777.139-.185.263-.275-.165-.363-.55-.114-1.194.257-1.194-.235 0-.206-.164-.328-.164-.414 0-.171.192-.182.192-.347 0-.22.352-.304.604-.429.1-.049.24-.278.11-.297-.068-.011-.51-.01-.522-.033-.072-.45.027-.894.027-1.255 0-.322-.253-.185-.494-.33-.683-.411.832-.084.99-.331.059-.093.73-.66-.11-.66-.458 0-.319-.75-.742-1.14-.462-.423-1.54.354-1.54-.231 0-.138-.27-.596-.611-.958-.601-.64-.895-.519.275-.958.234-.088-.275-.41-.275-.545 0-.144.275-.284.275-.578-1.65-1.082.31-.977.31-1.777 0-.672-1.498-.517-1.331-.796.297-.498.214-.834-1.205-.944-.098-.008.971-.742.913-.876-.27-.62-1.693.067-.769-1.074.248-.305.535-.775-.275-.775-.055-.495.083-1.256-1.099-1.256-.042 0-.07.484-.578.512-.371.02.36-.974-.797-.974-.3 0-1.456.048-1.456.264 0 .043-.745.253-.77.198-.25-.578.897-.045.25-.015-.156.007-.136.423-.136.512 0 .104.701.406.027.562-.35.081.083.148-.165.148-.605 0 .047-.347-.577-.347-.063 0-2.318.544-.824.661 1.673.13-.495 1.317-.495 1.487 0 .124.188.349.165.363-.375.225-.506-.249-.66-.298-.867-.274-.084.581-.659.621-.4.028-2.467.587-1.65.651.465.036.295.16.55.38.024.02.377.033.44.033.262 0-.468.639-.495.76-.007.031-.098.028.11.066.217.039-.137.099-.11.099.046.216.138.274.138.495 0 .035.02.285 0 .298-.036.021-.322-.022-.357 0-.105.062.133.264 0 .264-.235 0-.156.194-.055.214-.468.335.17.398.22.661.108.57-.44.435-.44.958 0 .446.945.648.945 1.206 0 .139-.715-.017-.825.05-.299.179.258.904.33.99.23.277-.608.483-.608 1.022 0 .473.468.183.714.33.087.053-.498-.015-.191.248.638.552-.753.005-.276.71.036.053-2.71.294-1.319.876.252.105-.202.397.055.397.436 0 .66-.061.66.247 0 .128.209.07.302.182.008.009.255.185.11.214-.662.256-.303.27-.165.545.095.19-.797-.08-.797.165 0 .3-.405.296-.148.48.076.054-.064.616.137.809.083.079.166.137.166.264v.43c0 .037.318.046.412.115.057.042-.33.091-.33.313 0 .202.522.661.11.661-.512 0-.339-.005-.22.083.113.084-.058.484.055.462.325.212.626.123.036.259-.396.092.405.153.44.165.107.037-.254.633-.858.429-.254-.087-.913.199-.438.222.622.031-.368 1.072.054 1.072.039 0 .288.543.288.659-.304.547.049.779.049 1.543 0 .447-.104.411-.104.99 0 .043.05.415.145.507.1.098.254.242.293.333.016.037.447.076.495.198.002.006-.635.6-.17.6.085 0 .43.594.533.685"/>
        </g>
        <g fill-rule="nonzero" transform="translate(55.134 16.323)">
            <path fill="#F0F5F7" d="M0 14.283h44.924v61.212H0z"/>
            <path fill="#FFF" d="M5.105 49.99h9.189v8.162H5.105zM17.357 49.99h9.189v8.162h-9.189zM29.609 49.99h9.189v8.162h-9.189zM5.105 36.727h9.189v8.162H5.105zM17.357 36.727h9.189v8.162h-9.189zM29.609 36.727h9.189v8.162h-9.189zM5.105 23.465h9.189v8.162H5.105zM17.357 23.465h9.189v8.162h-9.189zM29.609 23.465h9.189v8.162h-9.189z"/>
            <path fill="#F0F5F7" d="M22.287 0L0 14.283h44.924z"/>
            <rect width="17.357" height="22.444" x="3.063" y="62.232" fill="#FFF" rx="8.5"/>
            <rect width="17.357" height="22.444" x="24.504" y="62.232" fill="#FFF" rx="8.5"/>
        </g>
        <g fill-rule="nonzero" transform="translate(311.404 16.323)">
            <path fill="#F0F5F7" d="M0 14.283h44.924v61.212H0z"/>
            <path fill="#FFF" d="M5.105 49.99h9.189v8.162H5.105zM17.357 49.99h9.189v8.162h-9.189zM29.609 49.99h9.189v8.162h-9.189zM5.105 36.727h9.189v8.162H5.105zM17.357 36.727h9.189v8.162h-9.189zM29.609 36.727h9.189v8.162h-9.189zM5.105 23.465h9.189v8.162H5.105zM17.357 23.465h9.189v8.162h-9.189zM29.609 23.465h9.189v8.162h-9.189z"/>
            <path fill="#F0F5F7" d="M22.287 0L0 14.283h44.924z"/>
            <rect width="17.357" height="22.444" x="3.063" y="62.232" fill="#FFF" rx="8.5"/>
            <rect width="17.357" height="22.444" x="24.504" y="62.232" fill="#FFF" rx="8.5"/>
        </g>
        <g transform="translate(16.336 35.707)">
            <mask id="b" fill="#fff">
                <use xlink:href="#a"/>
            </mask>
            <path fill="#E4EBF0" d="M8.706 6.205c.492.086.63-1.92.686-1.781.804 2.024 1.163 3.991 1.976 5.83.396.895 1.557 1.745 2.06 2.688-.07 1.778-.182 2.98-.244 3.95-.317 5.004.333 9.056.64 13.655l.421 6.293c.325 4.86-1.529 13.255-2.13 13.252-1.137.087-.461-13.156-1.077-16.15-1.018-4.943.065-11.075-.741-16.072-.427-2.646-1.053-7.678-1.591-11.665m.826 28.332c.16 3.61-.44 19.585-.788 20.855-.416.921 5.296 1.112 4.78-.356-.172-.422.295-4.068 1.064-7.797.7-3.395 1.08-7.348 1.15-8.47.083-.33-.057-1.326.137-1.56.712-.86 1.882-1.942 2.531-2.91.06-.092.236-.129.39-.188.864-.339 2.375-.617 2.825-1.31.207-.318 1.356-1.464 1.82-1.897-.646.171-1.67 1.229-2.131 1.698-.446.452-1.066.898-2.362 1.102-.561.088-.485-.22-.444-.86.069-1.09.4-1.631.634-2.624.118-.501.196-1.176.096-1.73-.248.54-.475 2.053-.684 2.796-.36 1.273-.253 2.264-.597 2.962-.396.806-1.084 1.386-1.864 1.416-.922.037-.614-1.326-.571-2.008.08-1.247.744-2.357 1.38-3.16.143-.18.84-2.092.516-1.455-.194.384-.571 1.031-.937 1.427-.115.125-.957 1.109-1.033.968-.162-.302-.23-.22-.317-.718l-.57-3.237c-.538-3.805-.515-8.351-.256-12.428.041-.65 2.378-1.377 4.251-2.466 1.718-1 3.214-3.525 3.538-6.193-1.078 2.779-2.305 4.698-3.469 5.273-.788.39-3.24 1.953-4.01 1.497-.68-.4-.281-3.231-.295-3.45C14.128 6.832 13.47.08 13.47.132c-.097 1.876.165 7.313 0 11.698-1.839-2.06-2.378-4.909-3.446-7.282C9.691 3.8 8.737 1.464 8.47.85a96.64 96.64 0 0 0 .608 2.187c.015.05.263.633.146.778-.116.144-.29 2.236-.544 2.2-.108-.799-.2-1.456-.266-1.904-.001-.016-.003.74 0 1.85-.285-.108-.645-.402-1.032-.833.239.458.641.83 1.032.994.005 2.108-.274 3.175-.219 4.919.006.206.362 2.72-.241 3.161-.684.499-2.858-.632-3.636-.927-1.149-.435-2.48-2.13-3.748-4.647.548 2.482 2.189 4.723 3.897 5.507 1.863.854 3.427 1.992 3.504 2.602.47 3.73.853 7.511 1.134 11.039-.33-.448-.65-.884-1.046-1.238-1.495-1.341-3.251-2.286-4.924-3.673-.118-.098-.142-.583-.068-1.09.068-.466-.177-1.114-.621-1.566.354.609.526 1.118.462 1.418-.044.204-.103.814-.3.89-.173.067-.65-.349-.692-.378a101.79 101.79 0 0 0-1.889-1.251c.5.444 2.424 2.07 3.03 2.619 1.958 1.777 4.573 2.721 5.946 5.202.045.081.141.316.216.55.135 1.862.24 3.637.313 5.278" mask="url(#b)"/>
        </g>
        <path fill="#E4EBF0" d="M37.464 58.767a4.096 4.096 0 0 1-.054.216c-.072-.056-.067-.121.054-.216m-4 2.973c-.255.094-.452.188-.636.188-.026-.013-.052-.027-.077-.038.223-.207.471-.162.714-.15m1.774-.629c-.1.246-.309.439-.778.439a2.57 2.57 0 0 0-.47.042.9.9 0 0 0 .179-.235c.13-.235.589-.262 1.07-.246m-3.937-18.32l-.114-.103c-.134-.121-.224-.012-.36-.02-.037-.004-.116-.13-.136-.169-.05-.094-.042.115-.148-.04-.043-.061.043-.122.035-.123-.356-.026-.078.238-.292.386-.131.389-.646.422-.68.552-.077.295-.143.352-.433.235-.04-.017-.072-.011-.097.008a.982.982 0 0 1 .349.14c.468.275.767.305 1.205.294.102-.22.255-.289.315-.299.06-.01.153.081.402.277h.107c.114 0 .203-.011.272-.031-.168-.317.148-.229.228-.23l.006-.026a.252.252 0 0 0-.03-.024c-.122-.091-.743-.477-.75-.522-.018-.116-.022-.32.12-.306m.36-.01a.326.326 0 0 0-.095.057.14.14 0 0 0 .095-.057m4.2.309c.213-.22.558-1.167.914-.575.026.043 1.284-.431 1.282-.501-.022-.766.01-.475.878-.392.739.069.674.578 1.662.612.45.014-.02 1.35-.014 1.55.13.822-.473.585-.883.642.048.466.024.955-.128 1.05-.049.03-.535 1.546-1 1.546-.13 0-.569-.082-.575-.03-.014.102.025.37.017.523.234-.025.467.072.467.358.002 2.06 1.167-.192 1.942.37.682.495-.013 1.316.368 1.463 1.355.527-.512.733-.797 1.127-.891 1.232.686.681.496 1.342-.08.279-1.119.373-.504.549.646.187 4.547-1.676 3.972.325-.063.218-.657.173-1.075.668-.883 1.047 1.58.443 1.867.854.632.91-.673.863-.64 1.235.095 1.095-1.093.474-1.577.334-.666-.191.133-.027.016.384-.236.821-1.933-.183-1.287.639.657.834-.448.794-1.123.82.259.537-.72 1.932.522 1.932.543 0 .015-.504.377-.545.418-.048.756.31 1.173.336.556.034.523 1.36 1.215.797.36-.294-.188-1.007.586-1.007 1 0 .714 1.546.294 1.888-1.305 1.06-.084-.1-.084 1.132 0 .54-.116.839-.629.839-.722 0-.293 1.146-.293 1.803 0 2.287-1.647.994-1.55 1.007.716.093-.377 1.083-.377 1.385 0 1.881-1.455-.127-2.22-.127-1.357 0-.438-1.793-.838-1.468-1.309 1.064-.907-.936-1.55-.293-.506.506-1.138.33-1.886.041-1.167-.449-1.763.303-2.471.21-.714-.093.008-1.04-.294-1.342-.597-.598-1.001.559-1.005-.985a.901.901 0 0 1-.47.36c-.484.166-.774-.995-1.202-.63-.62.53-.827.444-1.258-.22-.19-.292-1.487.048-2.13-.802-.65-.188-.181-1.066-1.038-.71-.019.009.243.087.189.275-.134.467-.285-.053-.331.22-.018.11-.108.488-.199.525-.325.135-.64-.06-.87.348-.834 1.479-.255.47-1.41.634-.33.046-.24.918-.658.267-.102-.16-.82.64-1.096.692-.714.132.027-.87-.964-.64-.51.117-1.117.713-1.452.179-.293-.47-.872-.568-.69-1.33-.197-.057-.487-.417-.298-.497.143-.06.898-.176.217-.536-.984-.522-.17-.816.593-1.187 1.277-.618-.54-1.828-1.185-2.013-1.588-.46-.673.068-1.35-1.557-.403-.973.843-.524 1.155-.614 1.915-.554-2.586-2.514-2.36-3.3.416-1.448 1.005-1.173 2.098-.941 1.184.252.01-.898 1.793.012 1.647.475.87-2.393 1.44-2.708.96-.532 1.493.995 2.067-.468-.096-.076-.147-.137-.052-.153l.118-.024c.014-.04.027-.082.04-.125a2.39 2.39 0 0 0-.128-.003c-.282 0-.83-.092-.83-.423 0-.267-.047-.172-.047-.333 0-.918 1.063-.384.666-1.105-.096-.174-.331-.23-.577-.341-.366-.069-.673-.157-.68-.17-.063-.132-.857.075-.973.617-.089.42-.62.388-.958-.039-.333-.419-.22-.706-.168-.777.04-.054.198-.044.597-.083.06-.006.318-.218.179-.26-.527-.154.183-.385-.08-.355-.151.017-.868.16-.904.132-.102-.08-.264-.249-.08-.329.497-.218-.025-.41.03-.712.011-.435.793-.632 1.533-.515.118.019.235.023.348.016l.006.007c.17-.209.389-.34.533-.052.019.04.136.276.15.152.034-.299.389-.22.409-.046.044.388.74.153.74.727 0 .206.19.28.137-.136-.052-.399.302-.114.302-.545 0-.118.363.017.363-.076 0-.502.416.045.695.045.292 0 .102.225.3.406.145-.048-.125-.212.243-.212.137 0 .09.202.09.334 0 .17-.027.85.152.85.962 0-.102-1.358 1-1.214.282.037.154.545.605.545.461 0 .034-.213.03-.242-.044-.338-.062-.455.273-.455.403 0 .363.1.363.485 0 .33.485.339.485-.03 0-.342.059-.509.484-.243.017.01-.565-.697.06-.697.398 0 .495.12.546.363 0-.224-.078-.463.181-.363.09.035.606.546.637.516.041-.043.071-.142.115-.246-.162-.098-.232-.305-.353-.313-.093-.006-.21.167-.26.095-.379-.552-.502.037-.812-.248-.171-.158-.825.274-.906.18l-.275.14c-.088.062-.256-.213-.242-.23.05-.057.14-.18.18-.251.109-.19-.097-.026-.177.008-.06.027-.168.076-.232.076-.042-.001-.1-.183-.08-.2.044-.04.105-.072.154-.106.135-.093.187-.146-.04-.186-.584.403-.362.118-.81.034-.14-.026-.85.362-.672-.132.136-.38-.361.194-.547-.077-.093-.136.179-.293-.041-.142-.16.11-.519.481-.617.07-.033-.14-.503.037-.383-.373.054-.185 1.027-.265.577-.54-.212-.13-.424-.04-.473-.113-.454-.66 1.197-.455 1.41-.602.203-.139-.187-.047-.25-.139-.15-.218.493-.209.018-.55-.152-.11-.859.043-.428-.315.121-.1-.233-.315-.043-.579.214-.3.913.38.663-.372-.065-.197.254-.249.335-.13.345.502.823-.366 1.073-.002.703 1.023.433-.481.856.133.573-.227.572.866.818.698.255-.176-.17-.464-.02-.71.089-.143.543-.217.764-.37.21-.143.459-.079.655-.363.08-.119.983-.441.987-.439.369.204.444-.96.676-.622.418.61.469.199.732.09a2.686 2.686 0 0 1-.165-.204c-.442-.601-1.213-.788-1.556-.263-.254.39-.457 1.416-.631.668-.22.215-.59 1.151-.93.549-.026-.045-1.296.395-1.296.464 0 .767-.023.474-.89.369-.735-.09-1-1.187-1.986-1.248-.45-.027.058-1.349.058-1.55-.146-1.128 1.021-.239 1.233-.856.168-.493.96-.742 1.183-.246 1 0-.167-1.085.6-1.085.23 0 .403.755.928.755.105 0 .059-.451.059-.58 0-.502.344-1.052 1.022-.901.329.074.046-.552.853-.474.226.164.335.283.367.426.41-.347.87-.016.812.329.217 0 .537.368.795.728.242.338.429.67.424.686-.048.138.663.55 1.125.246.358-.236.713.161.654.702-.058.533-.34.658-.426.67-.067.011-.173-.108-.483-.36-.046-.038-.38-.07-.31.058.266.481-.401.145-.193.31.12.094.73.497.735.541.017.129.013.363-.174.291-.506-.194-.27.31-.522.484-.189.182-.514.106-.842-.116.124.304.278.626.605.402.541-.55.252.014.653-.223.372-.217.553-.39.881.088.178.26-1.227 1.524-.46 1.492.124-.004.525-.32.495.085-.049.676.221.371-.303.732-.213.146-.73.81-.188.88.323.042.656.05.36.361-.204.214.086.164.145.169.08.007.016.172-.049.218.16.256-.04.363-.09.57-.05.206-.28.122-.472.11.085.068.168.144.246.225.508-.012 1.013.05 1.013.171 0 .309-.036.472-.074.561.321.08.633-.003.812-.295.243-.397.777-.85.972-.105m-6.074 6.926c.98-.043.02-.498.509-.498.723 0-.008-.455.03-.787.004-.04.32.059.544-.122.016-.012.842.133.786.076-.053-.053-.042-.632.151-.439.038.038-.042.245.06.258.056.007.358.006.364-.015.038-.147.001-.226.15-.318.124-.075.42.181.68.181.032 0 .754-.658.878-.181.138.532.777-.439.816-.439.689 0 .957-.254 1.517-.194.474 0 .951.066 1.44.086a.378.378 0 0 0-.161.201c-.438 1.523-2.33-.224-2.648.878-.89 3.099-1.463-.831-1.999 1.033-1.597-.09-.7 2.606-1.444 2.392-.774-.223.04-1.282-.533-1.764-.337-.283-1.517-.089-2.188-.283a1.342 1.342 0 0 0-.256-.046.652.652 0 0 0 .044-.123c.171-.688.572.153.71-.212.17-.446.175-.241.303.045.13.291.3.25.247.27"/>
        <g fill-rule="nonzero" transform="translate(105.163)">
            <path fill="#F0F5F7" d="M0 15.347L19.752 0h125.733l21.959 15.347v77.491H0z"/>
            <ellipse cx="84.232" cy="21.934" fill="#FFF" rx="11.741" ry="11.732"/>
            <path fill="#FFF" d="M79.533 69.374h8.378a5 5 0 0 1 5 5v18.464H74.533V74.374a5 5 0 0 1 5-5zM36.65 79.576h1.232a5 5 0 0 1 5 5v9.283H31.65v-9.283a5 5 0 0 1 5-5zM15.21 79.576h1.23a5 5 0 0 1 5 5v9.283H10.21v-9.283a5 5 0 0 1 5-5zM58.092 79.576h1.23a5 5 0 0 1 5 5v9.283h-11.23v-9.283a5 5 0 0 1 5-5zM129.562 79.576h1.23a5 5 0 0 1 5 5v9.283h-11.23v-9.283a5 5 0 0 1 5-5zM151.003 79.576h1.23a5 5 0 0 1 5 5v9.283h-11.23v-9.283a5 5 0 0 1 5-5zM108.12 79.576h1.232a5 5 0 0 1 5 5v9.283H103.12v-9.283a5 5 0 0 1 5-5z"/>
        </g>
        <path fill="#D8D8D8" fill-rule="nonzero" stroke="#FFF" stroke-linecap="square" d="M105.673 63.763H276.18M105.673 43.359H276.18M105.673 21.934H276.18"/>
        <g fill="#E4EBF0">
            <path d="M376.665 85.587c.051-.389-.352-.264-.352-.54 0-.553-.28-.148-.597-.415-.324-.273-.04-.06-.258.046-.3.145-1.016-.183-1.016-.123 0 .408-.814-.153-.968-.153-.473 0-1.6-.857-1.645-.339-.016.187-.106.123-.29.123-.102 0-.44.103-.403.17.103.184.823.385.21.537-.838.208.278.096.402 0 .48-.37.567.032.79.246.077.073.477.022.388.23-.156.364-.933.719-.21.968.308.106-.112.705-.613.599-.546-.116-.451.073-.451.537 0 1.012-.226 2.185-.226 3.333 0 .867-.176 1.55-.639 2.139-.755.959 3.775 1.377 4.006.179-.063-.345-.289-.21-.282-1.093l.032-3.818c.01-1.233-.077-1.506.997-2.016.422-.2.33-.61 1.125-.61m4.89-8.727a.333.333 0 0 1 .225-.108c.082-.007.124-.046.146-.046.232 0 .24-.2.403-.2.364 0 .403.036.403.37 0 1.002-1.72 1.86-2.088 2.918-.292-.077-.115-.532-.25-.661-.109-.102.212-.405.257-.46.346-.428.904-1.193.904-1.813m-3.694-.169c-.63 0-.437-.448-.629-.814-.45-.858-.839-1.007-.839-2.074 0-.6-.045-1.451-.03-1.99.017-.619.192-.477.192.148 0 .797-.055 1.574.21 2.318.123.347.37.516.37.016v-1.398c0-.44-.191-1.165.242-.906.387.23.259 2.406.259 3.026 0 1.302.956-.132.95-.799-.004-.665.211-1.432.317-1.08.059.196-.03 1.387.039 1.587.412 1.194.476-.536.476-.776 0-.257.23.736.185 1.068-.11.797-1.03 1.28-1.742 1.674m-4.728.67c0-.015-.399-.077-.409-.101-.051-.127-.199-.767-.233-.899-.118-.455-.124-1.055-.253-1.554-.265-1.023-1.317-1.556-1.616-2.707-.008-.03.413.12.434.2.06.229.16.394.24.607.12.314 1.412 1.584 1.297.646-.074-.614-.053-.422.374-.61.209.804-.512 1.42-.335 2.103.144.555.357 1.761.501 2.316m9.186 3.758c.007-.015.394.092.415.073.103-.093.525-.612.615-.717.312-.364.587-.903.93-1.302.699-.817 1.89-.87 2.678-1.79.02-.024-.427-.06-.482.004-.157.183-.322.292-.49.451-.25.236-1.99.859-1.464.057.343-.525.238-.36-.064-.703-.55.642-.175 1.491-.644 2.038-.38.443-1.115 1.446-1.494 1.889"/>
            <path d="M380.606 76.58a.292.292 0 0 0 .089.127c.121.38.97.76 1.326.547.213-.126.511.616.652.707.012.007-.228.315.046.476.38.224.228.697-.13.873-.084.04-.067.114-.006.191-.28.14-.615.476-.729.483-.65.04-1.294.114-1.625-.571-.423-.877-.542-1.401-.46-2.063.03-.248.52-.373.736-.62a.63.63 0 0 0 .1-.15zm-2.343-3.814l-.02.01c.005.008.01.016.014.027.003.004.005-.012.006-.037zm3.626-1.784l-.016.002c-.046.004-.094.045-.123.09.056.103.099.194.133-.06a.278.278 0 0 1 .006-.032zm1.363-.506c-.275-.427-.323-.26-.641-.203-.13.024.023.199-.096.159-.438-.147-.347.123-.39.336.094-.017.203.01.249-.128.015-.045.046-.212.08-.202.05.014.206.118.219.04.045-.288.054-.158.237-.024.023-.016.007-.254.054-.032.03.138.224.05.288.054zm-10.544 3.394c-.025.158-.477.274-.574.305-.697.221.13.08-.061.222-.08.06-.31.227-.17.318.26.168-.062.397.093.397.55 0 .323.333.629.333.129 0-.011-.238.214-.238.04 0 .26.562.26.174 0-.084.069-.172.154-.11.177.126.457.412.767.412.374 0 .002.781-.184 1 .089 0 .638.363.587.134-.04-.174.68-.274.7-.067.034.342.587 0 .56-.063-.23-.535 1 .412 1.178.052.105-.21.373.067.486.119.159.072.577.263.778.131.15-.099.732-.37.81-.126.144.461.906-.46.91-.878.002-.115.202-.116.403-.033-.006-.039-.008-.068-.013-.07-.087-.05-.276.066-.345-.175-.02-.07-.161-.338-.2-.35-.055-.016-.37-.433-.428-.372-.139.143-.397.145-.246-.048.135-.17-.192-.139-.322-.222-.111-.071.085-.218.153-.23.118-.02-.257-.128-.253-.167.01-.07.177-.086.116-.119a1.203 1.203 0 0 0-.276-.056c-.281-.102.086-.26-.092-.281-.1-.012-.455-.06-.307-.254.042-.055.27-.151.153-.194-.203-.076.074-.111-.088-.111-.083 0-.13-.13-.13-.207 0-.072.184.06.15-.09a.6.6 0 0 1-.012-.175 1.07 1.07 0 0 1-.392.066c-.067.386-.227.681-.503 1.01-.018.015.028.114-.018.094-.04-.016-.064-.04-.102-.068-.102-.07-.083.033-.125.1-.102.161-.249-.208-.464-.117-.164.068.234.248-.051.368-.048.02-.253.107-.234.108.326.028.039.207-.146.235-.169.027.045.17-.03.201-.076.032-.228.037-.264-.053-.069-.174.013.14-.15-.048-.093-.107-.094.18-.131.249-.134.242-.334-.12-.389-.223-.097-.184-.1.28-.325.02.011-.009-.145-.249-.173-.274-.06-.052-.005.136-.072.175-.037.022-.306-.337-.276-.202.017.08-.05.354-.168.264-.14-.106-.247-.472-.362-.253-.132.245-.24-.035-.154-.245.037-.09-.52-.253-.56-.305-.02-.025-.185-.051-.311-.063zm-4.908-1.528c.06-.002.11-.006.145-.012a.125.125 0 0 1-.08-.067.26.26 0 0 0-.026-.04.82.82 0 0 0-.039.119zm-.874-.608c-.2.157-.316.502-.216.481.066.046.245.08.449.102a.334.334 0 0 1-.048-.051c-.185-.265.366-.322-.148-.517l-.037-.015zm13.921 16.895l-.143.338c0 .357-1.195.365-1.655.365-.21 0-.097.381-.43.381-.81 0-1.39-.597-2.085-1.031-.534-.335.03-.543.03-.969 0-.302-.418-.603-.367-.603h.95c1.922 0 .092-.889-.674-.889-.568 0-.3-.608-.521-.634-.345-.041-1.025.015-1.334.11-.598.185-.74-.23-1.212-.57-.443-.321-1.131-.101-1.457-.287-.224 0-.177.183.038.183.434 0 .087.238.39.238.092 0 .25-.045.338-.016.2.066-.034.13.061.199.044.03.386.178.391.222.03.246.136.204.169.516.015.137-.122.496-.238.563-.248.146-.114.194.077.246.017.004-.134.703-.16.746-.272.44-.578.087-1.013.087-.184 0-.167-.168-.36-.174 0 .364-.305-.094-.376-.119-.152-.055-.335.598-.528.071-.025-.066-.384.192-.384.12 0-.433-.253.004-.39-.287-.167-.35-.216-.41-.553-.19-.009.005-.104.08-.03.103.238.074.03.118.03.19 0 .064-.004.187.046.207.246.098.286-.175.315.206.014.199.171.024.214.183.02.07-.098.246.03.246.483 0-.184.446-.038.54.109.069.077.305-.03.293-.208-.024-.399-.4-.399-.008v.095c0 .06-.034-.25-.153-.158-.282.217.146.217.146.372 0 .665-.613-.143-.66-.095-.014.015-.03.254-.122.111a1.425 1.425 0 0 0-.275-.278c-.182.063-.215.103-.276-.142-.047-.189-.36.012-.414-.111-.134-.312-.015-.675-.015-1.016 0-.384-1.413-.487-1.64-.492l-.706-.016c-.308-.007-.164.329-.168.365-.01.074.022.263-.016.301-.294.304-.326-.583-.353-.587-.434-.058-.376-.304-.107-.555.228-.212.264-.576-.092-.206-.062.064-.45-.095-.46-.016-.084.674-.286.115-.414-.08-.183-.276.46-1.03-.076-.682-.378.245-.315-.17-.476-.19-.242-.033-.104.182-.168.19-.355.048-.298-.226-.598-.032-.313.203-.445.184-.445-.333 0-.46.867-.435.351-.563-.076 0-.184-.159-.153-.223.027-.057.169-.175.169-.198 0-.442.283-.153.468-.206.147-.044-.066-.39.191-.39.06 0 .217-.057.123-.134-.103-.085.322-.102.322-.444 0-.333-.65.123-.859.095-.44-.06-.322.044-.322-.548 0-.175-.336.208-.46.095-.044-.04-.15.215-.2.215-.14 0-.133-.182-.244-.04-.208.264-.253-.301-.575-.301-.102 0-.353-.27-.016-.27.26 0-.109-.254.092-.254.115 0 .627-.13.307-.278-.06-.028-.104-.048-.138-.119-.11-.23.215-.111.307-.111.143 0 .071-.127-.016-.175-.006-.002-.063-.126-.03-.126.09 0 .108-.018.086-.077a.048.048 0 0 0 .05-.012c.168-.158.197-.098.391-.08.078.007-.013.07.059.054.397-.083.075.177.391.19.07.003.15.088.03.08-.179-.015.322.119.037.14-.154.01.132.142.184.174.299.184-.288-.047-.103.14.194.195-.047-.031.009.132-.2.175-.095.3.153.263.288-.042.049.1.204.154.06.022.435.042.366-.067-.11-.171-.015-.394.247-.366.188.02.182-.165.19-.165.1.008.507-.182.564-.072.096.185.639.293.832.186.144 0 .207-.163.32-.104.082.043.183-.07.194-.07.06.007.109.107.227.037a.798.798 0 0 1 .22-.072c.033.01.332-.053.338-.013.016.095.14.172.135.054-.004-.103.142.005.234.013.079.006.037-.108.008-.132-.05-.042.169.028.18.012.02-.029-.054-.085-.013-.079.02.003.155.055.153.061.17.045.05-.123.144-.079.052.025.24.112.237-.005 0-.032-.076-.136-.004-.118.124.032.004-.063.081-.016.04.025.11-.01.136-.038.026-.027-.11-.032-.04-.078.079-.051.163-.179.007-.117-.01.004.062-.072.079-.09.1-.106-.13-.084-.074-.144.076-.08.24.02.245-.06.002-.033-.034-.066.031-.063.025.002.043.005.065.003.027-.003-.02-.03-.016-.039.056-.245.027-.42-.144-.655-.242-.334-.51.548-.851.586a1.206 1.206 0 0 1-.304-.079c-.075-.041.021-.061.052-.104.01-.015-.07.008-.082.006-.037-.006-.13.024-.12-.008a.299.299 0 0 1 .137-.151c.132-.052-.314-.042-.11-.139-.054-.033-.255.118-.137-.049.036-.051.003-.06-.002-.116-.005-.071-.14-.078-.102-.169.009-.021.053-.093.033-.1-.029-.01-.14-.016-.119-.05.08-.12.03-.074-.105-.079-.006-.012.086-.096-.015-.027-.072.05-.144-.078-.17-.067-.043.017-.088.057-.138.066-.096.017-.265.093-.38.002-.007-.006.175-.192.21-.23.03-.03-.147-.065-.13-.07.16-.049-.048-.182-.157-.186-.1-.003.05.008-.014-.108-.122-.22-.066-.025-.275-.08-.332-.084.05-.228-.032-.235-.042-.005-.118.007-.081-.032.025-.027.013-.103-.027-.101-.216.013-.251.232-.371.158-.076-.047-.08.07-.102.102-.065.091.019.092.129.16.033.02.138.105.12.125-.023.024-.234.092-.307.047-.168-.097-.075.204-.195.2-.043-.001-.35-.123-.206-.009.008.007-.31-.03-.184.07.005.005-.115-.02-.093-.061.027-.052-.108.103-.117-.049-.007-.11-.07-.168-.181-.135-.072.022.129-.916-.004-.895-.036.005-.185.08-.162.098.006.004-.132-.021-.235.001-.13.028.114.071 0 .094-.14.027-.234.068-.389-.028-.246-.151-.069.174-.077.175-.416.046-.264.412-.094.657.067.097-.12.256-.224.363-.12.124.09.09-.079.182-.293.16-.15-.104-.289-.09-.153.018-.154-.107-.321-.121-.177-.016.075.384.058.394-.122.07-.29.084-.169.16.096.058.037.07-.039.023a.563.563 0 0 0-.007.036c-.024-.008-.063-.005-.1-.027-.06-.04.075-.151.009-.151-.085 0-.15-.084-.146-.167.009-.152.368-.375.004-.444-.03 0-.084-.052-.096-.084-.025-.065.013-.007.138-.047.084-.027-.042-.218-.042-.31 0-.117.155-.105.146-.119-.033-.045.002-.113.023-.154.037-.078.245 0 .245-.012 0-.454.318.142.318-.206 0-.33.14-.062.39-.18.19-.088-.091-.092-.091-.186 0-.182.267-.155.161-.4-.059-.136-.182.218-.272.23-.154.02.039-.469-.284-.433 0 .058-.201.221-.264.175-.244-.179-.004-.089-.142.162a.553.553 0 0 1-.226.096c-.014-.016-.053-.115-.062-.096-.242.505-.284-.073-.529-.257-.129-.098.127-.21.127-.278 0-.201-.071-.105-.218-.163-.172-.067-.121-.321-.165-.321-.117 0-.304-.425-.054-.453.193-.02.138.084.138-.079 0-.365.256-.153.399-.055.148.1.094-.111.119-.111.087 0 .153.123.233.123.204 0 .206-.245.092-.235-.071-.007-.245-.072-.287-.134-.082-.124.15-.065.15-.12 0-.115-.529-.236-.138-.539.04-.032.215-.059.214-.068-.015-.132-.103-.02.023-.254.065-.12.375.347.552.199.06-.05.143-.294.21-.294.097 0 .172.036.276.016 0-.508.28.462.437-.174.025-.1-.041-.217.108-.127.186.112.117.178.253.015l.345-.412c.011-.014-.381.1-.483-.072-.239-.4-.079-.224-.261-.087-.043.033-.324.08-.345.016-.068-.205-.053-.413-.245-.413-.216 0-.19-.03-.107-.246.16-.415.007-.179-.146-.087-.132.078-.169.183-.23.008-.02-.056-.084-.29-.084-.246 0 .384-.005.157-.192.183-.049.006-.065.11-.184.11-.605 0 .062-.288.062-.531 0-.172-.191-.085-.269-.04-.18.104-.196.543-.49.461-.321-.09.136-.318-.13-.318-.288 0-.258-.245-.215-.476.237 0-.077-.052-.008-.27.106-.331-.326-.001-.544-.056-.388-.096.663-.589.713-.594.053-.006.24-.246.145-.246-.086 0-.357-.183-.168-.223.119-.025.263-.063.398-.063.14 0 .414.335.422.27.015-.122.316-.158.437-.096.087.046.233.167.337.167.183 0 .455.159.506.159.02 0 .55-.316.598.08.025.206.494.267.529.095.155-.778.972.293 1.103.293.213 0 .723-.528.154-.635-.254-.048.036-.53-.184-.5-.154.021-.122.278-.437.278-.534 0-.792-.229-1.134-.524-.046-.039.302-.76 0-.325-.082.117-.219-.118-.276-.032-.084.126-.102.269-.23.373-.284.23-.427-.561-.798-.405-.222.094-.6-.355-.651-.5-.137-.382.115-.103-.223-.127-.091-.006-.207-.23-.207-.325 0-.036.417-.178.499-.286.133-.176.49.005.49-.127 0-.045-.015-.236.016-.254.34-.198.38.963.806.39.153-.027-.055-1.022.046-1.254.063-.148.972-.381.997-.365.054.035.1.016.146-.027-.12-.113-.185-.159-.483-.053-.228.08-.074-.69-.213-.791-.113-.082-.353.031-.431-.169-.06-.151.06-.18-.012-.26-.442-.489-.065-.424.219-.348.225.059.229.129.395.2.588.254.427-.034.79-.46.059.151.155.183.08-.007-.096-.243.159-.123.407-.146.033-.003.09-.95.326-.77.224.172.095.4.331.502.215.093-.264.451.32.412.337-.022.002-.137.304-.264.29-.122.286.24.138.395-.084.088.154.195.309.34.158.148.374.029.376.176.003.251.354.514.477.26.084-.174.016-.173.18-.145a1.83 1.83 0 0 1 .218-.324c.067.17.175.206.09-.009-.03-.078-.03-.122-.005-.147-.272-.702.451-.134.339-.55-.116-.427.552-.363.162-.683-.19-.156-.537-.015-.644-.285-.098-.248-.196-.038-.392-.176-.173-.12.007-.55.266-.438.013.006.098-.741.291-.25.122.308.298.314.526.385.187.06-.116-.231.1-.17.169.05.339.215.335.201-.007-.026.058-.04.133-.047.025-.079.056-.16.093-.244.011-.019-.053-.09-.009-.085.038.003.064.017.104.03.104.032.061-.05.08-.119.045-.163.264.11.422-.024.121-.103-.26-.148-.05-.326a1.75 1.75 0 0 0 .171-.154c-.282.064-.085-.165.064-.24.136-.067-.08-.13-.026-.176.057-.048.185-.093.237-.027.102.13-.045-.114.14 0 .105.066.033-.177.048-.245.052-.241.313.013.385.084.129.13.014-.264.269-.105-.006.011.186.172.216.186.064.028-.03-.117.017-.168.026-.028.344.204.285.097-.035-.062-.048-.312.075-.268.145.052.328.333.371.117.049-.244.21-.036.19.166-.008.085.505.073.552.106.033.023.323-.033.388-.061.224-.098.257.128.35.165.016.007.233-.187.344-.066.154.167.333-.146.565-.089.362-.143 1.184.295 1.25.714.04.25.785.018.943.073.013.005.092-.382.386-.264l.016.006c-.02-.167.212-.395.35-.406.165-.014-.082.024.021-.308.194-.63.107-.074.452-.235.546-.255-.091-.649.046-.674.07-.013.195.018.133-.091-.043-.077-.026-.295.041-.289.357.028.422.651.619.436.124-.136.134.197.172.286.11.257-.029.262-.208.458-.054.06-.227.306-.194.362.038.067.388.253.508.122.275-.282.13.578.33.563.07-.006.573-.364.341-.035-.015.021.512-.097.307.196-.01.012.188-.065.15-.18-.046-.146.183.29.194-.142.007-.314.109-.481.295-.39.119.058-.017-.453.203-.398.06.015.31.22.272.272-.01.014.218-.063.388-.004.217.075.007.242.198.302.232.072.195.15.448-.126.404-.44.12.49.134.492.279.046.23.67.023.693-.237.027-.03-.25-.233-.028-.222.242-.457-.16-.697-.108-.491.107.625.33.32.75-.298.409.043.323.073.402.055.146.543-.133.305.127.26.146.185.038.174.34-.015.379-.09.472.033.18.072-.17.01.083.219.018.203-.064.32-.433.43-.186.11.25-.283.359-.089.7.201.354-.145.26.137.515.49.446.245-.3.475-.262.255.043.252-.311.528-.359.292-.049-.112 1.096-.084 1.122.205.197.484.232.284.45-.156.17-.058.198.066.063.111.744-.166.971.466 1.077.179.03.216-.049.44.036.284.107.642.289.023.557-.1.043-.009.16-.134.296-.164.179-.318-.118-.456-.1-.16.024-.381.933-.54.806.027.072.04.166.088.225.105.128.233.432.499.396.015-.002.007-.503.007-.603 0-.084.277.043.26.016-.15-.249.29-.257.438-.15.136.097-.075-.038.153-.167.434-.245.117.024.46.15.543.2.219-.437.338-.365.06.037.145.136.145.032 0-.072.11-.189.16-.143.27.245.042.65.292.65.159 0 .018.202.008.278-.028.221-.14.136-.368.136-.069 0-.314.034-.314.087 0 .064.192.396.345.396.342.011-.156.422.007.54.058.042.614.154.284.198-.021.004.446.27.153.31-.013.002.177.083.2-.008.028-.115.013.286.214.04.146-.179.301-.212.406-.04.068.11.19-.276.338-.103.04.048.145.327.092.333-.014.002.198.103.306.246.137.183-.238.002-.114.159.15.19.221.357.544.357.513 0-.126.363-.115.373.199.205-.119.54-.292.421-.198-.136-.047-.31-.306-.31-.282 0-.287-.384-.498-.508-.435-.252-.126.362-.552.413-.417.05.375.532-.376.532-.22 0-.477-.208-.537.119-.022.12.487.27.184.27.14.252.129.14-.015.309-.181.213.187.45.414.357.132-.054.106.198.299.294.188.093.374.28.421.166.084-.2.407-.34.407-.016 0 .336-.23.06-.123.39.186.573.327-.02.49.15.182.187.337-.022.576.127.25.157-.578.57-.568.603.074.246.277.444.024.444-.2 0-.135.08.023.08-.245.506-.565.462-.115.928.127.132.191.11.329.302.175.243.375.579-.23.34-.099-.038-.079.088-.238.088-.208 0-.197-.272-.314-.35-.143-.093-.776.344-.79.096-.023-.438-.135-.368-.413-.54-.112-.068-.07.132-.146.032-.42-.551-.32.22-.751-.087-.096-.068-.307-.005-.138.103.252.162-.572-.132-.223.199.188.177-.352.103-.46.103-.622 0 .438.218-.038.341-.498.128.1-.003-.176.215.045.502-.249.602-.529.285-.32-.362-.194.096-.444.05l.001.053c0 .2.933.933 1.073 1.143l-.134.317c.009.031.015.062.017.092.017.253.78.092.932.162.013.007.125-.371.408-.227.392.2.687-.195.627-.6-.038-.256.538-.01.618.066.207.195-.26.348.22.42.411.063.494.37.066.613-.02.358-.249-.228-.073.27.167.476-.601-.309-.253.224.06.092.422.513.175.451-.46-.114.237.427-.035.301-.182-.083-.113.132-.006.177.49.197-.187.543.491.593.122.01-.062.086.056.143.294.142.3.277.665.052.206-.127.21.66.366.73.126.056.339-.106.455.072.09.136-.023.19.063.253.53.384.15.401-.145.388-.231-.01-.25-.079-.426-.114-.626-.123-.412.125-.681.618-.088-.135-.188-.145-.077.025.142.217-.13.154-.37.229-.031.01.101.95-.166.823-.253-.12-.172-.37-.423-.42-.229-.046.169-.499-.395-.336-.325.093.025.134-.244.322-.26.181-.328-.173-.215-.357.064-.103-.19-.158-.37-.267-.184-.112-.372.052-.403-.092-.053-.245-.449-.428-.518-.154-.055.218.04.165-.24.186.17.26-.235-.092-.319-.006-.229.234.082.338.205.526.42.643-.41.235-.217.619.198.394-.468.473-.022.703.217.112.528-.099.686.142.145.222.2-.004.42.09.193.08.102.54-.174.484-.014-.003.052.746-.235.307-.181-.276-.354-.244-.591-.266-.196-.017.16.202-.063.187-.176-.011-.376-.137-.37-.124.025.049-.257.116-.319.108-.22-.03.02-.35-.105-.346-.197.005-.258-.146-.196-.37.085-.31-.229-.073-.152-.162.06-.07-.11-.186-.105-.175.132.272-.344.022-.334.042.148.307-.252-.105-.319-.131-.186-.075-.237.582-.437.295-.035-.054-.12-.083-.212-.094l-.162.383c.116.16.214.21.066.346-.056.05-.138.284-.227.149a.188.188 0 0 0-.033-.038z"/>
        </g>
    </g>
</svg>
