<svg xmlns="http://www.w3.org/2000/svg" width="30" height="92" viewBox="0 0 30 92">
    <g fill="none" fill-rule="nonzero">
        <g fill="#000">
            <path d="M28.106 85.471c-.342-.824-.084-1.13-.862-1.429-1.443-.556-4.577-1.039-4.577-1.039s-3.643-3.708-5.139-3.772c-.845-.037-3.84-.448-6.16 0-1.693.323-3.708 3.577-3.708 3.577s-2.538.064-2.991.584c-.456.52-.849 1.498-.912 1.691-.063.195-.693.542-.52 1.496.175.964.39 2.341 1.237 2.341h.357a3.381 3.381 0 1 1 6.764 0h9.123a3.38 3.38 0 1 1 6.763 0h.75c.91 0 1.104-3.449-.125-3.449zm-13.488-2.062H9.221s.454-1.822 1.366-2.667c.91-.846 4.031-.644 4.031-.644v3.31zm.78 0V80.09s.115-.066 1.677.065c1.558.13 4.618 3.253 4.618 3.253h-6.295z"/>
            <path d="M24.098 86.32a2.6 2.6 0 1 0 0 5.2 2.6 2.6 0 0 0 0-5.2zm0 3.977a1.376 1.376 0 1 1 .002-2.752 1.376 1.376 0 0 1-.002 2.752zM8.213 86.32a2.6 2.6 0 1 0 0 5.201 2.6 2.6 0 1 0 0-5.2zm0 3.977a1.376 1.376 0 0 1 0-2.751 1.376 1.376 0 1 1 0 2.751z"/>
        </g>
        <path fill="#4C5C66" d="M15.458 31.25v36.26c1.679.138 3 1.648 3 3.49 0 1.933-1.455 3.5-3.25 3.5s-3.25-1.567-3.25-3.5c0-1.842 1.322-3.352 3-3.49V31.25h.5zM10.399 9.108c-.832 0-1.558-.178-2.178-.534a3.564 3.564 0 0 1-1.428-1.518c-.332-.656-.498-1.42-.498-2.292 0-.872.166-1.634.498-2.286A3.571 3.571 0 0 1 8.22.966C8.84.61 9.567.432 10.399.432c.568 0 1.104.088 1.608.264.504.176.928.424 1.272.744l-.516 1.128a4.239 4.239 0 0 0-1.14-.666 3.41 3.41 0 0 0-1.2-.21c-.816 0-1.446.264-1.89.792-.444.528-.666 1.288-.666 2.28 0 1 .222 1.764.666 2.292.444.528 1.074.792 1.89.792.424 0 .824-.07 1.2-.21.376-.14.756-.362 1.14-.666l.516 1.128c-.344.32-.768.568-1.272.744a4.843 4.843 0 0 1-1.608.264zm6.435-6.12c.824 0 1.436.2 1.836.6.4.4.6 1.016.6 1.848V9h-1.428v-.9c-.136.312-.35.556-.642.732-.292.176-.63.264-1.014.264-.392 0-.748-.08-1.068-.24a1.9 1.9 0 0 1-.756-.66 1.668 1.668 0 0 1-.276-.936c0-.432.11-.772.33-1.02.22-.248.578-.428 1.074-.54.441-.1 1.03-.155 1.769-.166l.583-.002v-.276c0-.4-.086-.688-.258-.864-.172-.176-.458-.264-.858-.264-.312 0-.638.054-.978.162-.34.108-.674.258-1.002.45l-.42-1.032a4.66 4.66 0 0 1 1.188-.516 4.697 4.697 0 0 1 1.32-.204zm-.348 5.028c.4 0 .726-.134.978-.402s.378-.614.378-1.038v-.252h-.216c-.536 0-.952.024-1.248.072-.296.048-.508.132-.636.252s-.192.284-.192.492c0 .256.088.466.264.63.176.164.4.246.672.246zm8.044-3.78l-.876.084c-.992.104-1.488.608-1.488 1.512V9h-1.5V3.132h1.428v1.032c.282-.654.844-1.032 1.685-1.133l.655-.055.096 1.26zM3.2 25.096c-.52 0-.998-.064-1.434-.192a3.245 3.245 0 0 1-1.11-.552l.42-1.044c.624.456 1.34.684 2.148.684.344 0 .606-.056.786-.168a.534.534 0 0 0 .27-.48.486.486 0 0 0-.186-.408c-.124-.096-.346-.184-.666-.264l-.96-.216c-.544-.12-.948-.316-1.212-.588-.264-.272-.396-.624-.396-1.056 0-.36.102-.678.306-.954.204-.276.488-.49.852-.642.364-.152.786-.228 1.266-.228.416 0 .818.064 1.206.192s.73.308 1.026.54l-.42 1.02c-.608-.44-1.216-.66-1.824-.66-.328 0-.584.06-.768.18a.57.57 0 0 0-.276.504c0 .16.058.292.174.396.116.104.302.184.558.24l.996.228c.584.128 1.012.33 1.284.606.272.276.408.638.408 1.086 0 .544-.22.976-.66 1.296-.44.32-1.036.48-1.788.48zm6.472-1.128c.176 0 .36-.012.552-.036l-.072 1.116c-.24.024-.46.036-.66.036-.824 0-1.432-.19-1.824-.57-.392-.38-.588-.946-.588-1.698V20.26H5.953v-1.128H7.08V17.38h1.5v1.752h1.548v1.128H8.58v2.532c0 .784.364 1.176 1.092 1.176zm3.975 1.128c-.6 0-1.126-.124-1.578-.372a2.574 2.574 0 0 1-1.05-1.068c-.248-.464-.372-1.004-.372-1.62 0-.616.124-1.154.372-1.614.248-.46.598-.814 1.05-1.062.452-.248.978-.372 1.578-.372.6 0 1.126.124 1.578.372.452.248.8.602 1.044 1.062.244.46.366.998.366 1.614 0 .616-.122 1.156-.366 1.62-.244.464-.592.82-1.044 1.068-.452.248-.978.372-1.578.372zm-.012-1.164c.488 0 .86-.16 1.116-.48.256-.32.384-.792.384-1.416 0-.616-.128-1.086-.384-1.41-.256-.324-.624-.486-1.104-.486-.48 0-.85.162-1.11.486-.26.324-.39.794-.39 1.41 0 .624.128 1.096.384 1.416.256.32.624.48 1.104.48zm7.48-4.944c.504 0 .954.128 1.35.384.396.256.704.618.924 1.086.22.468.33 1.006.33 1.614 0 .608-.11 1.14-.33 1.596a2.5 2.5 0 0 1-.918 1.056 2.482 2.482 0 0 1-1.356.372c-.416 0-.788-.088-1.116-.264a1.852 1.852 0 0 1-.756-.732v3.06h-1.5v-8.028h1.476v.888c.176-.328.43-.582.762-.762.332-.18.71-.27 1.134-.27zm-.396 4.944c.472 0 .84-.162 1.104-.486.264-.324.396-.782.396-1.374 0-.608-.132-1.08-.396-1.416-.264-.336-.632-.504-1.104-.504-.48 0-.85.164-1.11.492-.26.328-.39.796-.39 1.404 0 .6.13 1.064.39 1.392.26.328.63.492 1.11.492zm6.267 1.164c-.52 0-.998-.064-1.434-.192a3.245 3.245 0 0 1-1.11-.552l.42-1.044c.624.456 1.34.684 2.148.684.344 0 .606-.056.786-.168a.534.534 0 0 0 .27-.48.486.486 0 0 0-.186-.408c-.124-.096-.346-.184-.666-.264l-.96-.216c-.544-.12-.948-.316-1.212-.588-.264-.272-.396-.624-.396-1.056 0-.36.102-.678.306-.954.204-.276.488-.49.852-.642.364-.152.786-.228 1.266-.228.416 0 .818.064 1.206.192s.73.308 1.026.54l-.42 1.02c-.608-.44-1.216-.66-1.824-.66-.328 0-.584.06-.768.18a.57.57 0 0 0-.276.504c0 .16.058.292.174.396.116.104.302.184.558.24l.996.228c.584.128 1.012.33 1.284.606.272.276.408.638.408 1.086 0 .544-.22.976-.66 1.296-.44.32-1.036.48-1.788.48z"/>
    </g>
</svg>
