<svg xmlns="http://www.w3.org/2000/svg" width="39" height="15" viewBox="0 0 39 15">
    <g fill="#000" fill-rule="nonzero" opacity=".4">
        <g opacity=".1">
            <path d="M25.106 7.471c-.342-.824-.084-1.13-.862-1.429-1.443-.556-4.577-1.039-4.577-1.039s-3.643-3.708-5.139-3.772c-.845-.037-3.84-.448-6.16 0-1.693.323-3.708 3.577-3.708 3.577s-2.538.064-2.991.584C1.213 5.912.82 6.89.757 7.083c-.063.195-.693.542-.52 1.496.175.964.39 2.341 1.237 2.341h.357a3.381 3.381 0 1 1 6.764 0h9.123a3.38 3.38 0 1 1 6.763 0h.75c.91 0 1.104-3.449-.125-3.449zM11.618 5.409H6.221s.454-1.822 1.366-2.667c.91-.846 4.031-.644 4.031-.644v3.31zm.78 0V2.09s.115-.066 1.677.065c1.558.13 4.618 3.253 4.618 3.253h-6.295z"/>
            <path d="M21.098 8.32a2.6 2.6 0 1 0 0 5.2 2.6 2.6 0 0 0 0-5.2zm0 3.977a1.376 1.376 0 1 1 .002-2.752 1.376 1.376 0 0 1-.002 2.752zM5.213 8.32a2.6 2.6 0 1 0 0 5.201 2.6 2.6 0 1 0 0-5.2zm0 3.977a1.376 1.376 0 0 1 0-2.751 1.376 1.376 0 1 1 0 2.751z"/>
        </g>
        <g opacity=".2">
            <path d="M28.106 7.471c-.342-.824-.084-1.13-.862-1.429-1.443-.556-4.577-1.039-4.577-1.039s-3.643-3.708-5.139-3.772c-.845-.037-3.84-.448-6.16 0-1.693.323-3.708 3.577-3.708 3.577s-2.538.064-2.991.584c-.456.52-.849 1.498-.912 1.691-.063.195-.693.542-.52 1.496.175.964.39 2.341 1.237 2.341h.357a3.381 3.381 0 1 1 6.764 0h9.123a3.38 3.38 0 1 1 6.763 0h.75c.91 0 1.104-3.449-.125-3.449zM14.618 5.409H9.221s.454-1.822 1.366-2.667c.91-.846 4.031-.644 4.031-.644v3.31zm.78 0V2.09s.115-.066 1.677.065c1.558.13 4.618 3.253 4.618 3.253h-6.295z"/>
            <path d="M24.098 8.32a2.6 2.6 0 1 0 0 5.2 2.6 2.6 0 0 0 0-5.2zm0 3.977a1.376 1.376 0 1 1 .002-2.752 1.376 1.376 0 0 1-.002 2.752zM8.213 8.32a2.6 2.6 0 1 0 0 5.201 2.6 2.6 0 1 0 0-5.2zm0 3.977a1.376 1.376 0 0 1 0-2.751 1.376 1.376 0 1 1 0 2.751z"/>
        </g>
        <path d="M31.106 7.471c-.342-.824-.084-1.13-.862-1.429-1.443-.556-4.577-1.039-4.577-1.039s-3.643-3.708-5.139-3.772c-.845-.037-3.84-.448-6.16 0-1.693.323-3.708 3.577-3.708 3.577s-2.538.064-2.991.584c-.456.52-.849 1.498-.912 1.691-.063.195-.693.542-.52 1.496.175.964.39 2.341 1.237 2.341h.357a3.381 3.381 0 1 1 6.764 0h9.123a3.38 3.38 0 1 1 6.763 0h.75c.91 0 1.104-3.449-.125-3.449zM17.618 5.409h-5.397s.454-1.822 1.366-2.667c.91-.846 4.031-.644 4.031-.644v3.31zm.78 0V2.09s.115-.066 1.677.065c1.558.13 4.618 3.253 4.618 3.253h-6.295z"/>
        <path d="M27.098 8.32a2.6 2.6 0 1 0 0 5.2 2.6 2.6 0 0 0 0-5.2zm0 3.977a1.376 1.376 0 1 1 .002-2.752 1.376 1.376 0 0 1-.002 2.752zM11.213 8.32a2.6 2.6 0 1 0 0 5.201 2.6 2.6 0 1 0 0-5.2zm0 3.977a1.376 1.376 0 0 1 0-2.751 1.376 1.376 0 1 1 0 2.751z"/>
        <g opacity=".5">
            <path d="M34.106 7.471c-.342-.824-.084-1.13-.862-1.429-1.443-.556-4.577-1.039-4.577-1.039s-3.643-3.708-5.139-3.772c-.845-.037-3.84-.448-6.16 0-1.693.323-3.708 3.577-3.708 3.577s-2.538.064-2.991.584c-.456.52-.849 1.498-.912 1.691-.063.195-.693.542-.52 1.496.175.964.39 2.341 1.237 2.341h.357a3.381 3.381 0 1 1 6.764 0h9.123a3.38 3.38 0 1 1 6.763 0h.75c.91 0 1.104-3.449-.125-3.449zM20.618 5.409h-5.397s.454-1.822 1.366-2.667c.91-.846 4.031-.644 4.031-.644v3.31zm.78 0V2.09s.115-.066 1.677.065c1.558.13 4.618 3.253 4.618 3.253h-6.295z"/>
            <path d="M30.098 8.32a2.6 2.6 0 1 0 0 5.2 2.6 2.6 0 0 0 0-5.2zm0 3.977a1.376 1.376 0 1 1 .002-2.752 1.376 1.376 0 0 1-.002 2.752zM14.213 8.32a2.6 2.6 0 1 0 0 5.201 2.6 2.6 0 1 0 0-5.2zm0 3.977a1.376 1.376 0 0 1 0-2.751 1.376 1.376 0 1 1 0 2.751z"/>
        </g>
        <g stroke="#FFF">
            <path d="M37.476 7.028c.69.227 1.005 1.107.994 2.173-.012 1.2-.413 2.22-1.24 2.22h-1.249v-.5a2.88 2.88 0 0 0-5.763 0v.5H20.094v-.5a2.881 2.881 0 0 0-5.763 0v.5h-.857c-.905 0-1.315-.726-1.591-2.026-.043-.199-.028-.118-.138-.727-.113-.623.025-1.111.339-1.532.09-.12.217-.268.198-.208.168-.516.598-1.395 1.01-1.864.295-.34.88-.508 1.77-.629a15.233 15.233 0 0 1 1.318-.116 17.048 17.048 0 0 1 1.234-1.639c.606-.704 1.203-1.253 1.785-1.594.296-.174.587-.292.873-.346.55-.106 1.157-.17 1.815-.2.992-.042 1.999-.005 3.198.09A92.016 92.016 0 0 0 26.55.73c.643.028 1.48.493 2.537 1.303.279.214.569.449.866.702a34.106 34.106 0 0 1 1.953 1.799 46.653 46.653 0 0 1 2.514.48c.832.185 1.514.372 2.004.56.597.23.823.51.953 1.057.049.204.075.314.099.396zm-14.358-2.12V2.58a12.95 12.95 0 0 0-1.586.058c-.79.083-1.37.252-1.605.47-.24.223-.47.56-.68.98-.13.26-.246.539-.347.82h4.218zm1.78 0h4.547c-.28-.253-.567-.504-.856-.742a15.26 15.26 0 0 0-.936-.717c-.691-.484-1.262-.765-1.62-.795-.508-.043-.88-.066-1.135-.075v2.33zM24.5 2.58z"/>
            <path d="M33.098 7.82a3.1 3.1 0 1 1 .003 6.201 3.1 3.1 0 0 1-.003-6.2zm0 3.977a.877.877 0 1 0 .003-1.753.877.877 0 0 0-.003 1.753zM17.213 7.82a3.1 3.1 0 1 1-3.1 3.1c-.001-1.713 1.386-3.1 3.1-3.1zm0 3.977a.876.876 0 0 0 0-1.751.876.876 0 1 0 0 1.751z"/>
        </g>
    </g>
</svg>
