<svg xmlns="http://www.w3.org/2000/svg" width="50" height="92" viewBox="0 0 50 92">
    <g fill="none" fill-rule="evenodd">
        <g fill="#000" fill-rule="nonzero">
            <path d="M39.106 85.471c-.342-.824-.084-1.13-.862-1.429-1.443-.556-4.577-1.039-4.577-1.039s-3.643-3.708-5.139-3.772c-.845-.037-3.84-.448-6.16 0-1.693.323-3.708 3.577-3.708 3.577s-2.538.064-2.991.584c-.456.52-.849 1.498-.912 1.691-.063.195-.693.542-.52 1.496.175.964.39 2.341 1.237 2.341h.357a3.381 3.381 0 1 1 6.764 0h9.123a3.38 3.38 0 1 1 6.763 0h.75c.91 0 1.104-3.449-.125-3.449zm-13.488-2.062h-5.397s.454-1.822 1.366-2.667c.91-.846 4.031-.644 4.031-.644v3.31zm.78 0V80.09s.115-.066 1.677.065c1.558.13 4.618 3.253 4.618 3.253h-6.295z"/>
            <path d="M35.098 86.32a2.6 2.6 0 1 0 0 5.2 2.6 2.6 0 0 0 0-5.2zm0 3.977a1.376 1.376 0 1 1 .002-2.752 1.376 1.376 0 0 1-.002 2.752zM19.213 86.32a2.6 2.6 0 1 0 0 5.201 2.6 2.6 0 1 0 0-5.2zm0 3.977a1.376 1.376 0 0 1 0-2.751 1.376 1.376 0 1 1 0 2.751z"/>
        </g>
        <path fill="#4C5C66" fill-rule="nonzero" d="M26.208 74.5c1.795 0 3.25-1.567 3.25-3.5s-1.455-3.5-3.25-3.5-3.25 1.567-3.25 3.5 1.455 3.5 3.25 3.5zm.25-6.75v-36.5h-.5V68h.5v-.25z"/>
        <path fill="#4C5C66" d="M.244 9V.54h5.544v1.236h-4.02V4.08h3.78v1.236h-3.78V9H.244zm9-6.012c.824 0 1.436.2 1.836.6.4.4.6 1.016.6 1.848V9h-1.428v-.9c-.136.312-.35.556-.642.732-.292.176-.63.264-1.014.264-.392 0-.748-.08-1.068-.24a1.9 1.9 0 0 1-.756-.66 1.668 1.668 0 0 1-.276-.936c0-.432.11-.772.33-1.02.22-.248.578-.428 1.074-.54.496-.112 1.18-.168 2.052-.168h.3v-.276c0-.4-.086-.688-.258-.864-.172-.176-.458-.264-.858-.264-.312 0-.638.054-.978.162-.34.108-.674.258-1.002.45l-.42-1.032a4.66 4.66 0 0 1 1.188-.516 4.697 4.697 0 0 1 1.32-.204zm-.348 5.028c.4 0 .726-.134.978-.402s.378-.614.378-1.038v-.252h-.216c-.536 0-.952.024-1.248.072-.296.048-.508.132-.636.252s-.192.284-.192.492c0 .256.088.466.264.63.176.164.4.246.672.246zm7.716-5.028c.704 0 1.228.2 1.572.6.344.4.516 1.004.516 1.812V9h-1.5V5.484c0-.456-.086-.788-.258-.996-.172-.208-.442-.312-.81-.312-.432 0-.778.136-1.038.408-.26.272-.39.636-.39 1.092V9h-1.5V.54h1.5v3.408c.2-.312.466-.55.798-.714a2.472 2.472 0 0 1 1.11-.246zm7.476 1.248l-.876.084c-.992.104-1.488.608-1.488 1.512V9h-1.5V3.132h1.428v1.032c.304-.704.932-1.088 1.884-1.152l.456-.036.096 1.26zm2.376 3.636H29.8V9h-5.112V7.956L27.88 4.26h-3.132V3.132h4.932v1.02l-3.216 3.72zm9.552-1.536H32.02c.048.544.212.948.492 1.212s.68.396 1.2.396a2.83 2.83 0 0 0 1.776-.624l.432 1.032a3.15 3.15 0 0 1-1.026.54 3.94 3.94 0 0 1-1.242.204c-.96 0-1.718-.272-2.274-.816-.556-.544-.834-1.288-.834-2.232 0-.6.12-1.132.36-1.596.24-.464.578-.824 1.014-1.08.436-.256.93-.384 1.482-.384.808 0 1.446.26 1.914.78.468.52.702 1.236.702 2.148v.42zm-2.58-2.292c-.4 0-.722.128-.966.384s-.394.624-.45 1.104h2.712c-.016-.488-.136-.858-.36-1.11-.224-.252-.536-.378-.936-.378zm9.192-.912V9h-1.464v-.9c-.184.32-.432.566-.744.738a2.15 2.15 0 0 1-1.056.258c-1.44 0-2.16-.808-2.16-2.424v-3.54h1.5v3.552c0 .416.084.724.252.924.168.2.432.3.792.3.416 0 .75-.138 1.002-.414.252-.276.378-.642.378-1.098V3.132h1.5zm7.272 0V8.46c0 .92-.254 1.616-.762 2.088s-1.258.708-2.25.708a5.455 5.455 0 0 1-1.476-.198 4.17 4.17 0 0 1-1.236-.558l.42-1.056c.728.44 1.48.66 2.256.66 1.04 0 1.56-.512 1.56-1.536V7.8a1.832 1.832 0 0 1-.768.762c-.336.18-.72.27-1.152.27-.512 0-.966-.122-1.362-.366a2.515 2.515 0 0 1-.93-1.026c-.224-.44-.336-.948-.336-1.524 0-.576.11-1.086.33-1.53.22-.444.53-.788.93-1.032s.856-.366 1.368-.366c.432 0 .816.09 1.152.27.336.18.592.434.768.762v-.888H49.9zm-3.012 4.536c.48 0 .854-.156 1.122-.468.268-.312.402-.74.402-1.284 0-.552-.134-.984-.402-1.296-.268-.312-.642-.468-1.122-.468-.472 0-.844.156-1.116.468-.272.312-.408.744-.408 1.296 0 .536.136.962.408 1.278.272.316.644.474 1.116.474zM18.274 25.096c-.52 0-.998-.064-1.434-.192a3.245 3.245 0 0 1-1.11-.552l.42-1.044c.624.456 1.34.684 2.148.684.344 0 .606-.056.786-.168a.534.534 0 0 0 .27-.48.486.486 0 0 0-.186-.408c-.124-.096-.346-.184-.666-.264l-.96-.216c-.544-.12-.948-.316-1.212-.588-.264-.272-.396-.624-.396-1.056 0-.36.102-.678.306-.954.204-.276.488-.49.852-.642.364-.152.786-.228 1.266-.228.416 0 .818.064 1.206.192s.73.308 1.026.54l-.42 1.02c-.608-.44-1.216-.66-1.824-.66-.328 0-.584.06-.768.18a.57.57 0 0 0-.276.504c0 .16.058.292.174.396.116.104.302.184.558.24l.996.228c.584.128 1.012.33 1.284.606.272.276.408.638.408 1.086 0 .544-.22.976-.66 1.296-.44.32-1.036.48-1.788.48zm6.6-1.128c.176 0 .36-.012.552-.036l-.072 1.116c-.24.024-.46.036-.66.036-.824 0-1.432-.19-1.824-.57-.392-.38-.588-.946-.588-1.698V20.26h-1.128v-1.128h1.128V17.38h1.5v1.752h1.548v1.128h-1.548v2.532c0 .784.364 1.176 1.092 1.176zM26.302 25v-5.868h1.5V25h-1.5zm-.084-8.592h1.656v1.476h-1.656v-1.476zM29.35 25v-8.46h1.5V25h-1.5zm3.048 0v-8.46h1.5V25h-1.5z"/>
    </g>
</svg>
