<svg height="52" viewBox="0 0 52 52" width="52" xmlns="http://www.w3.org/2000/svg"><g fill="none" fill-rule="evenodd"><path d="m51.91 30.34-7.82 6.231a22.367 22.367 0 0 0 -17.55-8.457 22.368 22.368 0 0 0 -17.615 8.54l-7.85-6.194a32.366 32.366 0 0 1 25.465-12.346 32.365 32.365 0 0 1 25.37 12.227z" fill="#f4f8ef" fill-rule="nonzero"/><path d="m18.632 19.199 2.54 9.672a23.093 23.093 0 0 0 -12.247 8.038l-7.85-6.195a33.092 33.092 0 0 1 17.557-11.514z" fill="#6fb72f" fill-rule="nonzero"/><path d="m17.577 16.458 9.403 20.502a2.271 2.271 0 0 1 -1.326 3.095 2.263 2.263 0 0 1 -2.94-1.625l-5.138-21.973z" fill="#4c5c66"/></g></svg>