<svg height="52" viewBox="0 0 52 52" width="52" xmlns="http://www.w3.org/2000/svg"><g fill="none" fill-rule="evenodd"><path d="m51.91 30.226-7.82 6.231a22.367 22.367 0 0 0 -17.55-8.457 22.368 22.368 0 0 0 -17.615 8.54l-7.85-6.194a32.366 32.366 0 0 1 25.465-12.346 32.365 32.365 0 0 1 25.37 12.226z" fill="#ebf7ff" fill-rule="nonzero"/><path d="m26.54 18v10a22.368 22.368 0 0 0 -17.615 8.54l-7.85-6.194a32.366 32.366 0 0 1 25.465-12.346z" fill="#009cff" fill-rule="nonzero"/><path d="m26.37 16 2.215 22.448a2.271 2.271 0 0 1 -2.26 2.495 2.263 2.263 0 0 1 -2.252-2.494z" fill="#4c5c66"/></g></svg>