<svg xmlns="http://www.w3.org/2000/svg" width="52" height="52" viewBox="0 0 52 52">
    <g fill="none" fill-rule="evenodd">
        <path fill="#FFF1D9" fill-rule="nonzero" d="M51.91 30.34l-7.82 6.231a22.367 22.367 0 0 0-17.55-8.457 22.368 22.368 0 0 0-17.615 8.54l-7.85-6.194A32.366 32.366 0 0 1 26.54 18.114a32.365 32.365 0 0 1 25.37 12.227z"/>
        <path fill="#FFB535" fill-rule="nonzero" d="M35.557 19.385l-2.775 9.607a22.462 22.462 0 0 0-6.242-.878 22.368 22.368 0 0 0-17.615 8.54l-7.85-6.194A32.366 32.366 0 0 1 26.54 18.114c3.08 0 6.108.43 9.017 1.27z"/>
        <path fill="#4C5C66" d="M36.46 17.35l-5.213 21.946a2.271 2.271 0 0 1-2.95 1.623 2.263 2.263 0 0 1-1.317-3.091l9.48-20.479z"/>
    </g>
</svg>
