<svg xmlns="http://www.w3.org/2000/svg" width="52" height="52" viewBox="0 0 52 52">
    <g fill="none" fill-rule="evenodd">
        <path fill="#FEEFF0" fill-rule="nonzero" d="M50.91 30.34l-7.82 6.231a22.367 22.367 0 0 0-17.55-8.457 22.368 22.368 0 0 0-17.615 8.54L.075 30.46A32.366 32.366 0 0 1 25.54 18.114a32.365 32.365 0 0 1 25.37 12.227z"/>
        <path fill="#EA424C" fill-rule="nonzero" d="M44.162 23.988l-5.747 8.184a22.308 22.308 0 0 0-12.875-4.057 22.368 22.368 0 0 0-17.615 8.54L.075 30.46A32.366 32.366 0 0 1 25.54 18.114a32.306 32.306 0 0 1 18.622 5.874z"/>
        <path fill="#4C5C66" d="M46.09 21.545L32.342 40.033a2.282 2.282 0 0 1-3.358.335 2.261 2.261 0 0 1-.003-3.358l17.11-15.465z"/>
    </g>
</svg>
