<svg xmlns="http://www.w3.org/2000/svg" width="52" height="52" viewBox="0 0 52 52">
    <g fill="none" fill-rule="nonzero">
        <path fill="#009CFF" d="M35.497 17.087c-.017-.024-.04-.042-.052-.06l-.006-.006a1.168 1.168 0 0 0-1.63 0l-.006.006a.538.538 0 0 0-.053.06 39.182 39.182 0 0 0-4.744 6.073c-1.959 3.118-3.688 6.988-3.759 11.021 0 .078-.006.163-.006.24 0 1.187.23 2.318.64 3.36.24.601.539 1.167.89 1.697a9.397 9.397 0 0 0 7.847 4.177C39.8 43.655 44 39.52 44 34.422c0-7.699-6.169-14.891-8.503-17.335zm.12 24.197c-.926 0-1.8-.222-2.573-.607 3.864-.867 6.942-3.895 7.963-7.795.305.728.48 1.535.48 2.383-.005 3.323-2.632 6.02-5.87 6.02z"/>
        <path fill="#7FCDFF" d="M16.692 11.298c-.013-.018-.03-.032-.04-.045l-.004-.005a.876.876 0 0 0-1.223 0l-.004.005a33.061 33.061 0 0 0-1.025 1.133 29.386 29.386 0 0 0-2.573 3.467c-1.468 2.338-2.766 5.241-2.819 8.266 0 .058-.004.121-.004.18 0 .89.172 1.738.48 2.52.18.45.404.875.668 1.272a7.048 7.048 0 0 0 5.884 3.133c3.888 0 7.037-3.101 7.037-6.925 0-5.774-4.627-11.168-6.377-13.001zm-.66 17.398c-.695 0-1.35-.167-1.93-.456 2.898-.65 5.207-2.92 5.972-5.846.229.546.36 1.151.36 1.788-.004 2.492-1.974 4.514-4.402 4.514z"/>
    </g>
</svg>
