<svg height="52" viewBox="0 0 52 52" width="52" xmlns="http://www.w3.org/2000/svg"><g fill="none"><g transform="translate(2 3)"><path d="m15.736 33.228-5.989-.351a1 1 0 0 1 -.938-.92l-.46-5.786a1 1 0 0 0 -.267-.604l-4.044-4.324a1 1 0 0 1 -.013-1.351l3.826-4.26a1 1 0 0 0 .256-.632l.206-5.721a1 1 0 0 1 .948-.963l5.913-.3a1 1 0 0 0 .611-.25l4.35-3.844a1 1 0 0 1 1.314-.009l4.552 3.907a1 1 0 0 0 .593.24l5.988.351a1 1 0 0 1 .939.92l.46 5.786a1 1 0 0 0 .266.604l4.044 4.324a1 1 0 0 1 .014 1.351l-3.827 4.259a1 1 0 0 0 -.256.632l-.205 5.722a1 1 0 0 1 -.949.963l-5.913.3a1 1 0 0 0 -.61.25l-4.351 3.843a1 1 0 0 1 -1.314.01l-4.552-3.907a1 1 0 0 0 -.592-.24z" fill="#ff9400"/><ellipse cx="21.165" cy="20.644" fill="#ffeb3b" rx="11.205" ry="10.805"/></g><path d="m24.203 33.939c.098 0 .196.003.293.008a6.622 6.622 0 0 1 6.517-5.461 6.616 6.616 0 0 1 5.448 2.86 5.6 5.6 0 0 1 9.001 4.297h.024a4.407 4.407 0 0 1 4.405 4.408 4.407 4.407 0 0 1 -4.405 4.409h-21.283a5.258 5.258 0 0 1 -5.257-5.26 5.259 5.259 0 0 1 5.257-5.261z" fill="#7fcdff" stroke="#fff" stroke-width="2"/></g></svg>